%TF.GenerationSoftware,KiCad,Pcbnew,7.0.5*%
%TF.CreationDate,2023-06-02T10:03:58+02:00*%
%TF.ProjectId,esp32_soil_moisture_sensor,65737033-325f-4736-9f69-6c5f6d6f6973,5.3*%
%TF.SameCoordinates,Original*%
%TF.FileFunction,Copper,L2,Bot*%
%TF.FilePolarity,Positive*%
%FSLAX46Y46*%
G04 Gerber Fmt 4.6, Leading zero omitted, Abs format (unit mm)*
G04 Created by KiCad (PCBNEW 7.0.5) date 2023-06-02 10:03:58*
%MOMM*%
%LPD*%
G01*
G04 APERTURE LIST*
G04 Aperture macros list*
%AMRoundRect*
0 Rectangle with rounded corners*
0 $1 Rounding radius*
0 $2 $3 $4 $5 $6 $7 $8 $9 X,Y pos of 4 corners*
0 Add a 4 corners polygon primitive as box body*
4,1,4,$2,$3,$4,$5,$6,$7,$8,$9,$2,$3,0*
0 Add four circle primitives for the rounded corners*
1,1,$1+$1,$2,$3*
1,1,$1+$1,$4,$5*
1,1,$1+$1,$6,$7*
1,1,$1+$1,$8,$9*
0 Add four rect primitives between the rounded corners*
20,1,$1+$1,$2,$3,$4,$5,0*
20,1,$1+$1,$4,$5,$6,$7,0*
20,1,$1+$1,$6,$7,$8,$9,0*
20,1,$1+$1,$8,$9,$2,$3,0*%
%AMFreePoly0*
4,1,7,1.500000,-0.775000,-1.500000,-0.775000,-1.500000,0.225000,-6.000000,0.225000,-6.000000,0.775000,1.500000,0.775000,1.500000,-0.775000,1.500000,-0.775000,$1*%
%AMFreePoly1*
4,1,8,1.500000,-0.775000,-1.500000,-0.775000,-6.000000,-0.775000,-6.000000,-0.225000,-1.500000,-0.225000,-1.500000,0.775000,1.500000,0.775000,1.500000,-0.775000,1.500000,-0.775000,$1*%
G04 Aperture macros list end*
%ADD10C,0.100000*%
%ADD11C,0.150000*%
%ADD12C,0.300000*%
%ADD13C,0.400000*%
%TA.AperFunction,ComponentPad*%
%ADD14C,2.800000*%
%TD*%
%TA.AperFunction,ComponentPad*%
%ADD15O,1.050000X2.100000*%
%TD*%
%TA.AperFunction,SMDPad,CuDef*%
%ADD16O,0.800000X1.500000*%
%TD*%
%TA.AperFunction,SMDPad,CuDef*%
%ADD17RoundRect,0.200000X0.200000X0.275000X-0.200000X0.275000X-0.200000X-0.275000X0.200000X-0.275000X0*%
%TD*%
%TA.AperFunction,SMDPad,CuDef*%
%ADD18RoundRect,0.225000X-0.250000X0.225000X-0.250000X-0.225000X0.250000X-0.225000X0.250000X0.225000X0*%
%TD*%
%TA.AperFunction,SMDPad,CuDef*%
%ADD19R,2.600000X1.100000*%
%TD*%
%TA.AperFunction,SMDPad,CuDef*%
%ADD20FreePoly0,0.000000*%
%TD*%
%TA.AperFunction,SMDPad,CuDef*%
%ADD21FreePoly1,0.000000*%
%TD*%
%TA.AperFunction,SMDPad,CuDef*%
%ADD22RoundRect,0.150000X-0.150000X0.587500X-0.150000X-0.587500X0.150000X-0.587500X0.150000X0.587500X0*%
%TD*%
%TA.AperFunction,SMDPad,CuDef*%
%ADD23RoundRect,0.150000X-0.150000X-0.625000X0.150000X-0.625000X0.150000X0.625000X-0.150000X0.625000X0*%
%TD*%
%TA.AperFunction,SMDPad,CuDef*%
%ADD24RoundRect,0.250000X-0.350000X-0.650000X0.350000X-0.650000X0.350000X0.650000X-0.350000X0.650000X0*%
%TD*%
%TA.AperFunction,SMDPad,CuDef*%
%ADD25R,2.500000X2.500000*%
%TD*%
%TA.AperFunction,SMDPad,CuDef*%
%ADD26C,26.500000*%
%TD*%
%TA.AperFunction,SMDPad,CuDef*%
%ADD27RoundRect,0.200000X0.275000X-0.200000X0.275000X0.200000X-0.275000X0.200000X-0.275000X-0.200000X0*%
%TD*%
%TA.AperFunction,SMDPad,CuDef*%
%ADD28RoundRect,0.250000X-0.450000X0.262500X-0.450000X-0.262500X0.450000X-0.262500X0.450000X0.262500X0*%
%TD*%
%TA.AperFunction,SMDPad,CuDef*%
%ADD29RoundRect,0.250000X-0.475000X0.250000X-0.475000X-0.250000X0.475000X-0.250000X0.475000X0.250000X0*%
%TD*%
%TA.AperFunction,ViaPad*%
%ADD30C,0.600000*%
%TD*%
%TA.AperFunction,ViaPad*%
%ADD31C,0.700000*%
%TD*%
%TA.AperFunction,ViaPad*%
%ADD32C,0.800000*%
%TD*%
%TA.AperFunction,ViaPad*%
%ADD33C,0.500000*%
%TD*%
%TA.AperFunction,Conductor*%
%ADD34C,0.500000*%
%TD*%
%TA.AperFunction,Conductor*%
%ADD35C,0.400000*%
%TD*%
%TA.AperFunction,Conductor*%
%ADD36C,0.510000*%
%TD*%
%TA.AperFunction,Conductor*%
%ADD37C,0.200000*%
%TD*%
%TA.AperFunction,Conductor*%
%ADD38C,0.150000*%
%TD*%
%TA.AperFunction,Conductor*%
%ADD39C,0.250000*%
%TD*%
%TA.AperFunction,Conductor*%
%ADD40C,0.300000*%
%TD*%
%TA.AperFunction,Conductor*%
%ADD41C,0.320000*%
%TD*%
%TA.AperFunction,Conductor*%
%ADD42C,0.900000*%
%TD*%
%TA.AperFunction,Conductor*%
%ADD43C,1.000000*%
%TD*%
%TA.AperFunction,Profile*%
%ADD44C,0.050000*%
%TD*%
%TA.AperFunction,Profile*%
%ADD45C,0.100000*%
%TD*%
G04 APERTURE END LIST*
D10*
D11*
X177002200Y-166007200D02*
X285002200Y-166007200D01*
X285002200Y-198007200D01*
X177002200Y-198007200D01*
X177002200Y-166007200D01*
D10*
D11*
X10000000Y-10000000D02*
X287002200Y-10000000D01*
X287002200Y-200007200D01*
X10000000Y-200007200D01*
X10000000Y-10000000D01*
D10*
D11*
X12000000Y-12000000D02*
X285002200Y-12000000D01*
X285002200Y-198007200D01*
X12000000Y-198007200D01*
X12000000Y-12000000D01*
D10*
D11*
X60000000Y-12000000D02*
X60000000Y-10000000D01*
D10*
D11*
X110000000Y-12000000D02*
X110000000Y-10000000D01*
D10*
D11*
X160000000Y-12000000D02*
X160000000Y-10000000D01*
D10*
D11*
X210000000Y-12000000D02*
X210000000Y-10000000D01*
D10*
D11*
X260000000Y-12000000D02*
X260000000Y-10000000D01*
D10*
D11*
X36089160Y-11593604D02*
X35346303Y-11593604D01*
X35717731Y-11593604D02*
X35717731Y-10293604D01*
X35717731Y-10293604D02*
X35593922Y-10479319D01*
X35593922Y-10479319D02*
X35470112Y-10603128D01*
X35470112Y-10603128D02*
X35346303Y-10665033D01*
D10*
D11*
X85346303Y-10417414D02*
X85408207Y-10355509D01*
X85408207Y-10355509D02*
X85532017Y-10293604D01*
X85532017Y-10293604D02*
X85841541Y-10293604D01*
X85841541Y-10293604D02*
X85965350Y-10355509D01*
X85965350Y-10355509D02*
X86027255Y-10417414D01*
X86027255Y-10417414D02*
X86089160Y-10541223D01*
X86089160Y-10541223D02*
X86089160Y-10665033D01*
X86089160Y-10665033D02*
X86027255Y-10850747D01*
X86027255Y-10850747D02*
X85284398Y-11593604D01*
X85284398Y-11593604D02*
X86089160Y-11593604D01*
D10*
D11*
X135284398Y-10293604D02*
X136089160Y-10293604D01*
X136089160Y-10293604D02*
X135655826Y-10788842D01*
X135655826Y-10788842D02*
X135841541Y-10788842D01*
X135841541Y-10788842D02*
X135965350Y-10850747D01*
X135965350Y-10850747D02*
X136027255Y-10912652D01*
X136027255Y-10912652D02*
X136089160Y-11036461D01*
X136089160Y-11036461D02*
X136089160Y-11345985D01*
X136089160Y-11345985D02*
X136027255Y-11469795D01*
X136027255Y-11469795D02*
X135965350Y-11531700D01*
X135965350Y-11531700D02*
X135841541Y-11593604D01*
X135841541Y-11593604D02*
X135470112Y-11593604D01*
X135470112Y-11593604D02*
X135346303Y-11531700D01*
X135346303Y-11531700D02*
X135284398Y-11469795D01*
D10*
D11*
X185965350Y-10726938D02*
X185965350Y-11593604D01*
X185655826Y-10231700D02*
X185346303Y-11160271D01*
X185346303Y-11160271D02*
X186151064Y-11160271D01*
D10*
D11*
X236027255Y-10293604D02*
X235408207Y-10293604D01*
X235408207Y-10293604D02*
X235346303Y-10912652D01*
X235346303Y-10912652D02*
X235408207Y-10850747D01*
X235408207Y-10850747D02*
X235532017Y-10788842D01*
X235532017Y-10788842D02*
X235841541Y-10788842D01*
X235841541Y-10788842D02*
X235965350Y-10850747D01*
X235965350Y-10850747D02*
X236027255Y-10912652D01*
X236027255Y-10912652D02*
X236089160Y-11036461D01*
X236089160Y-11036461D02*
X236089160Y-11345985D01*
X236089160Y-11345985D02*
X236027255Y-11469795D01*
X236027255Y-11469795D02*
X235965350Y-11531700D01*
X235965350Y-11531700D02*
X235841541Y-11593604D01*
X235841541Y-11593604D02*
X235532017Y-11593604D01*
X235532017Y-11593604D02*
X235408207Y-11531700D01*
X235408207Y-11531700D02*
X235346303Y-11469795D01*
D10*
D11*
X285965350Y-10293604D02*
X285717731Y-10293604D01*
X285717731Y-10293604D02*
X285593922Y-10355509D01*
X285593922Y-10355509D02*
X285532017Y-10417414D01*
X285532017Y-10417414D02*
X285408207Y-10603128D01*
X285408207Y-10603128D02*
X285346303Y-10850747D01*
X285346303Y-10850747D02*
X285346303Y-11345985D01*
X285346303Y-11345985D02*
X285408207Y-11469795D01*
X285408207Y-11469795D02*
X285470112Y-11531700D01*
X285470112Y-11531700D02*
X285593922Y-11593604D01*
X285593922Y-11593604D02*
X285841541Y-11593604D01*
X285841541Y-11593604D02*
X285965350Y-11531700D01*
X285965350Y-11531700D02*
X286027255Y-11469795D01*
X286027255Y-11469795D02*
X286089160Y-11345985D01*
X286089160Y-11345985D02*
X286089160Y-11036461D01*
X286089160Y-11036461D02*
X286027255Y-10912652D01*
X286027255Y-10912652D02*
X285965350Y-10850747D01*
X285965350Y-10850747D02*
X285841541Y-10788842D01*
X285841541Y-10788842D02*
X285593922Y-10788842D01*
X285593922Y-10788842D02*
X285470112Y-10850747D01*
X285470112Y-10850747D02*
X285408207Y-10912652D01*
X285408207Y-10912652D02*
X285346303Y-11036461D01*
D10*
D11*
X60000000Y-198007200D02*
X60000000Y-200007200D01*
D10*
D11*
X110000000Y-198007200D02*
X110000000Y-200007200D01*
D10*
D11*
X160000000Y-198007200D02*
X160000000Y-200007200D01*
D10*
D11*
X210000000Y-198007200D02*
X210000000Y-200007200D01*
D10*
D11*
X260000000Y-198007200D02*
X260000000Y-200007200D01*
D10*
D11*
X36089160Y-199600804D02*
X35346303Y-199600804D01*
X35717731Y-199600804D02*
X35717731Y-198300804D01*
X35717731Y-198300804D02*
X35593922Y-198486519D01*
X35593922Y-198486519D02*
X35470112Y-198610328D01*
X35470112Y-198610328D02*
X35346303Y-198672233D01*
D10*
D11*
X85346303Y-198424614D02*
X85408207Y-198362709D01*
X85408207Y-198362709D02*
X85532017Y-198300804D01*
X85532017Y-198300804D02*
X85841541Y-198300804D01*
X85841541Y-198300804D02*
X85965350Y-198362709D01*
X85965350Y-198362709D02*
X86027255Y-198424614D01*
X86027255Y-198424614D02*
X86089160Y-198548423D01*
X86089160Y-198548423D02*
X86089160Y-198672233D01*
X86089160Y-198672233D02*
X86027255Y-198857947D01*
X86027255Y-198857947D02*
X85284398Y-199600804D01*
X85284398Y-199600804D02*
X86089160Y-199600804D01*
D10*
D11*
X135284398Y-198300804D02*
X136089160Y-198300804D01*
X136089160Y-198300804D02*
X135655826Y-198796042D01*
X135655826Y-198796042D02*
X135841541Y-198796042D01*
X135841541Y-198796042D02*
X135965350Y-198857947D01*
X135965350Y-198857947D02*
X136027255Y-198919852D01*
X136027255Y-198919852D02*
X136089160Y-199043661D01*
X136089160Y-199043661D02*
X136089160Y-199353185D01*
X136089160Y-199353185D02*
X136027255Y-199476995D01*
X136027255Y-199476995D02*
X135965350Y-199538900D01*
X135965350Y-199538900D02*
X135841541Y-199600804D01*
X135841541Y-199600804D02*
X135470112Y-199600804D01*
X135470112Y-199600804D02*
X135346303Y-199538900D01*
X135346303Y-199538900D02*
X135284398Y-199476995D01*
D10*
D11*
X185965350Y-198734138D02*
X185965350Y-199600804D01*
X185655826Y-198238900D02*
X185346303Y-199167471D01*
X185346303Y-199167471D02*
X186151064Y-199167471D01*
D10*
D11*
X236027255Y-198300804D02*
X235408207Y-198300804D01*
X235408207Y-198300804D02*
X235346303Y-198919852D01*
X235346303Y-198919852D02*
X235408207Y-198857947D01*
X235408207Y-198857947D02*
X235532017Y-198796042D01*
X235532017Y-198796042D02*
X235841541Y-198796042D01*
X235841541Y-198796042D02*
X235965350Y-198857947D01*
X235965350Y-198857947D02*
X236027255Y-198919852D01*
X236027255Y-198919852D02*
X236089160Y-199043661D01*
X236089160Y-199043661D02*
X236089160Y-199353185D01*
X236089160Y-199353185D02*
X236027255Y-199476995D01*
X236027255Y-199476995D02*
X235965350Y-199538900D01*
X235965350Y-199538900D02*
X235841541Y-199600804D01*
X235841541Y-199600804D02*
X235532017Y-199600804D01*
X235532017Y-199600804D02*
X235408207Y-199538900D01*
X235408207Y-199538900D02*
X235346303Y-199476995D01*
D10*
D11*
X285965350Y-198300804D02*
X285717731Y-198300804D01*
X285717731Y-198300804D02*
X285593922Y-198362709D01*
X285593922Y-198362709D02*
X285532017Y-198424614D01*
X285532017Y-198424614D02*
X285408207Y-198610328D01*
X285408207Y-198610328D02*
X285346303Y-198857947D01*
X285346303Y-198857947D02*
X285346303Y-199353185D01*
X285346303Y-199353185D02*
X285408207Y-199476995D01*
X285408207Y-199476995D02*
X285470112Y-199538900D01*
X285470112Y-199538900D02*
X285593922Y-199600804D01*
X285593922Y-199600804D02*
X285841541Y-199600804D01*
X285841541Y-199600804D02*
X285965350Y-199538900D01*
X285965350Y-199538900D02*
X286027255Y-199476995D01*
X286027255Y-199476995D02*
X286089160Y-199353185D01*
X286089160Y-199353185D02*
X286089160Y-199043661D01*
X286089160Y-199043661D02*
X286027255Y-198919852D01*
X286027255Y-198919852D02*
X285965350Y-198857947D01*
X285965350Y-198857947D02*
X285841541Y-198796042D01*
X285841541Y-198796042D02*
X285593922Y-198796042D01*
X285593922Y-198796042D02*
X285470112Y-198857947D01*
X285470112Y-198857947D02*
X285408207Y-198919852D01*
X285408207Y-198919852D02*
X285346303Y-199043661D01*
D10*
D11*
X10000000Y-60000000D02*
X12000000Y-60000000D01*
D10*
D11*
X10000000Y-110000000D02*
X12000000Y-110000000D01*
D10*
D11*
X10000000Y-160000000D02*
X12000000Y-160000000D01*
D10*
D11*
X10690476Y-35222176D02*
X11309523Y-35222176D01*
X10566666Y-35593604D02*
X10999999Y-34293604D01*
X10999999Y-34293604D02*
X11433333Y-35593604D01*
D10*
D11*
X11092857Y-84912652D02*
X11278571Y-84974557D01*
X11278571Y-84974557D02*
X11340476Y-85036461D01*
X11340476Y-85036461D02*
X11402380Y-85160271D01*
X11402380Y-85160271D02*
X11402380Y-85345985D01*
X11402380Y-85345985D02*
X11340476Y-85469795D01*
X11340476Y-85469795D02*
X11278571Y-85531700D01*
X11278571Y-85531700D02*
X11154761Y-85593604D01*
X11154761Y-85593604D02*
X10659523Y-85593604D01*
X10659523Y-85593604D02*
X10659523Y-84293604D01*
X10659523Y-84293604D02*
X11092857Y-84293604D01*
X11092857Y-84293604D02*
X11216666Y-84355509D01*
X11216666Y-84355509D02*
X11278571Y-84417414D01*
X11278571Y-84417414D02*
X11340476Y-84541223D01*
X11340476Y-84541223D02*
X11340476Y-84665033D01*
X11340476Y-84665033D02*
X11278571Y-84788842D01*
X11278571Y-84788842D02*
X11216666Y-84850747D01*
X11216666Y-84850747D02*
X11092857Y-84912652D01*
X11092857Y-84912652D02*
X10659523Y-84912652D01*
D10*
D11*
X11402380Y-135469795D02*
X11340476Y-135531700D01*
X11340476Y-135531700D02*
X11154761Y-135593604D01*
X11154761Y-135593604D02*
X11030952Y-135593604D01*
X11030952Y-135593604D02*
X10845238Y-135531700D01*
X10845238Y-135531700D02*
X10721428Y-135407890D01*
X10721428Y-135407890D02*
X10659523Y-135284080D01*
X10659523Y-135284080D02*
X10597619Y-135036461D01*
X10597619Y-135036461D02*
X10597619Y-134850747D01*
X10597619Y-134850747D02*
X10659523Y-134603128D01*
X10659523Y-134603128D02*
X10721428Y-134479319D01*
X10721428Y-134479319D02*
X10845238Y-134355509D01*
X10845238Y-134355509D02*
X11030952Y-134293604D01*
X11030952Y-134293604D02*
X11154761Y-134293604D01*
X11154761Y-134293604D02*
X11340476Y-134355509D01*
X11340476Y-134355509D02*
X11402380Y-134417414D01*
D10*
D11*
X10659523Y-185593604D02*
X10659523Y-184293604D01*
X10659523Y-184293604D02*
X10969047Y-184293604D01*
X10969047Y-184293604D02*
X11154761Y-184355509D01*
X11154761Y-184355509D02*
X11278571Y-184479319D01*
X11278571Y-184479319D02*
X11340476Y-184603128D01*
X11340476Y-184603128D02*
X11402380Y-184850747D01*
X11402380Y-184850747D02*
X11402380Y-185036461D01*
X11402380Y-185036461D02*
X11340476Y-185284080D01*
X11340476Y-185284080D02*
X11278571Y-185407890D01*
X11278571Y-185407890D02*
X11154761Y-185531700D01*
X11154761Y-185531700D02*
X10969047Y-185593604D01*
X10969047Y-185593604D02*
X10659523Y-185593604D01*
D10*
D11*
X287002200Y-60000000D02*
X285002200Y-60000000D01*
D10*
D11*
X287002200Y-110000000D02*
X285002200Y-110000000D01*
D10*
D11*
X287002200Y-160000000D02*
X285002200Y-160000000D01*
D10*
D11*
X285692676Y-35222176D02*
X286311723Y-35222176D01*
X285568866Y-35593604D02*
X286002199Y-34293604D01*
X286002199Y-34293604D02*
X286435533Y-35593604D01*
D10*
D11*
X286095057Y-84912652D02*
X286280771Y-84974557D01*
X286280771Y-84974557D02*
X286342676Y-85036461D01*
X286342676Y-85036461D02*
X286404580Y-85160271D01*
X286404580Y-85160271D02*
X286404580Y-85345985D01*
X286404580Y-85345985D02*
X286342676Y-85469795D01*
X286342676Y-85469795D02*
X286280771Y-85531700D01*
X286280771Y-85531700D02*
X286156961Y-85593604D01*
X286156961Y-85593604D02*
X285661723Y-85593604D01*
X285661723Y-85593604D02*
X285661723Y-84293604D01*
X285661723Y-84293604D02*
X286095057Y-84293604D01*
X286095057Y-84293604D02*
X286218866Y-84355509D01*
X286218866Y-84355509D02*
X286280771Y-84417414D01*
X286280771Y-84417414D02*
X286342676Y-84541223D01*
X286342676Y-84541223D02*
X286342676Y-84665033D01*
X286342676Y-84665033D02*
X286280771Y-84788842D01*
X286280771Y-84788842D02*
X286218866Y-84850747D01*
X286218866Y-84850747D02*
X286095057Y-84912652D01*
X286095057Y-84912652D02*
X285661723Y-84912652D01*
D10*
D11*
X286404580Y-135469795D02*
X286342676Y-135531700D01*
X286342676Y-135531700D02*
X286156961Y-135593604D01*
X286156961Y-135593604D02*
X286033152Y-135593604D01*
X286033152Y-135593604D02*
X285847438Y-135531700D01*
X285847438Y-135531700D02*
X285723628Y-135407890D01*
X285723628Y-135407890D02*
X285661723Y-135284080D01*
X285661723Y-135284080D02*
X285599819Y-135036461D01*
X285599819Y-135036461D02*
X285599819Y-134850747D01*
X285599819Y-134850747D02*
X285661723Y-134603128D01*
X285661723Y-134603128D02*
X285723628Y-134479319D01*
X285723628Y-134479319D02*
X285847438Y-134355509D01*
X285847438Y-134355509D02*
X286033152Y-134293604D01*
X286033152Y-134293604D02*
X286156961Y-134293604D01*
X286156961Y-134293604D02*
X286342676Y-134355509D01*
X286342676Y-134355509D02*
X286404580Y-134417414D01*
D10*
D11*
X285661723Y-185593604D02*
X285661723Y-184293604D01*
X285661723Y-184293604D02*
X285971247Y-184293604D01*
X285971247Y-184293604D02*
X286156961Y-184355509D01*
X286156961Y-184355509D02*
X286280771Y-184479319D01*
X286280771Y-184479319D02*
X286342676Y-184603128D01*
X286342676Y-184603128D02*
X286404580Y-184850747D01*
X286404580Y-184850747D02*
X286404580Y-185036461D01*
X286404580Y-185036461D02*
X286342676Y-185284080D01*
X286342676Y-185284080D02*
X286280771Y-185407890D01*
X286280771Y-185407890D02*
X286156961Y-185531700D01*
X286156961Y-185531700D02*
X285971247Y-185593604D01*
X285971247Y-185593604D02*
X285661723Y-185593604D01*
D10*
D11*
X200458026Y-193793328D02*
X200458026Y-192293328D01*
X200458026Y-192293328D02*
X200815169Y-192293328D01*
X200815169Y-192293328D02*
X201029455Y-192364757D01*
X201029455Y-192364757D02*
X201172312Y-192507614D01*
X201172312Y-192507614D02*
X201243741Y-192650471D01*
X201243741Y-192650471D02*
X201315169Y-192936185D01*
X201315169Y-192936185D02*
X201315169Y-193150471D01*
X201315169Y-193150471D02*
X201243741Y-193436185D01*
X201243741Y-193436185D02*
X201172312Y-193579042D01*
X201172312Y-193579042D02*
X201029455Y-193721900D01*
X201029455Y-193721900D02*
X200815169Y-193793328D01*
X200815169Y-193793328D02*
X200458026Y-193793328D01*
X202600884Y-193793328D02*
X202600884Y-193007614D01*
X202600884Y-193007614D02*
X202529455Y-192864757D01*
X202529455Y-192864757D02*
X202386598Y-192793328D01*
X202386598Y-192793328D02*
X202100884Y-192793328D01*
X202100884Y-192793328D02*
X201958026Y-192864757D01*
X202600884Y-193721900D02*
X202458026Y-193793328D01*
X202458026Y-193793328D02*
X202100884Y-193793328D01*
X202100884Y-193793328D02*
X201958026Y-193721900D01*
X201958026Y-193721900D02*
X201886598Y-193579042D01*
X201886598Y-193579042D02*
X201886598Y-193436185D01*
X201886598Y-193436185D02*
X201958026Y-193293328D01*
X201958026Y-193293328D02*
X202100884Y-193221900D01*
X202100884Y-193221900D02*
X202458026Y-193221900D01*
X202458026Y-193221900D02*
X202600884Y-193150471D01*
X203100884Y-192793328D02*
X203672312Y-192793328D01*
X203315169Y-192293328D02*
X203315169Y-193579042D01*
X203315169Y-193579042D02*
X203386598Y-193721900D01*
X203386598Y-193721900D02*
X203529455Y-193793328D01*
X203529455Y-193793328D02*
X203672312Y-193793328D01*
X204743741Y-193721900D02*
X204600884Y-193793328D01*
X204600884Y-193793328D02*
X204315170Y-193793328D01*
X204315170Y-193793328D02*
X204172312Y-193721900D01*
X204172312Y-193721900D02*
X204100884Y-193579042D01*
X204100884Y-193579042D02*
X204100884Y-193007614D01*
X204100884Y-193007614D02*
X204172312Y-192864757D01*
X204172312Y-192864757D02*
X204315170Y-192793328D01*
X204315170Y-192793328D02*
X204600884Y-192793328D01*
X204600884Y-192793328D02*
X204743741Y-192864757D01*
X204743741Y-192864757D02*
X204815170Y-193007614D01*
X204815170Y-193007614D02*
X204815170Y-193150471D01*
X204815170Y-193150471D02*
X204100884Y-193293328D01*
X205458026Y-193650471D02*
X205529455Y-193721900D01*
X205529455Y-193721900D02*
X205458026Y-193793328D01*
X205458026Y-193793328D02*
X205386598Y-193721900D01*
X205386598Y-193721900D02*
X205458026Y-193650471D01*
X205458026Y-193650471D02*
X205458026Y-193793328D01*
X205458026Y-192864757D02*
X205529455Y-192936185D01*
X205529455Y-192936185D02*
X205458026Y-193007614D01*
X205458026Y-193007614D02*
X205386598Y-192936185D01*
X205386598Y-192936185D02*
X205458026Y-192864757D01*
X205458026Y-192864757D02*
X205458026Y-193007614D01*
X207243741Y-192436185D02*
X207315169Y-192364757D01*
X207315169Y-192364757D02*
X207458027Y-192293328D01*
X207458027Y-192293328D02*
X207815169Y-192293328D01*
X207815169Y-192293328D02*
X207958027Y-192364757D01*
X207958027Y-192364757D02*
X208029455Y-192436185D01*
X208029455Y-192436185D02*
X208100884Y-192579042D01*
X208100884Y-192579042D02*
X208100884Y-192721900D01*
X208100884Y-192721900D02*
X208029455Y-192936185D01*
X208029455Y-192936185D02*
X207172312Y-193793328D01*
X207172312Y-193793328D02*
X208100884Y-193793328D01*
X209029455Y-192293328D02*
X209172312Y-192293328D01*
X209172312Y-192293328D02*
X209315169Y-192364757D01*
X209315169Y-192364757D02*
X209386598Y-192436185D01*
X209386598Y-192436185D02*
X209458026Y-192579042D01*
X209458026Y-192579042D02*
X209529455Y-192864757D01*
X209529455Y-192864757D02*
X209529455Y-193221900D01*
X209529455Y-193221900D02*
X209458026Y-193507614D01*
X209458026Y-193507614D02*
X209386598Y-193650471D01*
X209386598Y-193650471D02*
X209315169Y-193721900D01*
X209315169Y-193721900D02*
X209172312Y-193793328D01*
X209172312Y-193793328D02*
X209029455Y-193793328D01*
X209029455Y-193793328D02*
X208886598Y-193721900D01*
X208886598Y-193721900D02*
X208815169Y-193650471D01*
X208815169Y-193650471D02*
X208743740Y-193507614D01*
X208743740Y-193507614D02*
X208672312Y-193221900D01*
X208672312Y-193221900D02*
X208672312Y-192864757D01*
X208672312Y-192864757D02*
X208743740Y-192579042D01*
X208743740Y-192579042D02*
X208815169Y-192436185D01*
X208815169Y-192436185D02*
X208886598Y-192364757D01*
X208886598Y-192364757D02*
X209029455Y-192293328D01*
X210100883Y-192436185D02*
X210172311Y-192364757D01*
X210172311Y-192364757D02*
X210315169Y-192293328D01*
X210315169Y-192293328D02*
X210672311Y-192293328D01*
X210672311Y-192293328D02*
X210815169Y-192364757D01*
X210815169Y-192364757D02*
X210886597Y-192436185D01*
X210886597Y-192436185D02*
X210958026Y-192579042D01*
X210958026Y-192579042D02*
X210958026Y-192721900D01*
X210958026Y-192721900D02*
X210886597Y-192936185D01*
X210886597Y-192936185D02*
X210029454Y-193793328D01*
X210029454Y-193793328D02*
X210958026Y-193793328D01*
X212386597Y-193793328D02*
X211529454Y-193793328D01*
X211958025Y-193793328D02*
X211958025Y-192293328D01*
X211958025Y-192293328D02*
X211815168Y-192507614D01*
X211815168Y-192507614D02*
X211672311Y-192650471D01*
X211672311Y-192650471D02*
X211529454Y-192721900D01*
X213029453Y-193221900D02*
X214172311Y-193221900D01*
X215672311Y-193793328D02*
X214815168Y-193793328D01*
X215243739Y-193793328D02*
X215243739Y-192293328D01*
X215243739Y-192293328D02*
X215100882Y-192507614D01*
X215100882Y-192507614D02*
X214958025Y-192650471D01*
X214958025Y-192650471D02*
X214815168Y-192721900D01*
X216243739Y-192436185D02*
X216315167Y-192364757D01*
X216315167Y-192364757D02*
X216458025Y-192293328D01*
X216458025Y-192293328D02*
X216815167Y-192293328D01*
X216815167Y-192293328D02*
X216958025Y-192364757D01*
X216958025Y-192364757D02*
X217029453Y-192436185D01*
X217029453Y-192436185D02*
X217100882Y-192579042D01*
X217100882Y-192579042D02*
X217100882Y-192721900D01*
X217100882Y-192721900D02*
X217029453Y-192936185D01*
X217029453Y-192936185D02*
X216172310Y-193793328D01*
X216172310Y-193793328D02*
X217100882Y-193793328D01*
X217743738Y-193221900D02*
X218886596Y-193221900D01*
X219529453Y-192436185D02*
X219600881Y-192364757D01*
X219600881Y-192364757D02*
X219743739Y-192293328D01*
X219743739Y-192293328D02*
X220100881Y-192293328D01*
X220100881Y-192293328D02*
X220243739Y-192364757D01*
X220243739Y-192364757D02*
X220315167Y-192436185D01*
X220315167Y-192436185D02*
X220386596Y-192579042D01*
X220386596Y-192579042D02*
X220386596Y-192721900D01*
X220386596Y-192721900D02*
X220315167Y-192936185D01*
X220315167Y-192936185D02*
X219458024Y-193793328D01*
X219458024Y-193793328D02*
X220386596Y-193793328D01*
X221243738Y-192936185D02*
X221100881Y-192864757D01*
X221100881Y-192864757D02*
X221029452Y-192793328D01*
X221029452Y-192793328D02*
X220958024Y-192650471D01*
X220958024Y-192650471D02*
X220958024Y-192579042D01*
X220958024Y-192579042D02*
X221029452Y-192436185D01*
X221029452Y-192436185D02*
X221100881Y-192364757D01*
X221100881Y-192364757D02*
X221243738Y-192293328D01*
X221243738Y-192293328D02*
X221529452Y-192293328D01*
X221529452Y-192293328D02*
X221672310Y-192364757D01*
X221672310Y-192364757D02*
X221743738Y-192436185D01*
X221743738Y-192436185D02*
X221815167Y-192579042D01*
X221815167Y-192579042D02*
X221815167Y-192650471D01*
X221815167Y-192650471D02*
X221743738Y-192793328D01*
X221743738Y-192793328D02*
X221672310Y-192864757D01*
X221672310Y-192864757D02*
X221529452Y-192936185D01*
X221529452Y-192936185D02*
X221243738Y-192936185D01*
X221243738Y-192936185D02*
X221100881Y-193007614D01*
X221100881Y-193007614D02*
X221029452Y-193079042D01*
X221029452Y-193079042D02*
X220958024Y-193221900D01*
X220958024Y-193221900D02*
X220958024Y-193507614D01*
X220958024Y-193507614D02*
X221029452Y-193650471D01*
X221029452Y-193650471D02*
X221100881Y-193721900D01*
X221100881Y-193721900D02*
X221243738Y-193793328D01*
X221243738Y-193793328D02*
X221529452Y-193793328D01*
X221529452Y-193793328D02*
X221672310Y-193721900D01*
X221672310Y-193721900D02*
X221743738Y-193650471D01*
X221743738Y-193650471D02*
X221815167Y-193507614D01*
X221815167Y-193507614D02*
X221815167Y-193221900D01*
X221815167Y-193221900D02*
X221743738Y-193079042D01*
X221743738Y-193079042D02*
X221672310Y-193007614D01*
X221672310Y-193007614D02*
X221529452Y-192936185D01*
D10*
D11*
X177002200Y-194507200D02*
X285002200Y-194507200D01*
D10*
D11*
X178458026Y-196593328D02*
X178458026Y-195093328D01*
X179315169Y-196593328D02*
X178672312Y-195736185D01*
X179315169Y-195093328D02*
X178458026Y-195950471D01*
X179958026Y-196593328D02*
X179958026Y-195593328D01*
X179958026Y-195093328D02*
X179886598Y-195164757D01*
X179886598Y-195164757D02*
X179958026Y-195236185D01*
X179958026Y-195236185D02*
X180029455Y-195164757D01*
X180029455Y-195164757D02*
X179958026Y-195093328D01*
X179958026Y-195093328D02*
X179958026Y-195236185D01*
X181529455Y-196450471D02*
X181458027Y-196521900D01*
X181458027Y-196521900D02*
X181243741Y-196593328D01*
X181243741Y-196593328D02*
X181100884Y-196593328D01*
X181100884Y-196593328D02*
X180886598Y-196521900D01*
X180886598Y-196521900D02*
X180743741Y-196379042D01*
X180743741Y-196379042D02*
X180672312Y-196236185D01*
X180672312Y-196236185D02*
X180600884Y-195950471D01*
X180600884Y-195950471D02*
X180600884Y-195736185D01*
X180600884Y-195736185D02*
X180672312Y-195450471D01*
X180672312Y-195450471D02*
X180743741Y-195307614D01*
X180743741Y-195307614D02*
X180886598Y-195164757D01*
X180886598Y-195164757D02*
X181100884Y-195093328D01*
X181100884Y-195093328D02*
X181243741Y-195093328D01*
X181243741Y-195093328D02*
X181458027Y-195164757D01*
X181458027Y-195164757D02*
X181529455Y-195236185D01*
X182815170Y-196593328D02*
X182815170Y-195807614D01*
X182815170Y-195807614D02*
X182743741Y-195664757D01*
X182743741Y-195664757D02*
X182600884Y-195593328D01*
X182600884Y-195593328D02*
X182315170Y-195593328D01*
X182315170Y-195593328D02*
X182172312Y-195664757D01*
X182815170Y-196521900D02*
X182672312Y-196593328D01*
X182672312Y-196593328D02*
X182315170Y-196593328D01*
X182315170Y-196593328D02*
X182172312Y-196521900D01*
X182172312Y-196521900D02*
X182100884Y-196379042D01*
X182100884Y-196379042D02*
X182100884Y-196236185D01*
X182100884Y-196236185D02*
X182172312Y-196093328D01*
X182172312Y-196093328D02*
X182315170Y-196021900D01*
X182315170Y-196021900D02*
X182672312Y-196021900D01*
X182672312Y-196021900D02*
X182815170Y-195950471D01*
X184172313Y-196593328D02*
X184172313Y-195093328D01*
X184172313Y-196521900D02*
X184029455Y-196593328D01*
X184029455Y-196593328D02*
X183743741Y-196593328D01*
X183743741Y-196593328D02*
X183600884Y-196521900D01*
X183600884Y-196521900D02*
X183529455Y-196450471D01*
X183529455Y-196450471D02*
X183458027Y-196307614D01*
X183458027Y-196307614D02*
X183458027Y-195879042D01*
X183458027Y-195879042D02*
X183529455Y-195736185D01*
X183529455Y-195736185D02*
X183600884Y-195664757D01*
X183600884Y-195664757D02*
X183743741Y-195593328D01*
X183743741Y-195593328D02*
X184029455Y-195593328D01*
X184029455Y-195593328D02*
X184172313Y-195664757D01*
X186029455Y-195807614D02*
X186529455Y-195807614D01*
X186743741Y-196593328D02*
X186029455Y-196593328D01*
X186029455Y-196593328D02*
X186029455Y-195093328D01*
X186029455Y-195093328D02*
X186743741Y-195093328D01*
X187386598Y-196450471D02*
X187458027Y-196521900D01*
X187458027Y-196521900D02*
X187386598Y-196593328D01*
X187386598Y-196593328D02*
X187315170Y-196521900D01*
X187315170Y-196521900D02*
X187386598Y-196450471D01*
X187386598Y-196450471D02*
X187386598Y-196593328D01*
X188100884Y-196593328D02*
X188100884Y-195093328D01*
X188100884Y-195093328D02*
X188458027Y-195093328D01*
X188458027Y-195093328D02*
X188672313Y-195164757D01*
X188672313Y-195164757D02*
X188815170Y-195307614D01*
X188815170Y-195307614D02*
X188886599Y-195450471D01*
X188886599Y-195450471D02*
X188958027Y-195736185D01*
X188958027Y-195736185D02*
X188958027Y-195950471D01*
X188958027Y-195950471D02*
X188886599Y-196236185D01*
X188886599Y-196236185D02*
X188815170Y-196379042D01*
X188815170Y-196379042D02*
X188672313Y-196521900D01*
X188672313Y-196521900D02*
X188458027Y-196593328D01*
X188458027Y-196593328D02*
X188100884Y-196593328D01*
X189600884Y-196450471D02*
X189672313Y-196521900D01*
X189672313Y-196521900D02*
X189600884Y-196593328D01*
X189600884Y-196593328D02*
X189529456Y-196521900D01*
X189529456Y-196521900D02*
X189600884Y-196450471D01*
X189600884Y-196450471D02*
X189600884Y-196593328D01*
X190243742Y-196164757D02*
X190958028Y-196164757D01*
X190100885Y-196593328D02*
X190600885Y-195093328D01*
X190600885Y-195093328D02*
X191100885Y-196593328D01*
X191600884Y-196450471D02*
X191672313Y-196521900D01*
X191672313Y-196521900D02*
X191600884Y-196593328D01*
X191600884Y-196593328D02*
X191529456Y-196521900D01*
X191529456Y-196521900D02*
X191600884Y-196450471D01*
X191600884Y-196450471D02*
X191600884Y-196593328D01*
X194600884Y-196593328D02*
X194600884Y-195093328D01*
X194743742Y-196021900D02*
X195172313Y-196593328D01*
X195172313Y-195593328D02*
X194600884Y-196164757D01*
X195815170Y-196593328D02*
X195815170Y-195593328D01*
X195815170Y-195093328D02*
X195743742Y-195164757D01*
X195743742Y-195164757D02*
X195815170Y-195236185D01*
X195815170Y-195236185D02*
X195886599Y-195164757D01*
X195886599Y-195164757D02*
X195815170Y-195093328D01*
X195815170Y-195093328D02*
X195815170Y-195236185D01*
X197172314Y-196521900D02*
X197029456Y-196593328D01*
X197029456Y-196593328D02*
X196743742Y-196593328D01*
X196743742Y-196593328D02*
X196600885Y-196521900D01*
X196600885Y-196521900D02*
X196529456Y-196450471D01*
X196529456Y-196450471D02*
X196458028Y-196307614D01*
X196458028Y-196307614D02*
X196458028Y-195879042D01*
X196458028Y-195879042D02*
X196529456Y-195736185D01*
X196529456Y-195736185D02*
X196600885Y-195664757D01*
X196600885Y-195664757D02*
X196743742Y-195593328D01*
X196743742Y-195593328D02*
X197029456Y-195593328D01*
X197029456Y-195593328D02*
X197172314Y-195664757D01*
X198458028Y-196593328D02*
X198458028Y-195807614D01*
X198458028Y-195807614D02*
X198386599Y-195664757D01*
X198386599Y-195664757D02*
X198243742Y-195593328D01*
X198243742Y-195593328D02*
X197958028Y-195593328D01*
X197958028Y-195593328D02*
X197815170Y-195664757D01*
X198458028Y-196521900D02*
X198315170Y-196593328D01*
X198315170Y-196593328D02*
X197958028Y-196593328D01*
X197958028Y-196593328D02*
X197815170Y-196521900D01*
X197815170Y-196521900D02*
X197743742Y-196379042D01*
X197743742Y-196379042D02*
X197743742Y-196236185D01*
X197743742Y-196236185D02*
X197815170Y-196093328D01*
X197815170Y-196093328D02*
X197958028Y-196021900D01*
X197958028Y-196021900D02*
X198315170Y-196021900D01*
X198315170Y-196021900D02*
X198458028Y-195950471D01*
X199815171Y-196593328D02*
X199815171Y-195093328D01*
X199815171Y-196521900D02*
X199672313Y-196593328D01*
X199672313Y-196593328D02*
X199386599Y-196593328D01*
X199386599Y-196593328D02*
X199243742Y-196521900D01*
X199243742Y-196521900D02*
X199172313Y-196450471D01*
X199172313Y-196450471D02*
X199100885Y-196307614D01*
X199100885Y-196307614D02*
X199100885Y-195879042D01*
X199100885Y-195879042D02*
X199172313Y-195736185D01*
X199172313Y-195736185D02*
X199243742Y-195664757D01*
X199243742Y-195664757D02*
X199386599Y-195593328D01*
X199386599Y-195593328D02*
X199672313Y-195593328D01*
X199672313Y-195593328D02*
X199815171Y-195664757D01*
X201529456Y-195093328D02*
X202529456Y-195093328D01*
X202529456Y-195093328D02*
X201886599Y-196593328D01*
X203100884Y-196450471D02*
X203172313Y-196521900D01*
X203172313Y-196521900D02*
X203100884Y-196593328D01*
X203100884Y-196593328D02*
X203029456Y-196521900D01*
X203029456Y-196521900D02*
X203100884Y-196450471D01*
X203100884Y-196450471D02*
X203100884Y-196593328D01*
X204100885Y-195093328D02*
X204243742Y-195093328D01*
X204243742Y-195093328D02*
X204386599Y-195164757D01*
X204386599Y-195164757D02*
X204458028Y-195236185D01*
X204458028Y-195236185D02*
X204529456Y-195379042D01*
X204529456Y-195379042D02*
X204600885Y-195664757D01*
X204600885Y-195664757D02*
X204600885Y-196021900D01*
X204600885Y-196021900D02*
X204529456Y-196307614D01*
X204529456Y-196307614D02*
X204458028Y-196450471D01*
X204458028Y-196450471D02*
X204386599Y-196521900D01*
X204386599Y-196521900D02*
X204243742Y-196593328D01*
X204243742Y-196593328D02*
X204100885Y-196593328D01*
X204100885Y-196593328D02*
X203958028Y-196521900D01*
X203958028Y-196521900D02*
X203886599Y-196450471D01*
X203886599Y-196450471D02*
X203815170Y-196307614D01*
X203815170Y-196307614D02*
X203743742Y-196021900D01*
X203743742Y-196021900D02*
X203743742Y-195664757D01*
X203743742Y-195664757D02*
X203815170Y-195379042D01*
X203815170Y-195379042D02*
X203886599Y-195236185D01*
X203886599Y-195236185D02*
X203958028Y-195164757D01*
X203958028Y-195164757D02*
X204100885Y-195093328D01*
X205243741Y-196450471D02*
X205315170Y-196521900D01*
X205315170Y-196521900D02*
X205243741Y-196593328D01*
X205243741Y-196593328D02*
X205172313Y-196521900D01*
X205172313Y-196521900D02*
X205243741Y-196450471D01*
X205243741Y-196450471D02*
X205243741Y-196593328D01*
X206672313Y-195093328D02*
X205958027Y-195093328D01*
X205958027Y-195093328D02*
X205886599Y-195807614D01*
X205886599Y-195807614D02*
X205958027Y-195736185D01*
X205958027Y-195736185D02*
X206100885Y-195664757D01*
X206100885Y-195664757D02*
X206458027Y-195664757D01*
X206458027Y-195664757D02*
X206600885Y-195736185D01*
X206600885Y-195736185D02*
X206672313Y-195807614D01*
X206672313Y-195807614D02*
X206743742Y-195950471D01*
X206743742Y-195950471D02*
X206743742Y-196307614D01*
X206743742Y-196307614D02*
X206672313Y-196450471D01*
X206672313Y-196450471D02*
X206600885Y-196521900D01*
X206600885Y-196521900D02*
X206458027Y-196593328D01*
X206458027Y-196593328D02*
X206100885Y-196593328D01*
X206100885Y-196593328D02*
X205958027Y-196521900D01*
X205958027Y-196521900D02*
X205886599Y-196450471D01*
D10*
D11*
X177002200Y-191507200D02*
X285002200Y-191507200D01*
D10*
D12*
X264413853Y-193785528D02*
X263913853Y-193071242D01*
X263556710Y-193785528D02*
X263556710Y-192285528D01*
X263556710Y-192285528D02*
X264128139Y-192285528D01*
X264128139Y-192285528D02*
X264270996Y-192356957D01*
X264270996Y-192356957D02*
X264342425Y-192428385D01*
X264342425Y-192428385D02*
X264413853Y-192571242D01*
X264413853Y-192571242D02*
X264413853Y-192785528D01*
X264413853Y-192785528D02*
X264342425Y-192928385D01*
X264342425Y-192928385D02*
X264270996Y-192999814D01*
X264270996Y-192999814D02*
X264128139Y-193071242D01*
X264128139Y-193071242D02*
X263556710Y-193071242D01*
X265628139Y-193714100D02*
X265485282Y-193785528D01*
X265485282Y-193785528D02*
X265199568Y-193785528D01*
X265199568Y-193785528D02*
X265056710Y-193714100D01*
X265056710Y-193714100D02*
X264985282Y-193571242D01*
X264985282Y-193571242D02*
X264985282Y-192999814D01*
X264985282Y-192999814D02*
X265056710Y-192856957D01*
X265056710Y-192856957D02*
X265199568Y-192785528D01*
X265199568Y-192785528D02*
X265485282Y-192785528D01*
X265485282Y-192785528D02*
X265628139Y-192856957D01*
X265628139Y-192856957D02*
X265699568Y-192999814D01*
X265699568Y-192999814D02*
X265699568Y-193142671D01*
X265699568Y-193142671D02*
X264985282Y-193285528D01*
X266199567Y-192785528D02*
X266556710Y-193785528D01*
X266556710Y-193785528D02*
X266913853Y-192785528D01*
X267485281Y-193642671D02*
X267556710Y-193714100D01*
X267556710Y-193714100D02*
X267485281Y-193785528D01*
X267485281Y-193785528D02*
X267413853Y-193714100D01*
X267413853Y-193714100D02*
X267485281Y-193642671D01*
X267485281Y-193642671D02*
X267485281Y-193785528D01*
X267485281Y-192856957D02*
X267556710Y-192928385D01*
X267556710Y-192928385D02*
X267485281Y-192999814D01*
X267485281Y-192999814D02*
X267413853Y-192928385D01*
X267413853Y-192928385D02*
X267485281Y-192856957D01*
X267485281Y-192856957D02*
X267485281Y-192999814D01*
X270056710Y-192285528D02*
X269342424Y-192285528D01*
X269342424Y-192285528D02*
X269270996Y-192999814D01*
X269270996Y-192999814D02*
X269342424Y-192928385D01*
X269342424Y-192928385D02*
X269485282Y-192856957D01*
X269485282Y-192856957D02*
X269842424Y-192856957D01*
X269842424Y-192856957D02*
X269985282Y-192928385D01*
X269985282Y-192928385D02*
X270056710Y-192999814D01*
X270056710Y-192999814D02*
X270128139Y-193142671D01*
X270128139Y-193142671D02*
X270128139Y-193499814D01*
X270128139Y-193499814D02*
X270056710Y-193642671D01*
X270056710Y-193642671D02*
X269985282Y-193714100D01*
X269985282Y-193714100D02*
X269842424Y-193785528D01*
X269842424Y-193785528D02*
X269485282Y-193785528D01*
X269485282Y-193785528D02*
X269342424Y-193714100D01*
X269342424Y-193714100D02*
X269270996Y-193642671D01*
X270770995Y-193642671D02*
X270842424Y-193714100D01*
X270842424Y-193714100D02*
X270770995Y-193785528D01*
X270770995Y-193785528D02*
X270699567Y-193714100D01*
X270699567Y-193714100D02*
X270770995Y-193642671D01*
X270770995Y-193642671D02*
X270770995Y-193785528D01*
X271342424Y-192285528D02*
X272270996Y-192285528D01*
X272270996Y-192285528D02*
X271770996Y-192856957D01*
X271770996Y-192856957D02*
X271985281Y-192856957D01*
X271985281Y-192856957D02*
X272128139Y-192928385D01*
X272128139Y-192928385D02*
X272199567Y-192999814D01*
X272199567Y-192999814D02*
X272270996Y-193142671D01*
X272270996Y-193142671D02*
X272270996Y-193499814D01*
X272270996Y-193499814D02*
X272199567Y-193642671D01*
X272199567Y-193642671D02*
X272128139Y-193714100D01*
X272128139Y-193714100D02*
X271985281Y-193785528D01*
X271985281Y-193785528D02*
X271556710Y-193785528D01*
X271556710Y-193785528D02*
X271413853Y-193714100D01*
X271413853Y-193714100D02*
X271342424Y-193642671D01*
D10*
D11*
X178386598Y-193721900D02*
X178600884Y-193793328D01*
X178600884Y-193793328D02*
X178958026Y-193793328D01*
X178958026Y-193793328D02*
X179100884Y-193721900D01*
X179100884Y-193721900D02*
X179172312Y-193650471D01*
X179172312Y-193650471D02*
X179243741Y-193507614D01*
X179243741Y-193507614D02*
X179243741Y-193364757D01*
X179243741Y-193364757D02*
X179172312Y-193221900D01*
X179172312Y-193221900D02*
X179100884Y-193150471D01*
X179100884Y-193150471D02*
X178958026Y-193079042D01*
X178958026Y-193079042D02*
X178672312Y-193007614D01*
X178672312Y-193007614D02*
X178529455Y-192936185D01*
X178529455Y-192936185D02*
X178458026Y-192864757D01*
X178458026Y-192864757D02*
X178386598Y-192721900D01*
X178386598Y-192721900D02*
X178386598Y-192579042D01*
X178386598Y-192579042D02*
X178458026Y-192436185D01*
X178458026Y-192436185D02*
X178529455Y-192364757D01*
X178529455Y-192364757D02*
X178672312Y-192293328D01*
X178672312Y-192293328D02*
X179029455Y-192293328D01*
X179029455Y-192293328D02*
X179243741Y-192364757D01*
X179886597Y-193793328D02*
X179886597Y-192793328D01*
X179886597Y-192293328D02*
X179815169Y-192364757D01*
X179815169Y-192364757D02*
X179886597Y-192436185D01*
X179886597Y-192436185D02*
X179958026Y-192364757D01*
X179958026Y-192364757D02*
X179886597Y-192293328D01*
X179886597Y-192293328D02*
X179886597Y-192436185D01*
X180458026Y-192793328D02*
X181243741Y-192793328D01*
X181243741Y-192793328D02*
X180458026Y-193793328D01*
X180458026Y-193793328D02*
X181243741Y-193793328D01*
X182386598Y-193721900D02*
X182243741Y-193793328D01*
X182243741Y-193793328D02*
X181958027Y-193793328D01*
X181958027Y-193793328D02*
X181815169Y-193721900D01*
X181815169Y-193721900D02*
X181743741Y-193579042D01*
X181743741Y-193579042D02*
X181743741Y-193007614D01*
X181743741Y-193007614D02*
X181815169Y-192864757D01*
X181815169Y-192864757D02*
X181958027Y-192793328D01*
X181958027Y-192793328D02*
X182243741Y-192793328D01*
X182243741Y-192793328D02*
X182386598Y-192864757D01*
X182386598Y-192864757D02*
X182458027Y-193007614D01*
X182458027Y-193007614D02*
X182458027Y-193150471D01*
X182458027Y-193150471D02*
X181743741Y-193293328D01*
X183100883Y-193650471D02*
X183172312Y-193721900D01*
X183172312Y-193721900D02*
X183100883Y-193793328D01*
X183100883Y-193793328D02*
X183029455Y-193721900D01*
X183029455Y-193721900D02*
X183100883Y-193650471D01*
X183100883Y-193650471D02*
X183100883Y-193793328D01*
X183100883Y-192864757D02*
X183172312Y-192936185D01*
X183172312Y-192936185D02*
X183100883Y-193007614D01*
X183100883Y-193007614D02*
X183029455Y-192936185D01*
X183029455Y-192936185D02*
X183100883Y-192864757D01*
X183100883Y-192864757D02*
X183100883Y-193007614D01*
X184886598Y-193364757D02*
X185600884Y-193364757D01*
X184743741Y-193793328D02*
X185243741Y-192293328D01*
X185243741Y-192293328D02*
X185743741Y-193793328D01*
X186886598Y-192793328D02*
X186886598Y-193793328D01*
X186529455Y-192221900D02*
X186172312Y-193293328D01*
X186172312Y-193293328D02*
X187100883Y-193293328D01*
D10*
D11*
X263458026Y-196593328D02*
X263458026Y-195093328D01*
X264815170Y-196593328D02*
X264815170Y-195093328D01*
X264815170Y-196521900D02*
X264672312Y-196593328D01*
X264672312Y-196593328D02*
X264386598Y-196593328D01*
X264386598Y-196593328D02*
X264243741Y-196521900D01*
X264243741Y-196521900D02*
X264172312Y-196450471D01*
X264172312Y-196450471D02*
X264100884Y-196307614D01*
X264100884Y-196307614D02*
X264100884Y-195879042D01*
X264100884Y-195879042D02*
X264172312Y-195736185D01*
X264172312Y-195736185D02*
X264243741Y-195664757D01*
X264243741Y-195664757D02*
X264386598Y-195593328D01*
X264386598Y-195593328D02*
X264672312Y-195593328D01*
X264672312Y-195593328D02*
X264815170Y-195664757D01*
X265529455Y-196450471D02*
X265600884Y-196521900D01*
X265600884Y-196521900D02*
X265529455Y-196593328D01*
X265529455Y-196593328D02*
X265458027Y-196521900D01*
X265458027Y-196521900D02*
X265529455Y-196450471D01*
X265529455Y-196450471D02*
X265529455Y-196593328D01*
X265529455Y-195664757D02*
X265600884Y-195736185D01*
X265600884Y-195736185D02*
X265529455Y-195807614D01*
X265529455Y-195807614D02*
X265458027Y-195736185D01*
X265458027Y-195736185D02*
X265529455Y-195664757D01*
X265529455Y-195664757D02*
X265529455Y-195807614D01*
X268172313Y-196593328D02*
X267315170Y-196593328D01*
X267743741Y-196593328D02*
X267743741Y-195093328D01*
X267743741Y-195093328D02*
X267600884Y-195307614D01*
X267600884Y-195307614D02*
X267458027Y-195450471D01*
X267458027Y-195450471D02*
X267315170Y-195521900D01*
X269886598Y-195021900D02*
X268600884Y-196950471D01*
X271172313Y-196593328D02*
X270315170Y-196593328D01*
X270743741Y-196593328D02*
X270743741Y-195093328D01*
X270743741Y-195093328D02*
X270600884Y-195307614D01*
X270600884Y-195307614D02*
X270458027Y-195450471D01*
X270458027Y-195450471D02*
X270315170Y-195521900D01*
D10*
D11*
X177002200Y-187507200D02*
X285002200Y-187507200D01*
D10*
D13*
X178693928Y-188211638D02*
X179836785Y-188211638D01*
X179015357Y-190211638D02*
X179265357Y-188211638D01*
X180253452Y-190211638D02*
X180420119Y-188878304D01*
X180503452Y-188211638D02*
X180396309Y-188306876D01*
X180396309Y-188306876D02*
X180479643Y-188402114D01*
X180479643Y-188402114D02*
X180586786Y-188306876D01*
X180586786Y-188306876D02*
X180503452Y-188211638D01*
X180503452Y-188211638D02*
X180479643Y-188402114D01*
X181086786Y-188878304D02*
X181848690Y-188878304D01*
X181455833Y-188211638D02*
X181241548Y-189925923D01*
X181241548Y-189925923D02*
X181312976Y-190116400D01*
X181312976Y-190116400D02*
X181491548Y-190211638D01*
X181491548Y-190211638D02*
X181682024Y-190211638D01*
X182634405Y-190211638D02*
X182455833Y-190116400D01*
X182455833Y-190116400D02*
X182384405Y-189925923D01*
X182384405Y-189925923D02*
X182598690Y-188211638D01*
X184170119Y-190116400D02*
X183967738Y-190211638D01*
X183967738Y-190211638D02*
X183586785Y-190211638D01*
X183586785Y-190211638D02*
X183408214Y-190116400D01*
X183408214Y-190116400D02*
X183336785Y-189925923D01*
X183336785Y-189925923D02*
X183432024Y-189164019D01*
X183432024Y-189164019D02*
X183551071Y-188973542D01*
X183551071Y-188973542D02*
X183753452Y-188878304D01*
X183753452Y-188878304D02*
X184134404Y-188878304D01*
X184134404Y-188878304D02*
X184312976Y-188973542D01*
X184312976Y-188973542D02*
X184384404Y-189164019D01*
X184384404Y-189164019D02*
X184360595Y-189354495D01*
X184360595Y-189354495D02*
X183384404Y-189544971D01*
X185134405Y-190021161D02*
X185217738Y-190116400D01*
X185217738Y-190116400D02*
X185110595Y-190211638D01*
X185110595Y-190211638D02*
X185027262Y-190116400D01*
X185027262Y-190116400D02*
X185134405Y-190021161D01*
X185134405Y-190021161D02*
X185110595Y-190211638D01*
X185265357Y-188973542D02*
X185348690Y-189068780D01*
X185348690Y-189068780D02*
X185241548Y-189164019D01*
X185241548Y-189164019D02*
X185158214Y-189068780D01*
X185158214Y-189068780D02*
X185265357Y-188973542D01*
X185265357Y-188973542D02*
X185241548Y-189164019D01*
D10*
D11*
X178958026Y-185607614D02*
X178458026Y-185607614D01*
X178458026Y-186393328D02*
X178458026Y-184893328D01*
X178458026Y-184893328D02*
X179172312Y-184893328D01*
X179743740Y-186393328D02*
X179743740Y-185393328D01*
X179743740Y-184893328D02*
X179672312Y-184964757D01*
X179672312Y-184964757D02*
X179743740Y-185036185D01*
X179743740Y-185036185D02*
X179815169Y-184964757D01*
X179815169Y-184964757D02*
X179743740Y-184893328D01*
X179743740Y-184893328D02*
X179743740Y-185036185D01*
X180672312Y-186393328D02*
X180529455Y-186321900D01*
X180529455Y-186321900D02*
X180458026Y-186179042D01*
X180458026Y-186179042D02*
X180458026Y-184893328D01*
X181815169Y-186321900D02*
X181672312Y-186393328D01*
X181672312Y-186393328D02*
X181386598Y-186393328D01*
X181386598Y-186393328D02*
X181243740Y-186321900D01*
X181243740Y-186321900D02*
X181172312Y-186179042D01*
X181172312Y-186179042D02*
X181172312Y-185607614D01*
X181172312Y-185607614D02*
X181243740Y-185464757D01*
X181243740Y-185464757D02*
X181386598Y-185393328D01*
X181386598Y-185393328D02*
X181672312Y-185393328D01*
X181672312Y-185393328D02*
X181815169Y-185464757D01*
X181815169Y-185464757D02*
X181886598Y-185607614D01*
X181886598Y-185607614D02*
X181886598Y-185750471D01*
X181886598Y-185750471D02*
X181172312Y-185893328D01*
X182529454Y-186250471D02*
X182600883Y-186321900D01*
X182600883Y-186321900D02*
X182529454Y-186393328D01*
X182529454Y-186393328D02*
X182458026Y-186321900D01*
X182458026Y-186321900D02*
X182529454Y-186250471D01*
X182529454Y-186250471D02*
X182529454Y-186393328D01*
X182529454Y-185464757D02*
X182600883Y-185536185D01*
X182600883Y-185536185D02*
X182529454Y-185607614D01*
X182529454Y-185607614D02*
X182458026Y-185536185D01*
X182458026Y-185536185D02*
X182529454Y-185464757D01*
X182529454Y-185464757D02*
X182529454Y-185607614D01*
X184958026Y-186321900D02*
X184815169Y-186393328D01*
X184815169Y-186393328D02*
X184529455Y-186393328D01*
X184529455Y-186393328D02*
X184386597Y-186321900D01*
X184386597Y-186321900D02*
X184315169Y-186179042D01*
X184315169Y-186179042D02*
X184315169Y-185607614D01*
X184315169Y-185607614D02*
X184386597Y-185464757D01*
X184386597Y-185464757D02*
X184529455Y-185393328D01*
X184529455Y-185393328D02*
X184815169Y-185393328D01*
X184815169Y-185393328D02*
X184958026Y-185464757D01*
X184958026Y-185464757D02*
X185029455Y-185607614D01*
X185029455Y-185607614D02*
X185029455Y-185750471D01*
X185029455Y-185750471D02*
X184315169Y-185893328D01*
X185600883Y-186321900D02*
X185743740Y-186393328D01*
X185743740Y-186393328D02*
X186029454Y-186393328D01*
X186029454Y-186393328D02*
X186172311Y-186321900D01*
X186172311Y-186321900D02*
X186243740Y-186179042D01*
X186243740Y-186179042D02*
X186243740Y-186107614D01*
X186243740Y-186107614D02*
X186172311Y-185964757D01*
X186172311Y-185964757D02*
X186029454Y-185893328D01*
X186029454Y-185893328D02*
X185815169Y-185893328D01*
X185815169Y-185893328D02*
X185672311Y-185821900D01*
X185672311Y-185821900D02*
X185600883Y-185679042D01*
X185600883Y-185679042D02*
X185600883Y-185607614D01*
X185600883Y-185607614D02*
X185672311Y-185464757D01*
X185672311Y-185464757D02*
X185815169Y-185393328D01*
X185815169Y-185393328D02*
X186029454Y-185393328D01*
X186029454Y-185393328D02*
X186172311Y-185464757D01*
X186886597Y-185393328D02*
X186886597Y-186893328D01*
X186886597Y-185464757D02*
X187029455Y-185393328D01*
X187029455Y-185393328D02*
X187315169Y-185393328D01*
X187315169Y-185393328D02*
X187458026Y-185464757D01*
X187458026Y-185464757D02*
X187529455Y-185536185D01*
X187529455Y-185536185D02*
X187600883Y-185679042D01*
X187600883Y-185679042D02*
X187600883Y-186107614D01*
X187600883Y-186107614D02*
X187529455Y-186250471D01*
X187529455Y-186250471D02*
X187458026Y-186321900D01*
X187458026Y-186321900D02*
X187315169Y-186393328D01*
X187315169Y-186393328D02*
X187029455Y-186393328D01*
X187029455Y-186393328D02*
X186886597Y-186321900D01*
X188100883Y-184893328D02*
X189029455Y-184893328D01*
X189029455Y-184893328D02*
X188529455Y-185464757D01*
X188529455Y-185464757D02*
X188743740Y-185464757D01*
X188743740Y-185464757D02*
X188886598Y-185536185D01*
X188886598Y-185536185D02*
X188958026Y-185607614D01*
X188958026Y-185607614D02*
X189029455Y-185750471D01*
X189029455Y-185750471D02*
X189029455Y-186107614D01*
X189029455Y-186107614D02*
X188958026Y-186250471D01*
X188958026Y-186250471D02*
X188886598Y-186321900D01*
X188886598Y-186321900D02*
X188743740Y-186393328D01*
X188743740Y-186393328D02*
X188315169Y-186393328D01*
X188315169Y-186393328D02*
X188172312Y-186321900D01*
X188172312Y-186321900D02*
X188100883Y-186250471D01*
X189600883Y-185036185D02*
X189672311Y-184964757D01*
X189672311Y-184964757D02*
X189815169Y-184893328D01*
X189815169Y-184893328D02*
X190172311Y-184893328D01*
X190172311Y-184893328D02*
X190315169Y-184964757D01*
X190315169Y-184964757D02*
X190386597Y-185036185D01*
X190386597Y-185036185D02*
X190458026Y-185179042D01*
X190458026Y-185179042D02*
X190458026Y-185321900D01*
X190458026Y-185321900D02*
X190386597Y-185536185D01*
X190386597Y-185536185D02*
X189529454Y-186393328D01*
X189529454Y-186393328D02*
X190458026Y-186393328D01*
X190743740Y-186536185D02*
X191886597Y-186536185D01*
X192172311Y-186321900D02*
X192315168Y-186393328D01*
X192315168Y-186393328D02*
X192600882Y-186393328D01*
X192600882Y-186393328D02*
X192743739Y-186321900D01*
X192743739Y-186321900D02*
X192815168Y-186179042D01*
X192815168Y-186179042D02*
X192815168Y-186107614D01*
X192815168Y-186107614D02*
X192743739Y-185964757D01*
X192743739Y-185964757D02*
X192600882Y-185893328D01*
X192600882Y-185893328D02*
X192386597Y-185893328D01*
X192386597Y-185893328D02*
X192243739Y-185821900D01*
X192243739Y-185821900D02*
X192172311Y-185679042D01*
X192172311Y-185679042D02*
X192172311Y-185607614D01*
X192172311Y-185607614D02*
X192243739Y-185464757D01*
X192243739Y-185464757D02*
X192386597Y-185393328D01*
X192386597Y-185393328D02*
X192600882Y-185393328D01*
X192600882Y-185393328D02*
X192743739Y-185464757D01*
X193672311Y-186393328D02*
X193529454Y-186321900D01*
X193529454Y-186321900D02*
X193458025Y-186250471D01*
X193458025Y-186250471D02*
X193386597Y-186107614D01*
X193386597Y-186107614D02*
X193386597Y-185679042D01*
X193386597Y-185679042D02*
X193458025Y-185536185D01*
X193458025Y-185536185D02*
X193529454Y-185464757D01*
X193529454Y-185464757D02*
X193672311Y-185393328D01*
X193672311Y-185393328D02*
X193886597Y-185393328D01*
X193886597Y-185393328D02*
X194029454Y-185464757D01*
X194029454Y-185464757D02*
X194100883Y-185536185D01*
X194100883Y-185536185D02*
X194172311Y-185679042D01*
X194172311Y-185679042D02*
X194172311Y-186107614D01*
X194172311Y-186107614D02*
X194100883Y-186250471D01*
X194100883Y-186250471D02*
X194029454Y-186321900D01*
X194029454Y-186321900D02*
X193886597Y-186393328D01*
X193886597Y-186393328D02*
X193672311Y-186393328D01*
X194815168Y-186393328D02*
X194815168Y-185393328D01*
X194815168Y-184893328D02*
X194743740Y-184964757D01*
X194743740Y-184964757D02*
X194815168Y-185036185D01*
X194815168Y-185036185D02*
X194886597Y-184964757D01*
X194886597Y-184964757D02*
X194815168Y-184893328D01*
X194815168Y-184893328D02*
X194815168Y-185036185D01*
X195743740Y-186393328D02*
X195600883Y-186321900D01*
X195600883Y-186321900D02*
X195529454Y-186179042D01*
X195529454Y-186179042D02*
X195529454Y-184893328D01*
X195958026Y-186536185D02*
X197100883Y-186536185D01*
X197458025Y-186393328D02*
X197458025Y-185393328D01*
X197458025Y-185536185D02*
X197529454Y-185464757D01*
X197529454Y-185464757D02*
X197672311Y-185393328D01*
X197672311Y-185393328D02*
X197886597Y-185393328D01*
X197886597Y-185393328D02*
X198029454Y-185464757D01*
X198029454Y-185464757D02*
X198100883Y-185607614D01*
X198100883Y-185607614D02*
X198100883Y-186393328D01*
X198100883Y-185607614D02*
X198172311Y-185464757D01*
X198172311Y-185464757D02*
X198315168Y-185393328D01*
X198315168Y-185393328D02*
X198529454Y-185393328D01*
X198529454Y-185393328D02*
X198672311Y-185464757D01*
X198672311Y-185464757D02*
X198743740Y-185607614D01*
X198743740Y-185607614D02*
X198743740Y-186393328D01*
X199672311Y-186393328D02*
X199529454Y-186321900D01*
X199529454Y-186321900D02*
X199458025Y-186250471D01*
X199458025Y-186250471D02*
X199386597Y-186107614D01*
X199386597Y-186107614D02*
X199386597Y-185679042D01*
X199386597Y-185679042D02*
X199458025Y-185536185D01*
X199458025Y-185536185D02*
X199529454Y-185464757D01*
X199529454Y-185464757D02*
X199672311Y-185393328D01*
X199672311Y-185393328D02*
X199886597Y-185393328D01*
X199886597Y-185393328D02*
X200029454Y-185464757D01*
X200029454Y-185464757D02*
X200100883Y-185536185D01*
X200100883Y-185536185D02*
X200172311Y-185679042D01*
X200172311Y-185679042D02*
X200172311Y-186107614D01*
X200172311Y-186107614D02*
X200100883Y-186250471D01*
X200100883Y-186250471D02*
X200029454Y-186321900D01*
X200029454Y-186321900D02*
X199886597Y-186393328D01*
X199886597Y-186393328D02*
X199672311Y-186393328D01*
X200815168Y-186393328D02*
X200815168Y-185393328D01*
X200815168Y-184893328D02*
X200743740Y-184964757D01*
X200743740Y-184964757D02*
X200815168Y-185036185D01*
X200815168Y-185036185D02*
X200886597Y-184964757D01*
X200886597Y-184964757D02*
X200815168Y-184893328D01*
X200815168Y-184893328D02*
X200815168Y-185036185D01*
X201458026Y-186321900D02*
X201600883Y-186393328D01*
X201600883Y-186393328D02*
X201886597Y-186393328D01*
X201886597Y-186393328D02*
X202029454Y-186321900D01*
X202029454Y-186321900D02*
X202100883Y-186179042D01*
X202100883Y-186179042D02*
X202100883Y-186107614D01*
X202100883Y-186107614D02*
X202029454Y-185964757D01*
X202029454Y-185964757D02*
X201886597Y-185893328D01*
X201886597Y-185893328D02*
X201672312Y-185893328D01*
X201672312Y-185893328D02*
X201529454Y-185821900D01*
X201529454Y-185821900D02*
X201458026Y-185679042D01*
X201458026Y-185679042D02*
X201458026Y-185607614D01*
X201458026Y-185607614D02*
X201529454Y-185464757D01*
X201529454Y-185464757D02*
X201672312Y-185393328D01*
X201672312Y-185393328D02*
X201886597Y-185393328D01*
X201886597Y-185393328D02*
X202029454Y-185464757D01*
X202529455Y-185393328D02*
X203100883Y-185393328D01*
X202743740Y-184893328D02*
X202743740Y-186179042D01*
X202743740Y-186179042D02*
X202815169Y-186321900D01*
X202815169Y-186321900D02*
X202958026Y-186393328D01*
X202958026Y-186393328D02*
X203100883Y-186393328D01*
X204243741Y-185393328D02*
X204243741Y-186393328D01*
X203600883Y-185393328D02*
X203600883Y-186179042D01*
X203600883Y-186179042D02*
X203672312Y-186321900D01*
X203672312Y-186321900D02*
X203815169Y-186393328D01*
X203815169Y-186393328D02*
X204029455Y-186393328D01*
X204029455Y-186393328D02*
X204172312Y-186321900D01*
X204172312Y-186321900D02*
X204243741Y-186250471D01*
X204958026Y-186393328D02*
X204958026Y-185393328D01*
X204958026Y-185679042D02*
X205029455Y-185536185D01*
X205029455Y-185536185D02*
X205100884Y-185464757D01*
X205100884Y-185464757D02*
X205243741Y-185393328D01*
X205243741Y-185393328D02*
X205386598Y-185393328D01*
X206458026Y-186321900D02*
X206315169Y-186393328D01*
X206315169Y-186393328D02*
X206029455Y-186393328D01*
X206029455Y-186393328D02*
X205886597Y-186321900D01*
X205886597Y-186321900D02*
X205815169Y-186179042D01*
X205815169Y-186179042D02*
X205815169Y-185607614D01*
X205815169Y-185607614D02*
X205886597Y-185464757D01*
X205886597Y-185464757D02*
X206029455Y-185393328D01*
X206029455Y-185393328D02*
X206315169Y-185393328D01*
X206315169Y-185393328D02*
X206458026Y-185464757D01*
X206458026Y-185464757D02*
X206529455Y-185607614D01*
X206529455Y-185607614D02*
X206529455Y-185750471D01*
X206529455Y-185750471D02*
X205815169Y-185893328D01*
X206815169Y-186536185D02*
X207958026Y-186536185D01*
X208243740Y-186321900D02*
X208386597Y-186393328D01*
X208386597Y-186393328D02*
X208672311Y-186393328D01*
X208672311Y-186393328D02*
X208815168Y-186321900D01*
X208815168Y-186321900D02*
X208886597Y-186179042D01*
X208886597Y-186179042D02*
X208886597Y-186107614D01*
X208886597Y-186107614D02*
X208815168Y-185964757D01*
X208815168Y-185964757D02*
X208672311Y-185893328D01*
X208672311Y-185893328D02*
X208458026Y-185893328D01*
X208458026Y-185893328D02*
X208315168Y-185821900D01*
X208315168Y-185821900D02*
X208243740Y-185679042D01*
X208243740Y-185679042D02*
X208243740Y-185607614D01*
X208243740Y-185607614D02*
X208315168Y-185464757D01*
X208315168Y-185464757D02*
X208458026Y-185393328D01*
X208458026Y-185393328D02*
X208672311Y-185393328D01*
X208672311Y-185393328D02*
X208815168Y-185464757D01*
X210100883Y-186321900D02*
X209958026Y-186393328D01*
X209958026Y-186393328D02*
X209672312Y-186393328D01*
X209672312Y-186393328D02*
X209529454Y-186321900D01*
X209529454Y-186321900D02*
X209458026Y-186179042D01*
X209458026Y-186179042D02*
X209458026Y-185607614D01*
X209458026Y-185607614D02*
X209529454Y-185464757D01*
X209529454Y-185464757D02*
X209672312Y-185393328D01*
X209672312Y-185393328D02*
X209958026Y-185393328D01*
X209958026Y-185393328D02*
X210100883Y-185464757D01*
X210100883Y-185464757D02*
X210172312Y-185607614D01*
X210172312Y-185607614D02*
X210172312Y-185750471D01*
X210172312Y-185750471D02*
X209458026Y-185893328D01*
X210815168Y-185393328D02*
X210815168Y-186393328D01*
X210815168Y-185536185D02*
X210886597Y-185464757D01*
X210886597Y-185464757D02*
X211029454Y-185393328D01*
X211029454Y-185393328D02*
X211243740Y-185393328D01*
X211243740Y-185393328D02*
X211386597Y-185464757D01*
X211386597Y-185464757D02*
X211458026Y-185607614D01*
X211458026Y-185607614D02*
X211458026Y-186393328D01*
X212100883Y-186321900D02*
X212243740Y-186393328D01*
X212243740Y-186393328D02*
X212529454Y-186393328D01*
X212529454Y-186393328D02*
X212672311Y-186321900D01*
X212672311Y-186321900D02*
X212743740Y-186179042D01*
X212743740Y-186179042D02*
X212743740Y-186107614D01*
X212743740Y-186107614D02*
X212672311Y-185964757D01*
X212672311Y-185964757D02*
X212529454Y-185893328D01*
X212529454Y-185893328D02*
X212315169Y-185893328D01*
X212315169Y-185893328D02*
X212172311Y-185821900D01*
X212172311Y-185821900D02*
X212100883Y-185679042D01*
X212100883Y-185679042D02*
X212100883Y-185607614D01*
X212100883Y-185607614D02*
X212172311Y-185464757D01*
X212172311Y-185464757D02*
X212315169Y-185393328D01*
X212315169Y-185393328D02*
X212529454Y-185393328D01*
X212529454Y-185393328D02*
X212672311Y-185464757D01*
X213600883Y-186393328D02*
X213458026Y-186321900D01*
X213458026Y-186321900D02*
X213386597Y-186250471D01*
X213386597Y-186250471D02*
X213315169Y-186107614D01*
X213315169Y-186107614D02*
X213315169Y-185679042D01*
X213315169Y-185679042D02*
X213386597Y-185536185D01*
X213386597Y-185536185D02*
X213458026Y-185464757D01*
X213458026Y-185464757D02*
X213600883Y-185393328D01*
X213600883Y-185393328D02*
X213815169Y-185393328D01*
X213815169Y-185393328D02*
X213958026Y-185464757D01*
X213958026Y-185464757D02*
X214029455Y-185536185D01*
X214029455Y-185536185D02*
X214100883Y-185679042D01*
X214100883Y-185679042D02*
X214100883Y-186107614D01*
X214100883Y-186107614D02*
X214029455Y-186250471D01*
X214029455Y-186250471D02*
X213958026Y-186321900D01*
X213958026Y-186321900D02*
X213815169Y-186393328D01*
X213815169Y-186393328D02*
X213600883Y-186393328D01*
X214743740Y-186393328D02*
X214743740Y-185393328D01*
X214743740Y-185679042D02*
X214815169Y-185536185D01*
X214815169Y-185536185D02*
X214886598Y-185464757D01*
X214886598Y-185464757D02*
X215029455Y-185393328D01*
X215029455Y-185393328D02*
X215172312Y-185393328D01*
X215672311Y-186250471D02*
X215743740Y-186321900D01*
X215743740Y-186321900D02*
X215672311Y-186393328D01*
X215672311Y-186393328D02*
X215600883Y-186321900D01*
X215600883Y-186321900D02*
X215672311Y-186250471D01*
X215672311Y-186250471D02*
X215672311Y-186393328D01*
X216386597Y-186393328D02*
X216386597Y-184893328D01*
X216529455Y-185821900D02*
X216958026Y-186393328D01*
X216958026Y-185393328D02*
X216386597Y-185964757D01*
X217600883Y-186393328D02*
X217600883Y-185393328D01*
X217600883Y-184893328D02*
X217529455Y-184964757D01*
X217529455Y-184964757D02*
X217600883Y-185036185D01*
X217600883Y-185036185D02*
X217672312Y-184964757D01*
X217672312Y-184964757D02*
X217600883Y-184893328D01*
X217600883Y-184893328D02*
X217600883Y-185036185D01*
X218958027Y-186321900D02*
X218815169Y-186393328D01*
X218815169Y-186393328D02*
X218529455Y-186393328D01*
X218529455Y-186393328D02*
X218386598Y-186321900D01*
X218386598Y-186321900D02*
X218315169Y-186250471D01*
X218315169Y-186250471D02*
X218243741Y-186107614D01*
X218243741Y-186107614D02*
X218243741Y-185679042D01*
X218243741Y-185679042D02*
X218315169Y-185536185D01*
X218315169Y-185536185D02*
X218386598Y-185464757D01*
X218386598Y-185464757D02*
X218529455Y-185393328D01*
X218529455Y-185393328D02*
X218815169Y-185393328D01*
X218815169Y-185393328D02*
X218958027Y-185464757D01*
X220243741Y-186393328D02*
X220243741Y-185607614D01*
X220243741Y-185607614D02*
X220172312Y-185464757D01*
X220172312Y-185464757D02*
X220029455Y-185393328D01*
X220029455Y-185393328D02*
X219743741Y-185393328D01*
X219743741Y-185393328D02*
X219600883Y-185464757D01*
X220243741Y-186321900D02*
X220100883Y-186393328D01*
X220100883Y-186393328D02*
X219743741Y-186393328D01*
X219743741Y-186393328D02*
X219600883Y-186321900D01*
X219600883Y-186321900D02*
X219529455Y-186179042D01*
X219529455Y-186179042D02*
X219529455Y-186036185D01*
X219529455Y-186036185D02*
X219600883Y-185893328D01*
X219600883Y-185893328D02*
X219743741Y-185821900D01*
X219743741Y-185821900D02*
X220100883Y-185821900D01*
X220100883Y-185821900D02*
X220243741Y-185750471D01*
X221600884Y-186393328D02*
X221600884Y-184893328D01*
X221600884Y-186321900D02*
X221458026Y-186393328D01*
X221458026Y-186393328D02*
X221172312Y-186393328D01*
X221172312Y-186393328D02*
X221029455Y-186321900D01*
X221029455Y-186321900D02*
X220958026Y-186250471D01*
X220958026Y-186250471D02*
X220886598Y-186107614D01*
X220886598Y-186107614D02*
X220886598Y-185679042D01*
X220886598Y-185679042D02*
X220958026Y-185536185D01*
X220958026Y-185536185D02*
X221029455Y-185464757D01*
X221029455Y-185464757D02*
X221172312Y-185393328D01*
X221172312Y-185393328D02*
X221458026Y-185393328D01*
X221458026Y-185393328D02*
X221600884Y-185464757D01*
X221958027Y-186536185D02*
X223100884Y-186536185D01*
X223458026Y-185393328D02*
X223458026Y-186893328D01*
X223458026Y-185464757D02*
X223600884Y-185393328D01*
X223600884Y-185393328D02*
X223886598Y-185393328D01*
X223886598Y-185393328D02*
X224029455Y-185464757D01*
X224029455Y-185464757D02*
X224100884Y-185536185D01*
X224100884Y-185536185D02*
X224172312Y-185679042D01*
X224172312Y-185679042D02*
X224172312Y-186107614D01*
X224172312Y-186107614D02*
X224100884Y-186250471D01*
X224100884Y-186250471D02*
X224029455Y-186321900D01*
X224029455Y-186321900D02*
X223886598Y-186393328D01*
X223886598Y-186393328D02*
X223600884Y-186393328D01*
X223600884Y-186393328D02*
X223458026Y-186321900D01*
X225458027Y-186321900D02*
X225315169Y-186393328D01*
X225315169Y-186393328D02*
X225029455Y-186393328D01*
X225029455Y-186393328D02*
X224886598Y-186321900D01*
X224886598Y-186321900D02*
X224815169Y-186250471D01*
X224815169Y-186250471D02*
X224743741Y-186107614D01*
X224743741Y-186107614D02*
X224743741Y-185679042D01*
X224743741Y-185679042D02*
X224815169Y-185536185D01*
X224815169Y-185536185D02*
X224886598Y-185464757D01*
X224886598Y-185464757D02*
X225029455Y-185393328D01*
X225029455Y-185393328D02*
X225315169Y-185393328D01*
X225315169Y-185393328D02*
X225458027Y-185464757D01*
X226100883Y-186393328D02*
X226100883Y-184893328D01*
X226100883Y-185464757D02*
X226243741Y-185393328D01*
X226243741Y-185393328D02*
X226529455Y-185393328D01*
X226529455Y-185393328D02*
X226672312Y-185464757D01*
X226672312Y-185464757D02*
X226743741Y-185536185D01*
X226743741Y-185536185D02*
X226815169Y-185679042D01*
X226815169Y-185679042D02*
X226815169Y-186107614D01*
X226815169Y-186107614D02*
X226743741Y-186250471D01*
X226743741Y-186250471D02*
X226672312Y-186321900D01*
X226672312Y-186321900D02*
X226529455Y-186393328D01*
X226529455Y-186393328D02*
X226243741Y-186393328D01*
X226243741Y-186393328D02*
X226100883Y-186321900D01*
D10*
D11*
X177002200Y-181507200D02*
X285002200Y-181507200D01*
D10*
D11*
X178386598Y-183621900D02*
X178600884Y-183693328D01*
X178600884Y-183693328D02*
X178958026Y-183693328D01*
X178958026Y-183693328D02*
X179100884Y-183621900D01*
X179100884Y-183621900D02*
X179172312Y-183550471D01*
X179172312Y-183550471D02*
X179243741Y-183407614D01*
X179243741Y-183407614D02*
X179243741Y-183264757D01*
X179243741Y-183264757D02*
X179172312Y-183121900D01*
X179172312Y-183121900D02*
X179100884Y-183050471D01*
X179100884Y-183050471D02*
X178958026Y-182979042D01*
X178958026Y-182979042D02*
X178672312Y-182907614D01*
X178672312Y-182907614D02*
X178529455Y-182836185D01*
X178529455Y-182836185D02*
X178458026Y-182764757D01*
X178458026Y-182764757D02*
X178386598Y-182621900D01*
X178386598Y-182621900D02*
X178386598Y-182479042D01*
X178386598Y-182479042D02*
X178458026Y-182336185D01*
X178458026Y-182336185D02*
X178529455Y-182264757D01*
X178529455Y-182264757D02*
X178672312Y-182193328D01*
X178672312Y-182193328D02*
X179029455Y-182193328D01*
X179029455Y-182193328D02*
X179243741Y-182264757D01*
X179886597Y-183693328D02*
X179886597Y-182193328D01*
X180529455Y-183693328D02*
X180529455Y-182907614D01*
X180529455Y-182907614D02*
X180458026Y-182764757D01*
X180458026Y-182764757D02*
X180315169Y-182693328D01*
X180315169Y-182693328D02*
X180100883Y-182693328D01*
X180100883Y-182693328D02*
X179958026Y-182764757D01*
X179958026Y-182764757D02*
X179886597Y-182836185D01*
X181815169Y-183621900D02*
X181672312Y-183693328D01*
X181672312Y-183693328D02*
X181386598Y-183693328D01*
X181386598Y-183693328D02*
X181243740Y-183621900D01*
X181243740Y-183621900D02*
X181172312Y-183479042D01*
X181172312Y-183479042D02*
X181172312Y-182907614D01*
X181172312Y-182907614D02*
X181243740Y-182764757D01*
X181243740Y-182764757D02*
X181386598Y-182693328D01*
X181386598Y-182693328D02*
X181672312Y-182693328D01*
X181672312Y-182693328D02*
X181815169Y-182764757D01*
X181815169Y-182764757D02*
X181886598Y-182907614D01*
X181886598Y-182907614D02*
X181886598Y-183050471D01*
X181886598Y-183050471D02*
X181172312Y-183193328D01*
X183100883Y-183621900D02*
X182958026Y-183693328D01*
X182958026Y-183693328D02*
X182672312Y-183693328D01*
X182672312Y-183693328D02*
X182529454Y-183621900D01*
X182529454Y-183621900D02*
X182458026Y-183479042D01*
X182458026Y-183479042D02*
X182458026Y-182907614D01*
X182458026Y-182907614D02*
X182529454Y-182764757D01*
X182529454Y-182764757D02*
X182672312Y-182693328D01*
X182672312Y-182693328D02*
X182958026Y-182693328D01*
X182958026Y-182693328D02*
X183100883Y-182764757D01*
X183100883Y-182764757D02*
X183172312Y-182907614D01*
X183172312Y-182907614D02*
X183172312Y-183050471D01*
X183172312Y-183050471D02*
X182458026Y-183193328D01*
X183600883Y-182693328D02*
X184172311Y-182693328D01*
X183815168Y-182193328D02*
X183815168Y-183479042D01*
X183815168Y-183479042D02*
X183886597Y-183621900D01*
X183886597Y-183621900D02*
X184029454Y-183693328D01*
X184029454Y-183693328D02*
X184172311Y-183693328D01*
X184672311Y-183550471D02*
X184743740Y-183621900D01*
X184743740Y-183621900D02*
X184672311Y-183693328D01*
X184672311Y-183693328D02*
X184600883Y-183621900D01*
X184600883Y-183621900D02*
X184672311Y-183550471D01*
X184672311Y-183550471D02*
X184672311Y-183693328D01*
X184672311Y-182764757D02*
X184743740Y-182836185D01*
X184743740Y-182836185D02*
X184672311Y-182907614D01*
X184672311Y-182907614D02*
X184600883Y-182836185D01*
X184600883Y-182836185D02*
X184672311Y-182764757D01*
X184672311Y-182764757D02*
X184672311Y-182907614D01*
D10*
D12*
X178485282Y-180256957D02*
X179199568Y-180256957D01*
X178342425Y-180685528D02*
X178842425Y-179185528D01*
X178842425Y-179185528D02*
X179342425Y-180685528D01*
X180413853Y-180614100D02*
X180270996Y-180685528D01*
X180270996Y-180685528D02*
X179985282Y-180685528D01*
X179985282Y-180685528D02*
X179842424Y-180614100D01*
X179842424Y-180614100D02*
X179770996Y-180471242D01*
X179770996Y-180471242D02*
X179770996Y-179899814D01*
X179770996Y-179899814D02*
X179842424Y-179756957D01*
X179842424Y-179756957D02*
X179985282Y-179685528D01*
X179985282Y-179685528D02*
X180270996Y-179685528D01*
X180270996Y-179685528D02*
X180413853Y-179756957D01*
X180413853Y-179756957D02*
X180485282Y-179899814D01*
X180485282Y-179899814D02*
X180485282Y-180042671D01*
X180485282Y-180042671D02*
X179770996Y-180185528D01*
X181342424Y-180685528D02*
X181199567Y-180614100D01*
X181199567Y-180614100D02*
X181128138Y-180542671D01*
X181128138Y-180542671D02*
X181056710Y-180399814D01*
X181056710Y-180399814D02*
X181056710Y-179971242D01*
X181056710Y-179971242D02*
X181128138Y-179828385D01*
X181128138Y-179828385D02*
X181199567Y-179756957D01*
X181199567Y-179756957D02*
X181342424Y-179685528D01*
X181342424Y-179685528D02*
X181556710Y-179685528D01*
X181556710Y-179685528D02*
X181699567Y-179756957D01*
X181699567Y-179756957D02*
X181770996Y-179828385D01*
X181770996Y-179828385D02*
X181842424Y-179971242D01*
X181842424Y-179971242D02*
X181842424Y-180399814D01*
X181842424Y-180399814D02*
X181770996Y-180542671D01*
X181770996Y-180542671D02*
X181699567Y-180614100D01*
X181699567Y-180614100D02*
X181556710Y-180685528D01*
X181556710Y-180685528D02*
X181342424Y-180685528D01*
X182485281Y-179685528D02*
X182485281Y-180685528D01*
X182485281Y-179828385D02*
X182556710Y-179756957D01*
X182556710Y-179756957D02*
X182699567Y-179685528D01*
X182699567Y-179685528D02*
X182913853Y-179685528D01*
X182913853Y-179685528D02*
X183056710Y-179756957D01*
X183056710Y-179756957D02*
X183128139Y-179899814D01*
X183128139Y-179899814D02*
X183128139Y-180685528D01*
X184556710Y-180685528D02*
X183842424Y-180685528D01*
X183842424Y-180685528D02*
X183842424Y-179185528D01*
X185699568Y-180685528D02*
X185699568Y-179899814D01*
X185699568Y-179899814D02*
X185628139Y-179756957D01*
X185628139Y-179756957D02*
X185485282Y-179685528D01*
X185485282Y-179685528D02*
X185199568Y-179685528D01*
X185199568Y-179685528D02*
X185056710Y-179756957D01*
X185699568Y-180614100D02*
X185556710Y-180685528D01*
X185556710Y-180685528D02*
X185199568Y-180685528D01*
X185199568Y-180685528D02*
X185056710Y-180614100D01*
X185056710Y-180614100D02*
X184985282Y-180471242D01*
X184985282Y-180471242D02*
X184985282Y-180328385D01*
X184985282Y-180328385D02*
X185056710Y-180185528D01*
X185056710Y-180185528D02*
X185199568Y-180114100D01*
X185199568Y-180114100D02*
X185556710Y-180114100D01*
X185556710Y-180114100D02*
X185699568Y-180042671D01*
X186413853Y-180685528D02*
X186413853Y-179185528D01*
X186413853Y-179756957D02*
X186556711Y-179685528D01*
X186556711Y-179685528D02*
X186842425Y-179685528D01*
X186842425Y-179685528D02*
X186985282Y-179756957D01*
X186985282Y-179756957D02*
X187056711Y-179828385D01*
X187056711Y-179828385D02*
X187128139Y-179971242D01*
X187128139Y-179971242D02*
X187128139Y-180399814D01*
X187128139Y-180399814D02*
X187056711Y-180542671D01*
X187056711Y-180542671D02*
X186985282Y-180614100D01*
X186985282Y-180614100D02*
X186842425Y-180685528D01*
X186842425Y-180685528D02*
X186556711Y-180685528D01*
X186556711Y-180685528D02*
X186413853Y-180614100D01*
X187699568Y-180614100D02*
X187842425Y-180685528D01*
X187842425Y-180685528D02*
X188128139Y-180685528D01*
X188128139Y-180685528D02*
X188270996Y-180614100D01*
X188270996Y-180614100D02*
X188342425Y-180471242D01*
X188342425Y-180471242D02*
X188342425Y-180399814D01*
X188342425Y-180399814D02*
X188270996Y-180256957D01*
X188270996Y-180256957D02*
X188128139Y-180185528D01*
X188128139Y-180185528D02*
X187913854Y-180185528D01*
X187913854Y-180185528D02*
X187770996Y-180114100D01*
X187770996Y-180114100D02*
X187699568Y-179971242D01*
X187699568Y-179971242D02*
X187699568Y-179899814D01*
X187699568Y-179899814D02*
X187770996Y-179756957D01*
X187770996Y-179756957D02*
X187913854Y-179685528D01*
X187913854Y-179685528D02*
X188128139Y-179685528D01*
X188128139Y-179685528D02*
X188270996Y-179756957D01*
D10*
D11*
D10*
D11*
D10*
D11*
D10*
D11*
D10*
D11*
X197002200Y-191507200D02*
X197002200Y-194507200D01*
D10*
D11*
X261002200Y-191507200D02*
X261002200Y-198007200D01*
D14*
%TO.P,REF\u002A\u002A,1*%
%TO.N,N/C*%
X59700000Y-103420000D03*
%TD*%
D15*
%TO.P,J1,S1,SHIELD*%
%TO.N,Net-(ER3-Pad1)*%
X106500000Y-92520000D03*
%TO.P,J1,S2,SHIELD*%
X97860000Y-92520000D03*
%TO.P,J1,S3,SHIELD*%
X106500000Y-88340000D03*
%TO.P,J1,S4,SHIELD*%
X97860000Y-88340000D03*
%TD*%
D16*
%TO.P,ICSP1,5,Pin_5*%
%TO.N,CHIP_EN*%
X93765000Y-87065000D03*
%TO.P,ICSP1,6,Pin_6*%
%TO.N,ESP_GPIO0_BOOT-DTR*%
X92495000Y-87065000D03*
%TO.P,ICSP1,7,Pin_7*%
%TO.N,N/C*%
X91225000Y-87065000D03*
%TO.P,ICSP1,8,Pin_8*%
X89955000Y-87065000D03*
%TD*%
D17*
%TO.P,ADS5_MTRR2,1*%
%TO.N,GND*%
X127315000Y-87040000D03*
%TO.P,ADS5_MTRR2,2*%
%TO.N,3V3_EN_ADS2_IO21*%
X125665000Y-87040000D03*
%TD*%
D18*
%TO.P,ADSC3,1*%
%TO.N,VIN_AUR*%
X123780000Y-87415000D03*
%TO.P,ADSC3,2*%
%TO.N,GND*%
X123780000Y-88965000D03*
%TD*%
D19*
%TO.P,SMA1,1*%
%TO.N,IN_KTS1_ADS2_A+*%
X59480000Y-103280000D03*
D20*
%TO.P,SMA1,2*%
%TO.N,N/C*%
X59280000Y-101755000D03*
D21*
X59280000Y-104805000D03*
%TD*%
D22*
%TO.P,ADS5_MTRT2,1*%
%TO.N,3V3_EN_ADS2_IO21*%
X125560000Y-88672500D03*
%TO.P,ADS5_MTRT2,2*%
%TO.N,GND*%
X127460000Y-88672500D03*
%TO.P,ADS5_MTRT2,3*%
%TO.N,GND_EN_ADS2*%
X126510000Y-90547500D03*
%TD*%
D23*
%TO.P,SHJ1,1,Pin_1*%
%TO.N,Net-(SHJ1-Pin_1)*%
X117940000Y-119545000D03*
%TO.P,SHJ1,2,Pin_2*%
%TO.N,VIN_AUR*%
X118940000Y-119545000D03*
D24*
%TO.P,SHJ1,MP*%
%TO.N,N/C*%
X116640000Y-115670000D03*
X120240000Y-115670000D03*
%TD*%
D25*
%TO.P,REF\u002A\u002A,1*%
%TO.N,IN_KTS1_ADS5_A-*%
X78720000Y-116240000D03*
%TD*%
D26*
%TO.P,REF\u002A\u002A,1*%
%TO.N,IN_KTS1_ADS5_A-*%
X78510000Y-103030000D03*
%TD*%
D22*
%TO.P,MTRT1,1*%
%TO.N,DC_MOTOR_IO05*%
X122380000Y-117450000D03*
%TO.P,MTRT1,2*%
%TO.N,GND*%
X124280000Y-117450000D03*
%TO.P,MTRT1,3*%
%TO.N,Net-(SHJ1-Pin_1)*%
X123330000Y-119325000D03*
%TD*%
D27*
%TO.P,UL2R1,1*%
%TO.N,3V3*%
X133410000Y-89515000D03*
%TO.P,UL2R1,2*%
%TO.N,Net-(UL2-OE)*%
X133410000Y-87865000D03*
%TD*%
D28*
%TO.P,MTRR1,1*%
%TO.N,GND*%
X126490000Y-117387500D03*
%TO.P,MTRR1,2*%
%TO.N,DC_MOTOR_IO05*%
X126490000Y-119212500D03*
%TD*%
D23*
%TO.P,BAT1,1,Pin_1*%
%TO.N,GND*%
X115230000Y-91920000D03*
%TO.P,BAT1,2,Pin_2*%
%TO.N,VIN_BATF*%
X116230000Y-91920000D03*
D24*
%TO.P,BAT1,MP*%
%TO.N,N/C*%
X113930000Y-88045000D03*
X117530000Y-88045000D03*
%TD*%
D29*
%TO.P,ADSC4,1*%
%TO.N,VIN_AUR*%
X121990000Y-87230000D03*
%TO.P,ADSC4,2*%
%TO.N,GND*%
X121990000Y-89130000D03*
%TD*%
D30*
%TO.N,3V3*%
X132240000Y-101950000D03*
X124007905Y-109628859D03*
X116339949Y-105809848D03*
X130066025Y-93423772D03*
X115059899Y-96009899D03*
X75970000Y-118010000D03*
X99490000Y-101040000D03*
X97400000Y-107010000D03*
X130080000Y-90110000D03*
D31*
X114804500Y-114091589D03*
X124715500Y-114304500D03*
D30*
X109137750Y-101707750D03*
X118896025Y-101833772D03*
X136040000Y-93849848D03*
X139934949Y-112064848D03*
X135350000Y-101480000D03*
X97330000Y-100180000D03*
X113230000Y-104290000D03*
X130140000Y-102120000D03*
X109110000Y-96310000D03*
X128230000Y-114140000D03*
D31*
%TO.N,GND*%
X98370000Y-95200000D03*
D30*
X131830000Y-106640000D03*
D32*
X119340000Y-105180000D03*
D30*
X111369116Y-96493351D03*
D31*
X96950000Y-98500000D03*
D30*
X132010000Y-112369500D03*
D32*
X120990000Y-106860000D03*
D30*
X110695000Y-93770000D03*
X132989949Y-95069848D03*
D32*
X140950000Y-98900000D03*
D30*
X110970000Y-107720000D03*
X131930000Y-88530000D03*
X124280000Y-116150000D03*
X111130000Y-104130000D03*
X97400000Y-105240000D03*
X141510000Y-112000000D03*
X92220000Y-109940000D03*
X115110000Y-111280000D03*
D31*
X74390000Y-117705500D03*
D30*
X143986025Y-102313772D03*
X136270000Y-104350000D03*
X115696025Y-102623772D03*
X133916025Y-103833772D03*
X116530000Y-95430000D03*
X133030000Y-109640000D03*
X111070000Y-115140000D03*
X110980000Y-109900000D03*
D32*
%TO.N,VIN_AUR*%
X103620000Y-90120000D03*
D30*
X100370000Y-103850000D03*
X96650000Y-107990000D03*
D32*
X120590000Y-89900000D03*
X133580000Y-91310000D03*
X140980000Y-101200000D03*
D30*
X98235216Y-98390000D03*
X130120000Y-88450000D03*
X104100000Y-107930000D03*
X90230000Y-114560000D03*
%TO.N,VIN_BATF*%
X110200000Y-95550000D03*
X108870046Y-105415341D03*
X110242451Y-102157549D03*
%TO.N,CHIP_EN*%
X95665500Y-88300000D03*
X116820000Y-108270000D03*
X109590000Y-105855500D03*
X99820000Y-98370000D03*
X103040000Y-101730000D03*
%TO.N,TXD0*%
X101790000Y-97010000D03*
X115530000Y-96950000D03*
D33*
%TO.N,ESP_GPIO0_BOOT-DTR*%
X116666025Y-103413772D03*
D30*
X116285500Y-101920000D03*
X117000000Y-109079272D03*
X104305000Y-101845000D03*
X100970000Y-98490000D03*
X110241362Y-105186526D03*
X95865000Y-87375000D03*
%TO.N,IMU_CS_IO06*%
X118390584Y-112590584D03*
X132910000Y-105500000D03*
D32*
%TO.N,TOUCH_SOIL_IO07*%
X139400000Y-105020000D03*
D30*
X119185500Y-112050000D03*
%TO.N,GPIO8_I2C_SDA*%
X131220000Y-105770000D03*
X129530000Y-109540000D03*
X118914500Y-113394500D03*
X134900000Y-105890000D03*
X137000000Y-114300000D03*
X137320000Y-106090000D03*
%TO.N,GPIO9_I2C_SCL*%
X130340000Y-105460000D03*
X131340000Y-109840000D03*
X139796025Y-113923772D03*
X128040000Y-112200000D03*
D33*
X137540000Y-109390000D03*
D30*
X133900000Y-105550000D03*
X119942750Y-113462750D03*
%TO.N,LED_UV_IO14*%
X114640000Y-94400000D03*
X124418785Y-110314702D03*
%TO.N,RXD0*%
X100750000Y-97370000D03*
X115379752Y-97899752D03*
D32*
%TO.N,VIN_USBF*%
X104490000Y-94970413D03*
X109630000Y-91970000D03*
D30*
%TO.N,LED_IR_IO12*%
X123061280Y-110848720D03*
X121180000Y-94320000D03*
%TO.N,LED_WHITE_IO13*%
X118140000Y-94220000D03*
X125290000Y-110370000D03*
%TO.N,LED_GREEN_IO10*%
X120684500Y-111280000D03*
X124750000Y-94230000D03*
%TO.N,LED_RED_IO11*%
X122510000Y-93930000D03*
X121610000Y-111260000D03*
%TO.N,LED_BLUE_IO18*%
X127640000Y-105590000D03*
X126920000Y-94110000D03*
%TO.N,BAT_SENSE_IO04*%
X117038598Y-110426017D03*
X109030000Y-107050000D03*
%TO.N,DC_MOTOR_IO05*%
X118078108Y-110699130D03*
%TO.N,IN_KTS1_ADS5_A-*%
X84790000Y-116940000D03*
%TO.N,Net-(SHJ1-Pin_1)*%
X120730000Y-119860000D03*
X115870000Y-119650000D03*
D31*
%TO.N,TSL1401_ANALOG_IO01*%
X73160000Y-116035500D03*
D30*
X117890000Y-109220000D03*
D32*
%TO.N,IN_KTS1_ADS2_A+*%
X102860000Y-86730000D03*
D30*
%TO.N,SCLK_ADS_5V0*%
X89650000Y-118320000D03*
X83801017Y-119266517D03*
%TO.N,SCLK_ADS_3V3_IO35*%
X132210000Y-91200000D03*
X129100000Y-97630000D03*
X100800000Y-105950000D03*
X119014906Y-98805500D03*
%TO.N,CLK_ADS_3V3_IO37*%
X120492202Y-100497798D03*
X99210000Y-107200000D03*
%TO.N,3V3_EN_ADS_IO38*%
X94190000Y-112360000D03*
X119100000Y-100540000D03*
%TO.N,BUZZER_IO33*%
X137380000Y-104390000D03*
X124310000Y-101270000D03*
%TO.N,TSL1401_SI_3V3_IO34*%
X100340000Y-105020000D03*
X120741107Y-98468893D03*
%TO.N,DOUT_ADS_3V3_IO36*%
X119991233Y-99668767D03*
X99965007Y-106605500D03*
D32*
%TO.N,GND_EN_ADS2*%
X125340000Y-90330000D03*
D30*
%TO.N,3V3_EN_ADS2_IO21*%
X127120000Y-99560000D03*
%TO.N,DOUT_ADS2_IO17*%
X128619365Y-99482582D03*
X131320000Y-91200000D03*
%TO.N,CLK_ADS_3V3_IO20*%
X127920000Y-99870000D03*
X130420000Y-91030000D03*
%TO.N,Net-(UL2-OE)*%
X134770000Y-87850000D03*
D32*
%TO.N,Net-(ER3-Pad1)*%
X110660000Y-86260000D03*
X73180000Y-89790000D03*
X72160000Y-87800000D03*
%TO.N,USB_5V0*%
X104730000Y-90794500D03*
D30*
X101810000Y-101730000D03*
X99450000Y-99830000D03*
%TD*%
D34*
%TO.N,*%
X116640000Y-115670000D02*
X120240000Y-115670000D01*
D35*
%TO.N,3V3*%
X130366025Y-93123772D02*
X130066025Y-93423772D01*
X136099949Y-100537696D02*
X136099949Y-101320051D01*
D36*
X118240000Y-111660000D02*
X120600000Y-109300000D01*
X128372101Y-115129848D02*
X125540848Y-115129848D01*
D37*
X111470000Y-101530000D02*
X109315500Y-101530000D01*
D38*
X91500000Y-109740000D02*
X96840000Y-104400000D01*
D37*
X111890000Y-101950000D02*
X111470000Y-101530000D01*
X124007905Y-109628859D02*
X124007905Y-109587905D01*
D38*
X132060000Y-90110000D02*
X132810000Y-90860000D01*
X82315026Y-119150000D02*
X83375026Y-118090000D01*
D35*
X131236025Y-93123772D02*
X130366025Y-93123772D01*
D39*
X139934949Y-112064848D02*
X139944949Y-112064848D01*
D38*
X130140000Y-102120000D02*
X130668772Y-102648772D01*
X132533772Y-93123772D02*
X133426228Y-93123772D01*
X75970000Y-118010000D02*
X77110000Y-119150000D01*
X115059899Y-95969898D02*
X115059899Y-96009899D01*
D35*
X136840000Y-102230000D02*
X136099949Y-101489949D01*
D38*
X110740000Y-96310000D02*
X111650000Y-95400000D01*
D36*
X140586025Y-112715924D02*
X139934949Y-112064848D01*
D37*
X99490000Y-101040000D02*
X98030000Y-102500000D01*
D38*
X85025026Y-118090000D02*
X91500000Y-111615026D01*
D36*
X120515492Y-101720000D02*
X119009797Y-101720000D01*
D40*
X131186025Y-93073772D02*
X131236025Y-93123772D01*
D38*
X132226228Y-102063772D02*
X132426025Y-102063772D01*
D35*
X135936228Y-101483772D02*
X135426025Y-101483772D01*
D37*
X99490000Y-101040000D02*
X98630000Y-100180000D01*
D35*
X140550000Y-111449797D02*
X140550000Y-104640000D01*
D38*
X132520000Y-91930000D02*
X132520000Y-93110000D01*
D35*
X139934949Y-112064848D02*
X140550000Y-111449797D01*
X136099949Y-93849848D02*
X136099949Y-98777696D01*
D36*
X128372101Y-115129848D02*
X128382253Y-115140000D01*
D37*
X98030000Y-103230000D02*
X98030000Y-106380000D01*
D38*
X98030000Y-103230000D02*
X98030000Y-102570000D01*
D37*
X111890000Y-102950000D02*
X111890000Y-101950000D01*
D36*
X114804500Y-113775500D02*
X116920000Y-111660000D01*
D38*
X109110000Y-96310000D02*
X110740000Y-96310000D01*
X132810000Y-91220000D02*
X132810000Y-91640000D01*
D36*
X114804500Y-114091589D02*
X114804500Y-113775500D01*
D38*
X91500000Y-111615026D02*
X91500000Y-109740000D01*
D36*
X123960000Y-108060000D02*
X122720152Y-109299848D01*
X122720152Y-109299848D02*
X120929949Y-109299848D01*
D38*
X96840000Y-104400000D02*
X98050000Y-104400000D01*
D35*
X136099949Y-93849848D02*
X135373873Y-93123772D01*
D36*
X119009797Y-101720000D02*
X118896025Y-101833772D01*
X140586025Y-114323772D02*
X140586025Y-112715924D01*
D37*
X98630000Y-100180000D02*
X97330000Y-100180000D01*
D36*
X116920000Y-111660000D02*
X118240000Y-111660000D01*
D38*
X130080000Y-90110000D02*
X132060000Y-90110000D01*
D37*
X113230000Y-104290000D02*
X111890000Y-102950000D01*
X109315500Y-101530000D02*
X109045500Y-101800000D01*
X98030000Y-106380000D02*
X97400000Y-107010000D01*
D35*
X136099949Y-101320051D02*
X135936228Y-101483772D01*
X136099949Y-98777696D02*
X136099949Y-100449848D01*
X138140000Y-102230000D02*
X136840000Y-102230000D01*
D37*
X124007905Y-109587905D02*
X123200000Y-108780000D01*
D36*
X120600000Y-109300000D02*
X120600000Y-108970000D01*
X125070000Y-106950000D02*
X125070000Y-106274508D01*
D38*
X130668772Y-102648772D02*
X131641228Y-102648772D01*
X114450000Y-95400000D02*
X115059899Y-96009899D01*
D35*
X140550000Y-104640000D02*
X138140000Y-102230000D01*
D37*
X98030000Y-102500000D02*
X98030000Y-103230000D01*
D38*
X131641228Y-102648772D02*
X132226228Y-102063772D01*
X132810000Y-90620000D02*
X133410000Y-90020000D01*
X132810000Y-91640000D02*
X132520000Y-91930000D01*
D36*
X139769797Y-115140000D02*
X140586025Y-114323772D01*
D37*
X128306025Y-115063772D02*
X128372101Y-115129848D01*
D36*
X128382253Y-115140000D02*
X139769797Y-115140000D01*
D38*
X77110000Y-119150000D02*
X82315026Y-119150000D01*
D36*
X125540848Y-115129848D02*
X124715500Y-114304500D01*
D35*
X136099949Y-101489949D02*
X136099949Y-100537696D01*
D38*
X132810000Y-90860000D02*
X132810000Y-91220000D01*
X111650000Y-95400000D02*
X114450000Y-95400000D01*
D36*
X125070000Y-106274508D02*
X120515492Y-101720000D01*
D38*
X132810000Y-91220000D02*
X132810000Y-90620000D01*
D35*
X133426228Y-93123772D02*
X131236025Y-93123772D01*
D38*
X133410000Y-90020000D02*
X133410000Y-89515000D01*
X132520000Y-93110000D02*
X132533772Y-93123772D01*
D36*
X123765152Y-108254848D02*
X125070000Y-106950000D01*
X120929949Y-109299848D02*
X117439949Y-105809848D01*
D38*
X83375026Y-118090000D02*
X85025026Y-118090000D01*
D36*
X117439949Y-105809848D02*
X116339949Y-105809848D01*
D35*
X135373873Y-93123772D02*
X133426228Y-93123772D01*
X136099949Y-100449848D02*
X136099949Y-100537696D01*
D37*
X128306025Y-114093772D02*
X128306025Y-115063772D01*
D38*
%TO.N,GND*%
X124170000Y-115254750D02*
X124320000Y-115404750D01*
X131550000Y-88530000D02*
X130851250Y-89228750D01*
X111135000Y-104160000D02*
X111705000Y-104160000D01*
X113820000Y-111280000D02*
X111070000Y-114030000D01*
X124320000Y-116110000D02*
X124280000Y-116150000D01*
D39*
X141500000Y-104870000D02*
X141500000Y-111990000D01*
D38*
X124280000Y-116150000D02*
X124280000Y-117450000D01*
D41*
X116993772Y-102623772D02*
X119410000Y-105040000D01*
D37*
X97380000Y-105240000D02*
X97400000Y-105240000D01*
X123780000Y-88965000D02*
X124205000Y-88965000D01*
D40*
X96980000Y-96980000D02*
X98370000Y-95590000D01*
D39*
X143986025Y-102383975D02*
X141500000Y-104870000D01*
D37*
X124660000Y-86610000D02*
X125035000Y-86235000D01*
D40*
X96980000Y-98460000D02*
X96980000Y-96980000D01*
D38*
X92280000Y-110000000D02*
X92220000Y-109940000D01*
D39*
X141500000Y-111990000D02*
X141510000Y-112000000D01*
D37*
X127295000Y-86565000D02*
X127295000Y-87326250D01*
D35*
X112756649Y-96493351D02*
X112860000Y-96390000D01*
D37*
X119500000Y-105040000D02*
X119500000Y-105370000D01*
X127050000Y-87302500D02*
X127135000Y-87217500D01*
D38*
X92280000Y-111330000D02*
X92280000Y-110000000D01*
D41*
X115696025Y-102623772D02*
X116993772Y-102623772D01*
D38*
X111070000Y-114030000D02*
X111070000Y-115140000D01*
D37*
X131920000Y-106530000D02*
X131920000Y-108377747D01*
D38*
X82460000Y-119500000D02*
X83520000Y-118440000D01*
D37*
X92680000Y-109940000D02*
X97380000Y-105240000D01*
D40*
X115210000Y-92030000D02*
X112435000Y-92030000D01*
D37*
X135753772Y-103833772D02*
X136270000Y-104350000D01*
X92220000Y-109940000D02*
X92680000Y-109940000D01*
X126965000Y-86235000D02*
X127295000Y-86565000D01*
X127460000Y-89228750D02*
X127460000Y-87491250D01*
D38*
X124342500Y-117387500D02*
X124280000Y-117450000D01*
X85170000Y-118440000D02*
X92280000Y-111330000D01*
D37*
X125035000Y-86235000D02*
X126965000Y-86235000D01*
D38*
X83520000Y-118440000D02*
X85170000Y-118440000D01*
X132010000Y-112369500D02*
X132390000Y-112749500D01*
D40*
X98370000Y-95590000D02*
X98370000Y-95200000D01*
D38*
X74390000Y-117705500D02*
X74390000Y-117810000D01*
X131930000Y-88530000D02*
X131550000Y-88530000D01*
X132390000Y-112749500D02*
X132390000Y-113240000D01*
D39*
X112773249Y-108400000D02*
X111110000Y-108400000D01*
D38*
X115110000Y-111280000D02*
X113820000Y-111280000D01*
X126490000Y-117387500D02*
X124342500Y-117387500D01*
D35*
X111369116Y-96493351D02*
X112756649Y-96493351D01*
D39*
X143986025Y-102313772D02*
X143986025Y-102383975D01*
D37*
X124660000Y-88510000D02*
X124660000Y-86610000D01*
X134573772Y-103833772D02*
X135753772Y-103833772D01*
D40*
X112435000Y-92030000D02*
X110695000Y-93770000D01*
X110980000Y-107760000D02*
X110980000Y-110620000D01*
D38*
X74390000Y-117810000D02*
X76080000Y-119500000D01*
X130851250Y-89228750D02*
X127460000Y-89228750D01*
D37*
X133906025Y-103833772D02*
X134573772Y-103833772D01*
D38*
X124320000Y-115404750D02*
X124320000Y-116110000D01*
D37*
X119500000Y-105370000D02*
X121113772Y-106983772D01*
X131920000Y-108377747D02*
X133036025Y-109493772D01*
D41*
X119410000Y-105040000D02*
X119500000Y-105040000D01*
D38*
X76080000Y-119500000D02*
X82460000Y-119500000D01*
D37*
X122097500Y-89010000D02*
X123702500Y-89010000D01*
X124205000Y-88965000D02*
X124660000Y-88510000D01*
D40*
%TO.N,VIN_AUR*%
X104100000Y-107930000D02*
X108060000Y-107930000D01*
D37*
X98235216Y-98390000D02*
X98235216Y-96604784D01*
D40*
X112040000Y-117330000D02*
X117540000Y-117330000D01*
D35*
X133580000Y-91310000D02*
X133640000Y-91310000D01*
D40*
X118940000Y-118730000D02*
X118940000Y-119585000D01*
X117540000Y-117330000D02*
X118940000Y-118730000D01*
X108060000Y-107930000D02*
X110220000Y-110090000D01*
D38*
X123780000Y-87415000D02*
X123780000Y-86880000D01*
D35*
X133580000Y-91310000D02*
X134780000Y-91310000D01*
X137180000Y-100340000D02*
X138090000Y-101250000D01*
X138090000Y-101250000D02*
X140930000Y-101250000D01*
D37*
X97330000Y-107990000D02*
X96650000Y-107990000D01*
X99890000Y-103850000D02*
X98510000Y-105230000D01*
D40*
X110220000Y-115510000D02*
X112040000Y-117330000D01*
D38*
X130120000Y-87470000D02*
X130120000Y-88450000D01*
D37*
X103620000Y-91220000D02*
X103620000Y-90120000D01*
X120610000Y-88080000D02*
X121285000Y-87405000D01*
D38*
X128510000Y-85860000D02*
X130120000Y-87470000D01*
D37*
X98235216Y-96604784D02*
X103620000Y-91220000D01*
D38*
X124800000Y-85860000D02*
X128510000Y-85860000D01*
D37*
X96650000Y-108000000D02*
X96650000Y-107990000D01*
X120610000Y-89900000D02*
X120610000Y-88080000D01*
D40*
X118940000Y-119585000D02*
X118890000Y-119635000D01*
D35*
X134780000Y-91310000D02*
X137180000Y-93710000D01*
D37*
X98510000Y-106810000D02*
X97330000Y-107990000D01*
D40*
X110220000Y-110090000D02*
X110220000Y-115510000D01*
D37*
X100370000Y-103850000D02*
X99890000Y-103850000D01*
X90230000Y-114420000D02*
X96650000Y-108000000D01*
X98510000Y-105230000D02*
X98510000Y-106810000D01*
D35*
X137180000Y-93710000D02*
X137180000Y-100340000D01*
D37*
X121285000Y-87405000D02*
X123930000Y-87405000D01*
X90230000Y-114560000D02*
X90230000Y-114420000D01*
D35*
X140930000Y-101250000D02*
X140980000Y-101200000D01*
D38*
X123780000Y-86880000D02*
X124800000Y-85860000D01*
D40*
%TO.N,VIN_BATF*%
X116210000Y-92860000D02*
X116210000Y-92030000D01*
X108870046Y-105415341D02*
X108870046Y-105139954D01*
X112410000Y-93560000D02*
X115510000Y-93560000D01*
X115510000Y-93560000D02*
X116210000Y-92860000D01*
X110200000Y-95550000D02*
X110420000Y-95550000D01*
X108870046Y-105139954D02*
X110242451Y-103767549D01*
X110420000Y-95550000D02*
X112410000Y-93560000D01*
X110242451Y-103767549D02*
X110242451Y-102157549D01*
D38*
%TO.N,CHIP_EN*%
X103040000Y-101730000D02*
X99820000Y-98510000D01*
X95665500Y-88105500D02*
X94625000Y-87065000D01*
X116836025Y-107750999D02*
X116836025Y-108283772D01*
X94625000Y-87065000D02*
X93765000Y-87065000D01*
X109649500Y-105915000D02*
X115000026Y-105915000D01*
X109590000Y-105855500D02*
X109649500Y-105915000D01*
X99820000Y-98510000D02*
X99820000Y-98370000D01*
X115000026Y-105915000D02*
X116836025Y-107750999D01*
X95665500Y-88300000D02*
X95665500Y-88105500D01*
%TO.N,TXD0*%
X115100000Y-97140000D02*
X115290000Y-96950000D01*
X115290000Y-96950000D02*
X115530000Y-96950000D01*
X101920000Y-97140000D02*
X115100000Y-97140000D01*
X101790000Y-97010000D02*
X101920000Y-97140000D01*
%TO.N,ESP_GPIO0_BOOT-DTR*%
X116666025Y-103413772D02*
X115406228Y-103413772D01*
X110585000Y-105565000D02*
X110241362Y-105221362D01*
X104305000Y-101845000D02*
X100970000Y-98510000D01*
X100970000Y-98510000D02*
X100970000Y-98490000D01*
X117480000Y-107900000D02*
X116820000Y-107240000D01*
X115076025Y-103106025D02*
X115410000Y-103440000D01*
X94410000Y-85920000D02*
X92820000Y-85920000D01*
X115205000Y-105565000D02*
X110585000Y-105565000D01*
X116285500Y-101920000D02*
X115440000Y-101920000D01*
X95865000Y-87375000D02*
X94410000Y-85920000D01*
X92820000Y-85920000D02*
X92495000Y-86245000D01*
X115406228Y-103413772D02*
X115390000Y-103430000D01*
X117000000Y-109079272D02*
X117480000Y-108599272D01*
X92495000Y-86245000D02*
X92495000Y-87065000D01*
X115401025Y-105821025D02*
X115401025Y-103431025D01*
X115400000Y-105760000D02*
X115205000Y-105565000D01*
X115076025Y-102283975D02*
X115076025Y-103106025D01*
X110241362Y-105221362D02*
X110241362Y-105186526D01*
X117480000Y-108599272D02*
X117480000Y-107900000D01*
X115401025Y-103431025D02*
X115076025Y-103106025D01*
X116820000Y-107240000D02*
X115401025Y-105821025D01*
X115440000Y-101920000D02*
X115076025Y-102283975D01*
%TO.N,IMU_CS_IO06*%
X127950000Y-109365026D02*
X129756025Y-107559001D01*
X130037980Y-104773772D02*
X131886025Y-104773772D01*
X118620000Y-112820000D02*
X126083452Y-112820000D01*
X126083452Y-112820000D02*
X127950000Y-110953452D01*
X129756025Y-105055727D02*
X130037980Y-104773772D01*
X129756025Y-107559001D02*
X129756025Y-105055727D01*
X131886025Y-104773772D02*
X132656025Y-105543772D01*
X132656025Y-105543772D02*
X132863772Y-105543772D01*
X127950000Y-110953452D02*
X127950000Y-109365026D01*
X118390584Y-112590584D02*
X118620000Y-112820000D01*
D35*
%TO.N,TOUCH_SOIL_IO07*%
X129266025Y-107377249D02*
X129266025Y-104873975D01*
X127475000Y-109168274D02*
X129266025Y-107377249D01*
X129266025Y-104873975D02*
X129846228Y-104293772D01*
X125906700Y-112325000D02*
X127475000Y-110756700D01*
D42*
X139400000Y-105020000D02*
X139410000Y-105010000D01*
D35*
X129846228Y-104293772D02*
X132546025Y-104293772D01*
X135180000Y-104770000D02*
X133022254Y-104770000D01*
X127475000Y-110756700D02*
X127475000Y-109168274D01*
X135660000Y-105250000D02*
X135180000Y-104770000D01*
X133022254Y-104770000D02*
X132741127Y-104488873D01*
X119609425Y-112050000D02*
X119884425Y-112325000D01*
X138380000Y-105250000D02*
X139170000Y-105250000D01*
X132546025Y-104293772D02*
X132741127Y-104488873D01*
X138600000Y-105250000D02*
X135660000Y-105250000D01*
X139170000Y-105250000D02*
X139400000Y-105020000D01*
X132936025Y-104683772D02*
X132741127Y-104488873D01*
X119185500Y-112050000D02*
X119609425Y-112050000D01*
X119884425Y-112325000D02*
X125906700Y-112325000D01*
D38*
%TO.N,GPIO8_I2C_SDA*%
X131116025Y-107953975D02*
X129530000Y-109540000D01*
X134831126Y-105758874D02*
X135182252Y-106110000D01*
X132556025Y-106493772D02*
X131766025Y-105703772D01*
X135182252Y-106110000D02*
X137310000Y-106110000D01*
X131396025Y-105703772D02*
X131116025Y-105983772D01*
X120910000Y-113520000D02*
X127800000Y-113520000D01*
X131766025Y-105703772D02*
X131396025Y-105703772D01*
X134440101Y-111770000D02*
X136939949Y-114269848D01*
X120370000Y-114060000D02*
X120910000Y-113520000D01*
X129530000Y-111790000D02*
X129530000Y-109710000D01*
X118914500Y-113394500D02*
X119580000Y-114060000D01*
X134076228Y-106493772D02*
X132556025Y-106493772D01*
X134811126Y-105758874D02*
X134076228Y-106493772D01*
X134831126Y-105758874D02*
X134811126Y-105758874D01*
X131116025Y-105983772D02*
X131116025Y-107953975D01*
X127800000Y-113520000D02*
X129530000Y-111790000D01*
X119580000Y-114060000D02*
X120370000Y-114060000D01*
X129560000Y-111770000D02*
X134440101Y-111770000D01*
D37*
X136939949Y-114269848D02*
X136939949Y-114289848D01*
D38*
%TO.N,GPIO9_I2C_SCL*%
X132895000Y-111395000D02*
X131340000Y-109840000D01*
X132126025Y-105543772D02*
X131716025Y-105133772D01*
X128300000Y-109510000D02*
X128300000Y-111940000D01*
X137540000Y-109390000D02*
X137540000Y-113660000D01*
X130106025Y-107703975D02*
X128300000Y-109510000D01*
X136825075Y-113660000D02*
X134560075Y-111395000D01*
X133616025Y-106103772D02*
X132686025Y-106103772D01*
X130686025Y-105133772D02*
X130316025Y-105503772D01*
X132686025Y-106103772D02*
X132126025Y-105543772D01*
X128300000Y-111940000D02*
X128040000Y-112200000D01*
X133896025Y-105533772D02*
X133896025Y-105823772D01*
X119942750Y-113297250D02*
X120070000Y-113170000D01*
X134560075Y-111395000D02*
X132895000Y-111395000D01*
X130316025Y-105503772D02*
X130106025Y-105713772D01*
X133896025Y-105823772D02*
X133616025Y-106103772D01*
X127070000Y-113170000D02*
X128040000Y-112200000D01*
X120070000Y-113170000D02*
X127070000Y-113170000D01*
X131716025Y-105133772D02*
X130686025Y-105133772D01*
X130106025Y-105713772D02*
X130106025Y-107703975D01*
X139796025Y-113923772D02*
X139532253Y-113660000D01*
X119942750Y-113462750D02*
X119942750Y-113297250D01*
X139532253Y-113660000D02*
X136825075Y-113660000D01*
%TO.N,LED_UV_IO14*%
X115050000Y-94810000D02*
X114640000Y-94400000D01*
X124418785Y-110314702D02*
X125600000Y-109133487D01*
X125600000Y-109133487D02*
X125600000Y-106580000D01*
X121320000Y-96014974D02*
X120115026Y-94810000D01*
X120115026Y-94810000D02*
X115050000Y-94810000D01*
X121320000Y-101774974D02*
X121320000Y-96014974D01*
X125600000Y-106580000D02*
X125600000Y-106120000D01*
X125600000Y-106580000D02*
X125600000Y-106054974D01*
X125600000Y-106054974D02*
X121320000Y-101774974D01*
%TO.N,RXD0*%
X101445000Y-98065000D02*
X100750000Y-97370000D01*
X115379752Y-97899752D02*
X115214504Y-98065000D01*
X115214504Y-98065000D02*
X101445000Y-98065000D01*
D43*
%TO.N,5V0*%
X117675000Y-88110000D02*
X113945000Y-88110000D01*
D35*
%TO.N,VIN_USBF*%
X109630000Y-92260000D02*
X109630000Y-91970000D01*
X106919587Y-94970413D02*
X109630000Y-92260000D01*
X104490000Y-94970413D02*
X106919587Y-94970413D01*
D38*
%TO.N,LED_IR_IO12*%
X122655078Y-102120104D02*
X126300000Y-105765026D01*
X122020000Y-101479948D02*
X122655078Y-102115026D01*
X121180000Y-94320000D02*
X122020000Y-95160000D01*
X126300000Y-110270000D02*
X126300000Y-105765026D01*
X123061280Y-110848720D02*
X123362560Y-111150000D01*
X123362560Y-111150000D02*
X125420000Y-111150000D01*
X122020000Y-95160000D02*
X122020000Y-101479948D01*
X125420000Y-111150000D02*
X126300000Y-110270000D01*
X122655078Y-102115026D02*
X122655078Y-102120104D01*
X126300000Y-105780000D02*
X126300000Y-105765026D01*
%TO.N,LED_WHITE_IO13*%
X121670000Y-95870000D02*
X121670000Y-101630000D01*
X121670000Y-101630000D02*
X125950000Y-105910000D01*
X120020000Y-94220000D02*
X121670000Y-95870000D01*
X125950000Y-109685078D02*
X125950000Y-105910000D01*
X125950000Y-105910000D02*
X125950000Y-106390000D01*
X125290000Y-110370000D02*
X125290000Y-110345078D01*
X118140000Y-94220000D02*
X120020000Y-94220000D01*
X125950000Y-106390000D02*
X125950000Y-106450000D01*
X125290000Y-110345078D02*
X125950000Y-109685078D01*
%TO.N,LED_GREEN_IO10*%
X124790000Y-94420000D02*
X124800000Y-94410000D01*
X127000000Y-110559948D02*
X127000000Y-105469999D01*
X121180000Y-111850000D02*
X125709948Y-111850000D01*
X120684500Y-111280000D02*
X120684500Y-111354500D01*
X125709948Y-111850000D02*
X127000000Y-110559948D01*
X127000000Y-105469999D02*
X122720000Y-101190000D01*
X124050000Y-94380000D02*
X124800000Y-94380000D01*
X120684500Y-111354500D02*
X121180000Y-111850000D01*
X122720000Y-101190000D02*
X122720000Y-95710000D01*
X122720000Y-95710000D02*
X124050000Y-94380000D01*
%TO.N,LED_RED_IO11*%
X123005078Y-101970052D02*
X122370000Y-101334974D01*
X122370000Y-94070000D02*
X122510000Y-93930000D01*
X123005078Y-101975130D02*
X123005078Y-101970052D01*
X125564974Y-111500000D02*
X126650000Y-110414974D01*
X121850000Y-111500000D02*
X123990000Y-111500000D01*
X122370000Y-101334974D02*
X122370000Y-94070000D01*
X121610000Y-111260000D02*
X121850000Y-111500000D01*
X123830000Y-111500000D02*
X125564974Y-111500000D01*
X126650000Y-110414974D02*
X126650000Y-105620052D01*
X126650000Y-105620052D02*
X123005078Y-101975130D01*
%TO.N,LED_BLUE_IO18*%
X123070000Y-95940000D02*
X124000000Y-95010000D01*
X127622202Y-105590000D02*
X123070000Y-101037798D01*
X126070000Y-95010000D02*
X126990000Y-94090000D01*
X127640000Y-105590000D02*
X127622202Y-105590000D01*
X123070000Y-101037798D02*
X123070000Y-95940000D01*
X124000000Y-95010000D02*
X126070000Y-95010000D01*
%TO.N,BAT_SENSE_IO04*%
X113655026Y-107040000D02*
X116075000Y-109459974D01*
X109040000Y-107040000D02*
X113655026Y-107040000D01*
X116075000Y-109462419D02*
X117038598Y-110426017D01*
X116075000Y-109459974D02*
X116075000Y-109462419D01*
X109030000Y-107050000D02*
X109040000Y-107040000D01*
%TO.N,DC_MOTOR_IO05*%
X117647238Y-111130000D02*
X116380000Y-111130000D01*
X113960000Y-114560000D02*
X114445000Y-115045000D01*
X115800000Y-114410000D02*
X122000000Y-114410000D01*
X123440729Y-115850729D02*
X123440729Y-117990729D01*
X116380000Y-111130000D02*
X113960000Y-113550000D01*
X118078108Y-110699130D02*
X117647238Y-111130000D01*
X115165000Y-115045000D02*
X115800000Y-114410000D01*
X122900000Y-117450000D02*
X122380000Y-117450000D01*
X113960000Y-113550000D02*
X113960000Y-114560000D01*
X123440729Y-117990729D02*
X122900000Y-117450000D01*
X126490000Y-119212500D02*
X124662500Y-119212500D01*
X114445000Y-115045000D02*
X115165000Y-115045000D01*
X122000000Y-114410000D02*
X123440729Y-115850729D01*
X124662500Y-119212500D02*
X123440729Y-117990729D01*
%TO.N,IN_KTS1_ADS5_A-*%
X84580000Y-117150000D02*
X78750000Y-117150000D01*
X84790000Y-116940000D02*
X84580000Y-117150000D01*
%TO.N,Net-(SHJ1-Pin_1)*%
X117940000Y-119545000D02*
X115975000Y-119545000D01*
X121930000Y-119850000D02*
X120870000Y-119850000D01*
X123330000Y-119325000D02*
X122455000Y-119325000D01*
X122455000Y-119325000D02*
X121930000Y-119850000D01*
X115975000Y-119545000D02*
X115810000Y-119710000D01*
%TO.N,TSL1401_ANALOG_IO01*%
X116847555Y-109740000D02*
X117370000Y-109740000D01*
X103704870Y-106430000D02*
X113540000Y-106430000D01*
X113540000Y-106430000D02*
X116425000Y-109315000D01*
X73160000Y-116060000D02*
X73160000Y-117359384D01*
X99710001Y-108040000D02*
X102094870Y-108040000D01*
X116425000Y-109315000D02*
X116425000Y-109317445D01*
X117370000Y-109740000D02*
X117890000Y-109220000D01*
X102094870Y-108040000D02*
X103704870Y-106430000D01*
X73160000Y-117359384D02*
X75650616Y-119850000D01*
X75650616Y-119850000D02*
X89390000Y-119850000D01*
X95040001Y-112710000D02*
X99710001Y-108040000D01*
X89390000Y-119850000D02*
X95040001Y-114199999D01*
X116425000Y-109317445D02*
X116847555Y-109740000D01*
X95040001Y-114199999D02*
X95040001Y-112710000D01*
D34*
%TO.N,IN_KTS1_ADS2_A+*%
X96620000Y-88820000D02*
X95510000Y-89930000D01*
X95510000Y-89930000D02*
X87000050Y-89930000D01*
X87000050Y-89930000D02*
X85450050Y-88380000D01*
X97321301Y-86390000D02*
X96620000Y-87091301D01*
X72460000Y-89070000D02*
X71870051Y-89070000D01*
X96620000Y-87091301D02*
X96620000Y-88820000D01*
X85450050Y-88380000D02*
X73150000Y-88380000D01*
X71870051Y-89070000D02*
X62110000Y-98830050D01*
X102520000Y-86390000D02*
X97321301Y-86390000D01*
X60930000Y-103280000D02*
X59480000Y-103280000D01*
X102860000Y-86730000D02*
X102520000Y-86390000D01*
X73150000Y-88380000D02*
X72460000Y-89070000D01*
X62110000Y-98830050D02*
X62110000Y-102100000D01*
X62110000Y-102100000D02*
X60930000Y-103280000D01*
D38*
%TO.N,SCLK_ADS_5V0*%
X83801017Y-119266517D02*
X83810000Y-119275500D01*
X88664500Y-119275500D02*
X89630000Y-118310000D01*
X83810000Y-119275500D02*
X88664500Y-119275500D01*
%TO.N,SCLK_ADS_3V3_IO35*%
X132210000Y-91550000D02*
X131720000Y-92040000D01*
X132210000Y-91200000D02*
X132210000Y-91550000D01*
X113549830Y-98935094D02*
X118885312Y-98935094D01*
X100860000Y-106010000D02*
X102144974Y-106010000D01*
X118885312Y-98935094D02*
X119014906Y-98805500D01*
X108244974Y-99910000D02*
X112574924Y-99910000D01*
X102144974Y-106010000D02*
X108244974Y-99910000D01*
X128820000Y-97350000D02*
X129100000Y-97630000D01*
X100800000Y-105950000D02*
X100860000Y-106010000D01*
X131720000Y-92040000D02*
X128980000Y-92040000D01*
X112574924Y-99910000D02*
X113549830Y-98935094D01*
X128980000Y-92040000D02*
X128820000Y-92200000D01*
X128820000Y-92200000D02*
X128820000Y-97350000D01*
X129100000Y-97630000D02*
X128930000Y-97460000D01*
%TO.N,CLK_ADS_3V3_IO37*%
X108534922Y-100610000D02*
X101904922Y-107240000D01*
X101904922Y-107240000D02*
X99250000Y-107240000D01*
X120007798Y-100497798D02*
X119240000Y-99730000D01*
X99250000Y-107240000D02*
X99210000Y-107200000D01*
X120492202Y-100497798D02*
X120007798Y-100497798D01*
X99230000Y-107220000D02*
X99210000Y-107200000D01*
X119240000Y-99730000D02*
X113744872Y-99730000D01*
X99210000Y-107200000D02*
X99230000Y-107180000D01*
X113744872Y-99730000D02*
X112864872Y-100610000D01*
X112864872Y-100610000D02*
X108534922Y-100610000D01*
%TO.N,3V3_EN_ADS_IO38*%
X119100000Y-100540000D02*
X118640000Y-100080000D01*
X99565026Y-107690000D02*
X94895026Y-112360000D01*
X101949896Y-107690000D02*
X99565026Y-107690000D01*
X113920000Y-100080000D02*
X113030000Y-100970000D01*
X94895026Y-112360000D02*
X94190000Y-112360000D01*
X118640000Y-100080000D02*
X113920000Y-100080000D01*
X113030000Y-100970000D02*
X108669896Y-100970000D01*
X108669896Y-100970000D02*
X101949896Y-107690000D01*
%TO.N,BUZZER_IO33*%
X124310000Y-101270000D02*
X132580000Y-101270000D01*
X134640000Y-103330000D02*
X136320000Y-103330000D01*
X132580000Y-101270000D02*
X134640000Y-103330000D01*
X136320000Y-103330000D02*
X137380000Y-104390000D01*
%TO.N,TSL1401_SI_3V3_IO34*%
X118639500Y-98230500D02*
X120502714Y-98230500D01*
X100340000Y-105020000D02*
X102640000Y-105020000D01*
X120502714Y-98230500D02*
X120741107Y-98468893D01*
X108100000Y-99560000D02*
X112429950Y-99560000D01*
X118284906Y-98585094D02*
X118639500Y-98230500D01*
X102640000Y-105020000D02*
X108100000Y-99560000D01*
X112429950Y-99560000D02*
X113404856Y-98585094D01*
X113404856Y-98585094D02*
X118284906Y-98585094D01*
%TO.N,DOUT_ADS_3V3_IO36*%
X108389948Y-100260000D02*
X112719898Y-100260000D01*
X102044448Y-106605500D02*
X108389948Y-100260000D01*
X113599897Y-99380000D02*
X119702466Y-99380000D01*
X119702466Y-99380000D02*
X119991233Y-99668767D01*
X112719898Y-100260000D02*
X113599897Y-99380000D01*
X99965007Y-106605500D02*
X102044448Y-106605500D01*
D37*
%TO.N,GND_EN_ADS2*%
X126510000Y-90547500D02*
X125557500Y-90547500D01*
X125557500Y-90547500D02*
X125340000Y-90330000D01*
%TO.N,3V3_EN_ADS2_IO21*%
X125560000Y-89228750D02*
X125560000Y-88130000D01*
D38*
X127590000Y-90140000D02*
X127590000Y-98870000D01*
X125560000Y-88130000D02*
X125560000Y-87770000D01*
X126040000Y-87770000D02*
X126836041Y-88566041D01*
X127133959Y-89685000D02*
X127135000Y-89685000D01*
D37*
X125560000Y-88130000D02*
X125560000Y-87411250D01*
D38*
X127250000Y-99210000D02*
X127250000Y-99660000D01*
X125560000Y-87770000D02*
X126040000Y-87770000D01*
X126836041Y-89387082D02*
X127133959Y-89685000D01*
X127590000Y-98870000D02*
X127250000Y-99210000D01*
X127135000Y-89685000D02*
X127590000Y-90140000D01*
X126836041Y-88566041D02*
X126836041Y-89387082D01*
%TO.N,DOUT_ADS2_IO17*%
X131320000Y-91200000D02*
X130830000Y-91690000D01*
X128290000Y-98800000D02*
X128619365Y-99129365D01*
X130830000Y-91690000D02*
X128810000Y-91690000D01*
X128619365Y-99129365D02*
X128619365Y-99482582D01*
X128810000Y-91690000D02*
X128290000Y-92210000D01*
X128290000Y-92210000D02*
X128290000Y-98800000D01*
%TO.N,CLK_ADS_3V3_IO20*%
X127940000Y-92065026D02*
X127940000Y-99870000D01*
X130110000Y-91340000D02*
X128665025Y-91340000D01*
X130420000Y-91030000D02*
X130110000Y-91340000D01*
X128665025Y-91340000D02*
X127940000Y-92065026D01*
X127940000Y-99870000D02*
X127910000Y-99900000D01*
%TO.N,Net-(UL2-OE)*%
X134585000Y-87865000D02*
X134590000Y-87870000D01*
X133410000Y-87865000D02*
X134585000Y-87865000D01*
D34*
%TO.N,Net-(ER3-Pad1)*%
X110660000Y-86260000D02*
X110560000Y-86260000D01*
X72160000Y-87800000D02*
X72280000Y-87680000D01*
X72160000Y-87800000D02*
X72150101Y-87800000D01*
X97940000Y-93038750D02*
X97940000Y-88420000D01*
X85090000Y-89080000D02*
X73950000Y-89080000D01*
X62810000Y-102440000D02*
X62220000Y-103030000D01*
X91720000Y-90630000D02*
X86640000Y-90630000D01*
X72280000Y-87680000D02*
X85740000Y-87680000D01*
X106565000Y-88275000D02*
X106500000Y-88340000D01*
X86640000Y-90630000D02*
X85090000Y-89080000D01*
X73260000Y-89770000D02*
X73200000Y-89770000D01*
X72120000Y-89810000D02*
X62810000Y-99120000D01*
X72150101Y-87800000D02*
X61400000Y-98550101D01*
D35*
X106560000Y-92700000D02*
X106560000Y-88520000D01*
D34*
X73160000Y-89810000D02*
X72120000Y-89810000D01*
X91640000Y-90630000D02*
X97910000Y-90630000D01*
X73950000Y-89080000D02*
X73260000Y-89770000D01*
X97940000Y-88420000D02*
X97860000Y-88340000D01*
X73180000Y-89790000D02*
X73160000Y-89810000D01*
X87290000Y-89230000D02*
X95100000Y-89230000D01*
X108545000Y-88275000D02*
X106565000Y-88275000D01*
X73200000Y-89770000D02*
X73180000Y-89790000D01*
X97910000Y-90630000D02*
X97940000Y-90600000D01*
X61400000Y-98550101D02*
X61400000Y-99670000D01*
X110560000Y-86260000D02*
X108545000Y-88275000D01*
X62810000Y-99120000D02*
X62810000Y-102440000D01*
X85740000Y-87680000D02*
X87290000Y-89230000D01*
D38*
%TO.N,USB_5V0*%
X99030000Y-96494500D02*
X104730000Y-90794500D01*
X101360000Y-101730000D02*
X99030000Y-99400000D01*
X99030000Y-99400000D02*
X99030000Y-96494500D01*
X101810000Y-101730000D02*
X101360000Y-101730000D01*
%TD*%
%TA.AperFunction,Conductor*%
%TO.N,GND*%
G36*
X113534474Y-107389502D02*
G01*
X113555448Y-107406405D01*
X115796262Y-109647219D01*
X115816285Y-109673312D01*
X115818692Y-109677481D01*
X115818693Y-109677482D01*
X115818695Y-109677485D01*
X115850089Y-109703827D01*
X115854116Y-109707518D01*
X116152203Y-110005605D01*
X116446229Y-110299631D01*
X116480255Y-110361943D01*
X116482057Y-110405167D01*
X116479313Y-110426016D01*
X116479313Y-110426018D01*
X116498369Y-110570769D01*
X116498370Y-110570771D01*
X116521364Y-110626283D01*
X116528953Y-110696871D01*
X116497174Y-110760358D01*
X116436116Y-110796586D01*
X116404955Y-110800500D01*
X116397132Y-110800500D01*
X116391647Y-110800260D01*
X116362590Y-110797718D01*
X116350842Y-110796690D01*
X116350835Y-110796690D01*
X116311276Y-110807290D01*
X116305909Y-110808480D01*
X116265569Y-110815593D01*
X116260363Y-110817488D01*
X116243628Y-110824420D01*
X116238601Y-110826764D01*
X116238599Y-110826765D01*
X116238596Y-110826766D01*
X116238598Y-110826766D01*
X116205037Y-110850263D01*
X116200404Y-110853214D01*
X116164936Y-110873693D01*
X116164934Y-110873694D01*
X116138603Y-110905073D01*
X116134890Y-110909125D01*
X113739136Y-113304879D01*
X113735085Y-113308592D01*
X113703692Y-113334936D01*
X113683211Y-113370410D01*
X113680259Y-113375044D01*
X113656766Y-113408597D01*
X113654410Y-113413649D01*
X113647490Y-113430358D01*
X113645593Y-113435569D01*
X113638480Y-113475909D01*
X113637290Y-113481276D01*
X113626690Y-113520835D01*
X113626690Y-113520841D01*
X113630260Y-113561637D01*
X113630500Y-113567131D01*
X113630500Y-114542867D01*
X113630260Y-114548360D01*
X113626690Y-114589158D01*
X113626690Y-114589165D01*
X113637290Y-114628725D01*
X113638480Y-114634091D01*
X113645593Y-114674430D01*
X113647498Y-114679664D01*
X113654416Y-114696367D01*
X113656762Y-114701397D01*
X113680258Y-114734952D01*
X113683212Y-114739589D01*
X113703695Y-114775066D01*
X113735073Y-114801395D01*
X113739127Y-114805110D01*
X114131097Y-115197081D01*
X114165122Y-115259393D01*
X114160057Y-115330209D01*
X114117510Y-115387044D01*
X114050990Y-115411855D01*
X114042102Y-115412176D01*
X110980935Y-115414635D01*
X110912798Y-115394688D01*
X110866262Y-115341069D01*
X110854834Y-115288399D01*
X110866690Y-109072580D01*
X110869698Y-107495260D01*
X110889830Y-107427177D01*
X110943574Y-107380787D01*
X110995698Y-107369500D01*
X113466353Y-107369500D01*
X113534474Y-107389502D01*
G37*
%TD.AperFunction*%
%TA.AperFunction,Conductor*%
G36*
X124129209Y-113869502D02*
G01*
X124175702Y-113923158D01*
X124185806Y-113993432D01*
X124177497Y-114023717D01*
X124126560Y-114146693D01*
X124105784Y-114304500D01*
X124126560Y-114462306D01*
X124187468Y-114609357D01*
X124284365Y-114735634D01*
X124410643Y-114832531D01*
X124524377Y-114879640D01*
X124557694Y-114893440D01*
X124557697Y-114893440D01*
X124560873Y-114894292D01*
X124563725Y-114895939D01*
X124565324Y-114896601D01*
X124565236Y-114896811D01*
X124617363Y-114926905D01*
X124878905Y-115188447D01*
X124912931Y-115250759D01*
X124907866Y-115321574D01*
X124865319Y-115378410D01*
X124798799Y-115403221D01*
X124789911Y-115403542D01*
X123512842Y-115404568D01*
X123444705Y-115384621D01*
X123423646Y-115367663D01*
X122245115Y-114189132D01*
X122241400Y-114185079D01*
X122234512Y-114176870D01*
X122215066Y-114153695D01*
X122179589Y-114133212D01*
X122174957Y-114130261D01*
X122153213Y-114115036D01*
X122141397Y-114106762D01*
X122136367Y-114104416D01*
X122119670Y-114097501D01*
X122109780Y-114093901D01*
X122052609Y-114051806D01*
X122027272Y-113985484D01*
X122041813Y-113915993D01*
X122091616Y-113865394D01*
X122152876Y-113849500D01*
X124061088Y-113849500D01*
X124129209Y-113869502D01*
G37*
%TD.AperFunction*%
%TA.AperFunction,Conductor*%
G36*
X134319549Y-112119502D02*
G01*
X134340523Y-112136405D01*
X136186255Y-113982137D01*
X136220281Y-114044449D01*
X136223160Y-114071099D01*
X136223617Y-114504367D01*
X136203687Y-114572509D01*
X136150080Y-114619058D01*
X136097617Y-114630500D01*
X128808061Y-114630500D01*
X128739940Y-114610498D01*
X128693447Y-114556842D01*
X128683343Y-114486568D01*
X128708100Y-114427794D01*
X128711383Y-114423516D01*
X128714355Y-114419643D01*
X128770228Y-114284754D01*
X128789285Y-114140000D01*
X128770228Y-113995246D01*
X128714355Y-113860358D01*
X128625474Y-113744526D01*
X128625472Y-113744524D01*
X128625471Y-113744523D01*
X128509649Y-113655649D01*
X128509641Y-113655644D01*
X128473743Y-113640774D01*
X128415649Y-113616711D01*
X128360369Y-113572163D01*
X128337948Y-113504800D01*
X128355506Y-113436009D01*
X128374765Y-113411216D01*
X129649580Y-112136402D01*
X129711890Y-112102379D01*
X129738673Y-112099500D01*
X134251428Y-112099500D01*
X134319549Y-112119502D01*
G37*
%TD.AperFunction*%
%TA.AperFunction,Conductor*%
G36*
X131746340Y-106157898D02*
G01*
X131776371Y-106180102D01*
X132310924Y-106714655D01*
X132314629Y-106718698D01*
X132336199Y-106744405D01*
X132340959Y-106750077D01*
X132376421Y-106770551D01*
X132376423Y-106770552D01*
X132381058Y-106773506D01*
X132404696Y-106790055D01*
X132414624Y-106797007D01*
X132414626Y-106797007D01*
X132419674Y-106799362D01*
X132436343Y-106806266D01*
X132441587Y-106808175D01*
X132441591Y-106808177D01*
X132481950Y-106815292D01*
X132487277Y-106816473D01*
X132526865Y-106827082D01*
X132553958Y-106824711D01*
X132567679Y-106823512D01*
X132573171Y-106823272D01*
X134059096Y-106823272D01*
X134064581Y-106823511D01*
X134105388Y-106827082D01*
X134144963Y-106816477D01*
X134150301Y-106815292D01*
X134190662Y-106808177D01*
X134190663Y-106808176D01*
X134190665Y-106808176D01*
X134195927Y-106806260D01*
X134212550Y-106799375D01*
X134217626Y-106797007D01*
X134217629Y-106797007D01*
X134251201Y-106773498D01*
X134255801Y-106770568D01*
X134291294Y-106750077D01*
X134300625Y-106738957D01*
X134317623Y-106718698D01*
X134321328Y-106714653D01*
X134590009Y-106445973D01*
X134652320Y-106411949D01*
X134723136Y-106417014D01*
X134727320Y-106418661D01*
X134735942Y-106422232D01*
X134755246Y-106430228D01*
X134900000Y-106449285D01*
X135052944Y-106429150D01*
X135053177Y-106430923D01*
X135094520Y-106429113D01*
X135108160Y-106431517D01*
X135113509Y-106432703D01*
X135153092Y-106443310D01*
X135193898Y-106439739D01*
X135199384Y-106439500D01*
X136089261Y-106439500D01*
X136157382Y-106459502D01*
X136203875Y-106513158D01*
X136215261Y-106565367D01*
X136221282Y-112285900D01*
X136201352Y-112354042D01*
X136147745Y-112400591D01*
X136077482Y-112410769D01*
X136012870Y-112381344D01*
X136006187Y-112375128D01*
X135121773Y-111490715D01*
X134805179Y-111174121D01*
X134801475Y-111170079D01*
X134798543Y-111166585D01*
X134775141Y-111138695D01*
X134739664Y-111118212D01*
X134735032Y-111115261D01*
X134708727Y-111096842D01*
X134701472Y-111091762D01*
X134696442Y-111089416D01*
X134679739Y-111082498D01*
X134674505Y-111080593D01*
X134634166Y-111073480D01*
X134628800Y-111072290D01*
X134589239Y-111061690D01*
X134589233Y-111061690D01*
X134577484Y-111062718D01*
X134548427Y-111065260D01*
X134542943Y-111065500D01*
X133083673Y-111065500D01*
X133015552Y-111045498D01*
X132994578Y-111028595D01*
X131932367Y-109966384D01*
X131898341Y-109904072D01*
X131896541Y-109860838D01*
X131898064Y-109849277D01*
X131899285Y-109840000D01*
X131895766Y-109813274D01*
X131881427Y-109704355D01*
X131880228Y-109695246D01*
X131824355Y-109560358D01*
X131735474Y-109444526D01*
X131735472Y-109444524D01*
X131735471Y-109444523D01*
X131619649Y-109355649D01*
X131619641Y-109355644D01*
X131484752Y-109299771D01*
X131340000Y-109280715D01*
X131195247Y-109299771D01*
X131127801Y-109327708D01*
X131060358Y-109355645D01*
X131060357Y-109355646D01*
X131060356Y-109355646D01*
X130944526Y-109444526D01*
X130855646Y-109560356D01*
X130855645Y-109560358D01*
X130835563Y-109608840D01*
X130799771Y-109695247D01*
X130780715Y-109839999D01*
X130780715Y-109840000D01*
X130799771Y-109984752D01*
X130855644Y-110119641D01*
X130855649Y-110119649D01*
X130944525Y-110235474D01*
X131039684Y-110308492D01*
X131060357Y-110324355D01*
X131195246Y-110380228D01*
X131340000Y-110399285D01*
X131340001Y-110399285D01*
X131344623Y-110398676D01*
X131360839Y-110396541D01*
X131430987Y-110407477D01*
X131466384Y-110432367D01*
X132259422Y-111225405D01*
X132293448Y-111287717D01*
X132288383Y-111358532D01*
X132245836Y-111415368D01*
X132179316Y-111440179D01*
X132170327Y-111440500D01*
X129985500Y-111440500D01*
X129917379Y-111420498D01*
X129870886Y-111366842D01*
X129859500Y-111314500D01*
X129859500Y-110048233D01*
X129879502Y-109980112D01*
X129908795Y-109948272D01*
X129925474Y-109935474D01*
X130014355Y-109819643D01*
X130070228Y-109684754D01*
X130089285Y-109540000D01*
X130086540Y-109519155D01*
X130097478Y-109449010D01*
X130122364Y-109413617D01*
X131336918Y-108199063D01*
X131340936Y-108195381D01*
X131372330Y-108169041D01*
X131392821Y-108133548D01*
X131395751Y-108128948D01*
X131419260Y-108095376D01*
X131419260Y-108095373D01*
X131421628Y-108090297D01*
X131428513Y-108073674D01*
X131430429Y-108068412D01*
X131430430Y-108068409D01*
X131437545Y-108028048D01*
X131438730Y-108022710D01*
X131449335Y-107983135D01*
X131445764Y-107942329D01*
X131445525Y-107936842D01*
X131445525Y-106358017D01*
X131465527Y-106289896D01*
X131494820Y-106258055D01*
X131499640Y-106254356D01*
X131499643Y-106254355D01*
X131610574Y-106169233D01*
X131676792Y-106143634D01*
X131746340Y-106157898D01*
G37*
%TD.AperFunction*%
%TA.AperFunction,Conductor*%
G36*
X118482836Y-100429502D02*
G01*
X118529329Y-100483158D01*
X118540715Y-100535500D01*
X118540715Y-100540001D01*
X118559771Y-100684752D01*
X118615644Y-100819641D01*
X118615649Y-100819649D01*
X118704525Y-100935474D01*
X118820352Y-101024352D01*
X118822892Y-101025818D01*
X118824607Y-101027617D01*
X118826909Y-101029383D01*
X118826633Y-101029741D01*
X118871889Y-101077197D01*
X118885329Y-101146910D01*
X118858947Y-101212823D01*
X118803935Y-101252995D01*
X118763110Y-101268223D01*
X118759155Y-101271184D01*
X118735999Y-101284923D01*
X118731506Y-101286974D01*
X118714312Y-101301874D01*
X118680019Y-101323057D01*
X118616387Y-101349414D01*
X118616384Y-101349416D01*
X118500551Y-101438298D01*
X118411671Y-101554128D01*
X118411670Y-101554130D01*
X118384592Y-101619502D01*
X118355796Y-101689019D01*
X118336740Y-101833771D01*
X118336740Y-101833772D01*
X118355796Y-101978524D01*
X118411669Y-102113413D01*
X118411674Y-102113421D01*
X118500550Y-102229246D01*
X118616375Y-102318122D01*
X118616382Y-102318127D01*
X118751271Y-102374000D01*
X118896025Y-102393057D01*
X119040779Y-102374000D01*
X119175668Y-102318127D01*
X119257235Y-102255537D01*
X119323455Y-102229937D01*
X119333939Y-102229500D01*
X120252260Y-102229500D01*
X120320381Y-102249502D01*
X120341355Y-102266405D01*
X124523596Y-106448646D01*
X124557621Y-106510956D01*
X124560500Y-106537739D01*
X124560500Y-106686766D01*
X124540498Y-106754887D01*
X124523596Y-106775861D01*
X123625493Y-107673964D01*
X122546015Y-108753443D01*
X122483703Y-108787468D01*
X122456920Y-108790348D01*
X121193181Y-108790348D01*
X121125060Y-108770346D01*
X121104086Y-108753443D01*
X121086287Y-108735644D01*
X120974054Y-108623411D01*
X120971017Y-108620149D01*
X120937082Y-108580986D01*
X120937080Y-108580984D01*
X120933213Y-108578499D01*
X120912240Y-108561597D01*
X117848533Y-105497890D01*
X117831628Y-105476913D01*
X117828962Y-105472765D01*
X117789052Y-105438182D01*
X117785760Y-105435117D01*
X117774461Y-105423817D01*
X117774457Y-105423813D01*
X117766588Y-105417923D01*
X117761648Y-105414225D01*
X117758149Y-105411406D01*
X117718237Y-105376821D01*
X117713752Y-105374773D01*
X117690581Y-105361025D01*
X117686638Y-105358073D01*
X117637152Y-105339615D01*
X117632998Y-105337894D01*
X117584970Y-105315960D01*
X117583213Y-105315707D01*
X117580078Y-105315256D01*
X117553992Y-105308597D01*
X117551655Y-105307726D01*
X117549366Y-105306872D01*
X117549362Y-105306871D01*
X117505387Y-105303726D01*
X117496686Y-105303104D01*
X117492221Y-105302624D01*
X117476389Y-105300348D01*
X117476386Y-105300348D01*
X117460390Y-105300348D01*
X117455894Y-105300187D01*
X117403230Y-105296420D01*
X117403229Y-105296421D01*
X117403228Y-105296421D01*
X117398413Y-105297468D01*
X117371631Y-105300348D01*
X116583950Y-105300348D01*
X116535732Y-105290757D01*
X116484701Y-105269619D01*
X116339949Y-105250563D01*
X116195196Y-105269619D01*
X116144166Y-105290757D01*
X116060307Y-105325493D01*
X116060306Y-105325494D01*
X116060305Y-105325494D01*
X116028666Y-105349772D01*
X115944475Y-105414374D01*
X115944474Y-105414375D01*
X115937923Y-105419402D01*
X115936857Y-105418013D01*
X115883308Y-105447254D01*
X115812493Y-105442189D01*
X115755657Y-105399642D01*
X115730846Y-105333122D01*
X115730525Y-105324133D01*
X115730525Y-103869272D01*
X115750527Y-103801151D01*
X115804183Y-103754658D01*
X115856525Y-103743272D01*
X116226447Y-103743272D01*
X116294568Y-103763274D01*
X116321670Y-103786758D01*
X116332250Y-103798968D01*
X116454293Y-103877401D01*
X116593489Y-103918272D01*
X116738561Y-103918272D01*
X116877757Y-103877401D01*
X116999800Y-103798968D01*
X117094802Y-103689330D01*
X117155067Y-103557368D01*
X117175713Y-103413772D01*
X117155067Y-103270176D01*
X117094802Y-103138214D01*
X116999800Y-103028576D01*
X116999799Y-103028575D01*
X116938309Y-102989058D01*
X116877757Y-102950143D01*
X116877756Y-102950142D01*
X116877755Y-102950142D01*
X116738561Y-102909272D01*
X116593489Y-102909272D01*
X116454294Y-102950142D01*
X116454291Y-102950144D01*
X116332250Y-103028575D01*
X116321672Y-103040784D01*
X116261946Y-103079168D01*
X116226447Y-103084272D01*
X115572445Y-103084272D01*
X115504324Y-103064270D01*
X115483350Y-103047367D01*
X115442430Y-103006447D01*
X115408404Y-102944135D01*
X115405525Y-102917352D01*
X115405525Y-102472647D01*
X115425527Y-102404526D01*
X115442421Y-102383561D01*
X115539580Y-102286402D01*
X115601890Y-102252379D01*
X115628673Y-102249500D01*
X115777266Y-102249500D01*
X115845387Y-102269502D01*
X115877227Y-102298794D01*
X115890026Y-102315474D01*
X115890028Y-102315476D01*
X115999716Y-102399643D01*
X116005857Y-102404355D01*
X116140746Y-102460228D01*
X116213123Y-102469756D01*
X116285499Y-102479285D01*
X116285499Y-102479284D01*
X116285500Y-102479285D01*
X116430254Y-102460228D01*
X116565143Y-102404355D01*
X116680974Y-102315474D01*
X116769855Y-102199643D01*
X116825728Y-102064754D01*
X116844785Y-101920000D01*
X116825728Y-101775246D01*
X116769855Y-101640358D01*
X116680974Y-101524526D01*
X116680972Y-101524524D01*
X116680971Y-101524523D01*
X116565149Y-101435649D01*
X116565141Y-101435644D01*
X116430252Y-101379771D01*
X116285500Y-101360715D01*
X116140747Y-101379771D01*
X116073301Y-101407708D01*
X116005858Y-101435645D01*
X116005857Y-101435646D01*
X116005856Y-101435646D01*
X115948053Y-101480000D01*
X115890026Y-101524526D01*
X115877227Y-101541204D01*
X115819891Y-101583071D01*
X115777266Y-101590500D01*
X115457120Y-101590500D01*
X115451635Y-101590260D01*
X115422632Y-101587722D01*
X115410841Y-101586691D01*
X115410837Y-101586691D01*
X115371271Y-101597292D01*
X115365907Y-101598481D01*
X115325568Y-101605594D01*
X115320331Y-101607500D01*
X115303641Y-101614413D01*
X115298599Y-101616764D01*
X115265044Y-101640259D01*
X115260410Y-101643211D01*
X115224937Y-101663692D01*
X115224930Y-101663697D01*
X115198598Y-101695079D01*
X115194884Y-101699132D01*
X114855161Y-102038854D01*
X114851110Y-102042567D01*
X114819717Y-102068911D01*
X114799236Y-102104385D01*
X114796284Y-102109019D01*
X114772791Y-102142572D01*
X114770435Y-102147624D01*
X114763515Y-102164333D01*
X114761618Y-102169544D01*
X114754505Y-102209884D01*
X114753315Y-102215251D01*
X114742715Y-102254810D01*
X114742715Y-102254815D01*
X114746282Y-102295584D01*
X114746285Y-102295612D01*
X114746525Y-102301106D01*
X114746525Y-103088892D01*
X114746285Y-103094385D01*
X114742715Y-103135183D01*
X114742715Y-103135190D01*
X114753315Y-103174750D01*
X114754505Y-103180116D01*
X114761618Y-103220455D01*
X114763523Y-103225689D01*
X114770441Y-103242392D01*
X114772787Y-103247422D01*
X114796283Y-103280977D01*
X114799237Y-103285614D01*
X114819720Y-103321091D01*
X114851092Y-103347415D01*
X114855147Y-103351130D01*
X115034619Y-103530603D01*
X115068645Y-103592915D01*
X115071524Y-103619698D01*
X115071525Y-105109500D01*
X115051523Y-105177621D01*
X114997867Y-105224114D01*
X114945525Y-105235500D01*
X111000248Y-105235500D01*
X110932127Y-105215498D01*
X110885634Y-105161842D01*
X110874248Y-105109260D01*
X110874255Y-105105644D01*
X110880158Y-102010258D01*
X110900290Y-101942177D01*
X110954034Y-101895787D01*
X111006158Y-101884500D01*
X111270970Y-101884500D01*
X111339091Y-101904502D01*
X111360065Y-101921405D01*
X111498594Y-102059934D01*
X111532620Y-102122246D01*
X111535499Y-102149029D01*
X111535499Y-102900165D01*
X111532819Y-102926016D01*
X111530904Y-102935147D01*
X111532025Y-102944135D01*
X111535016Y-102968135D01*
X111535500Y-102975922D01*
X111535500Y-102979384D01*
X111538914Y-102999847D01*
X111539289Y-103002420D01*
X111545538Y-103052548D01*
X111547658Y-103059670D01*
X111550071Y-103066699D01*
X111574117Y-103111131D01*
X111575308Y-103113445D01*
X111597501Y-103158840D01*
X111601811Y-103164878D01*
X111606383Y-103170751D01*
X111643566Y-103204981D01*
X111645421Y-103206760D01*
X112142144Y-103703483D01*
X112633810Y-104195149D01*
X112667836Y-104257461D01*
X112670715Y-104284244D01*
X112670715Y-104290000D01*
X112689771Y-104434752D01*
X112745644Y-104569641D01*
X112745649Y-104569649D01*
X112834525Y-104685474D01*
X112950350Y-104774350D01*
X112950357Y-104774355D01*
X113085246Y-104830228D01*
X113157622Y-104839756D01*
X113229999Y-104849285D01*
X113229999Y-104849284D01*
X113230000Y-104849285D01*
X113374754Y-104830228D01*
X113509643Y-104774355D01*
X113625474Y-104685474D01*
X113714355Y-104569643D01*
X113770228Y-104434754D01*
X113789285Y-104290000D01*
X113770228Y-104145246D01*
X113714355Y-104010358D01*
X113625474Y-103894526D01*
X113625472Y-103894524D01*
X113625471Y-103894523D01*
X113509649Y-103805649D01*
X113509641Y-103805644D01*
X113374752Y-103749771D01*
X113230000Y-103730715D01*
X113224245Y-103730715D01*
X113156124Y-103710713D01*
X113135149Y-103693810D01*
X112711515Y-103270176D01*
X112281404Y-102840064D01*
X112247379Y-102777752D01*
X112244500Y-102750969D01*
X112244500Y-101999834D01*
X112247182Y-101973974D01*
X112249095Y-101964853D01*
X112244983Y-101931866D01*
X112244500Y-101924076D01*
X112244500Y-101920627D01*
X112244500Y-101920623D01*
X112241081Y-101900138D01*
X112240712Y-101897602D01*
X112237954Y-101875474D01*
X112234461Y-101847449D01*
X112234459Y-101847446D01*
X112232341Y-101840330D01*
X112229929Y-101833305D01*
X112229929Y-101833302D01*
X112214745Y-101805245D01*
X112205872Y-101788848D01*
X112204693Y-101786559D01*
X112182499Y-101741160D01*
X112182496Y-101741157D01*
X112178176Y-101735107D01*
X112173617Y-101729249D01*
X112167854Y-101723944D01*
X112136423Y-101695009D01*
X112134566Y-101693227D01*
X111955934Y-101514595D01*
X111921908Y-101452283D01*
X111926973Y-101381468D01*
X111969520Y-101324632D01*
X112036040Y-101299821D01*
X112045029Y-101299500D01*
X113012868Y-101299500D01*
X113018353Y-101299739D01*
X113059160Y-101303310D01*
X113098735Y-101292705D01*
X113104073Y-101291520D01*
X113144434Y-101284405D01*
X113144435Y-101284404D01*
X113144437Y-101284404D01*
X113149699Y-101282488D01*
X113166322Y-101275603D01*
X113171398Y-101273235D01*
X113171401Y-101273235D01*
X113204973Y-101249726D01*
X113209573Y-101246796D01*
X113245066Y-101226305D01*
X113271397Y-101194923D01*
X113275101Y-101190880D01*
X114019578Y-100446404D01*
X114081891Y-100412379D01*
X114108674Y-100409500D01*
X118414715Y-100409500D01*
X118482836Y-100429502D01*
G37*
%TD.AperFunction*%
%TA.AperFunction,Conductor*%
G36*
X129653080Y-101619502D02*
G01*
X129699573Y-101673158D01*
X129709677Y-101743432D01*
X129684922Y-101802202D01*
X129678765Y-101810228D01*
X129655646Y-101840356D01*
X129655645Y-101840358D01*
X129637361Y-101884500D01*
X129599771Y-101975247D01*
X129580715Y-102119999D01*
X129580715Y-102120000D01*
X129599771Y-102264752D01*
X129655644Y-102399641D01*
X129655649Y-102399649D01*
X129744525Y-102515474D01*
X129860350Y-102604350D01*
X129860357Y-102604355D01*
X129995246Y-102660228D01*
X130057547Y-102668430D01*
X130139999Y-102679285D01*
X130139999Y-102679284D01*
X130140000Y-102679285D01*
X130160838Y-102676541D01*
X130230986Y-102687477D01*
X130266383Y-102712366D01*
X130357176Y-102803160D01*
X130423666Y-102869650D01*
X130427380Y-102873703D01*
X130453706Y-102905077D01*
X130489168Y-102925551D01*
X130489170Y-102925552D01*
X130493805Y-102928506D01*
X130513806Y-102942509D01*
X130527371Y-102952007D01*
X130527373Y-102952007D01*
X130532421Y-102954362D01*
X130549090Y-102961266D01*
X130554334Y-102963175D01*
X130554338Y-102963177D01*
X130594697Y-102970292D01*
X130600024Y-102971473D01*
X130639612Y-102982082D01*
X130666705Y-102979711D01*
X130680426Y-102978512D01*
X130685918Y-102978272D01*
X131624096Y-102978272D01*
X131629581Y-102978511D01*
X131670388Y-102982082D01*
X131709963Y-102971477D01*
X131715301Y-102970292D01*
X131755662Y-102963177D01*
X131755663Y-102963176D01*
X131755665Y-102963176D01*
X131760927Y-102961260D01*
X131777550Y-102954375D01*
X131782626Y-102952007D01*
X131782629Y-102952007D01*
X131816201Y-102928498D01*
X131820801Y-102925568D01*
X131856294Y-102905077D01*
X131882631Y-102873688D01*
X131886323Y-102869658D01*
X132217470Y-102538511D01*
X132279780Y-102504487D01*
X132290105Y-102502688D01*
X132384754Y-102490228D01*
X132519643Y-102434355D01*
X132635474Y-102345474D01*
X132724355Y-102229643D01*
X132754501Y-102156863D01*
X132799048Y-102101583D01*
X132866411Y-102079162D01*
X132935202Y-102096720D01*
X132960004Y-102115986D01*
X134394894Y-103550877D01*
X134398598Y-103554919D01*
X134424934Y-103586305D01*
X134460411Y-103606787D01*
X134465042Y-103609738D01*
X134498599Y-103633235D01*
X134498601Y-103633235D01*
X134503663Y-103635596D01*
X134520308Y-103642491D01*
X134525562Y-103644403D01*
X134525566Y-103644405D01*
X134565925Y-103651520D01*
X134571252Y-103652701D01*
X134610840Y-103663310D01*
X134651646Y-103659739D01*
X134657132Y-103659500D01*
X136086335Y-103659500D01*
X136154456Y-103679502D01*
X136200949Y-103733158D01*
X136212335Y-103785367D01*
X136213266Y-104669367D01*
X136193336Y-104737509D01*
X136139729Y-104784058D01*
X136087266Y-104795500D01*
X135900451Y-104795500D01*
X135832330Y-104775498D01*
X135811355Y-104758595D01*
X135680001Y-104627241D01*
X135521930Y-104469169D01*
X135517218Y-104463896D01*
X135492632Y-104433064D01*
X135444010Y-104399914D01*
X135442089Y-104398551D01*
X135394777Y-104363634D01*
X135394773Y-104363631D01*
X135394768Y-104363629D01*
X135387138Y-104359596D01*
X135379426Y-104355883D01*
X135323215Y-104338545D01*
X135320976Y-104337808D01*
X135265450Y-104318378D01*
X135257021Y-104316783D01*
X135248505Y-104315500D01*
X135189690Y-104315500D01*
X135187334Y-104315456D01*
X135128535Y-104313255D01*
X135119152Y-104314313D01*
X135119056Y-104313461D01*
X135103573Y-104315500D01*
X133262705Y-104315500D01*
X133194584Y-104295498D01*
X133173614Y-104278599D01*
X133038422Y-104143407D01*
X133038421Y-104143406D01*
X133036051Y-104141036D01*
X133036040Y-104141026D01*
X132887952Y-103992938D01*
X132883250Y-103987676D01*
X132858656Y-103956836D01*
X132853731Y-103953478D01*
X132810043Y-103923691D01*
X132808122Y-103922328D01*
X132760797Y-103887401D01*
X132753202Y-103883388D01*
X132745451Y-103879655D01*
X132689241Y-103862316D01*
X132687005Y-103861580D01*
X132631478Y-103842151D01*
X132623037Y-103840553D01*
X132614531Y-103839272D01*
X132614530Y-103839272D01*
X132555698Y-103839272D01*
X132553343Y-103839228D01*
X132494560Y-103837028D01*
X132485181Y-103838086D01*
X132485084Y-103837234D01*
X132469603Y-103839272D01*
X129875302Y-103839272D01*
X129868245Y-103838876D01*
X129829042Y-103834459D01*
X129829041Y-103834459D01*
X129771233Y-103845396D01*
X129768913Y-103845790D01*
X129710746Y-103854558D01*
X129702566Y-103857081D01*
X129694419Y-103859931D01*
X129642403Y-103887422D01*
X129640302Y-103888482D01*
X129587309Y-103914003D01*
X129580194Y-103918854D01*
X129573287Y-103923951D01*
X129531696Y-103965542D01*
X129530001Y-103967175D01*
X129486872Y-104007194D01*
X129480985Y-104014577D01*
X129480317Y-104014044D01*
X129470810Y-104026428D01*
X128965197Y-104532040D01*
X128959927Y-104536750D01*
X128929089Y-104561343D01*
X128895946Y-104609954D01*
X128894584Y-104611872D01*
X128859656Y-104659201D01*
X128855620Y-104666837D01*
X128851909Y-104674544D01*
X128834567Y-104730767D01*
X128833831Y-104733005D01*
X128814403Y-104788526D01*
X128812807Y-104796957D01*
X128811525Y-104805469D01*
X128811525Y-104864284D01*
X128811481Y-104866640D01*
X128809280Y-104925440D01*
X128810337Y-104934817D01*
X128809485Y-104934912D01*
X128811524Y-104950394D01*
X128811524Y-107136798D01*
X128791522Y-107204919D01*
X128774619Y-107225893D01*
X127544595Y-108455918D01*
X127482283Y-108489943D01*
X127411468Y-108484879D01*
X127354632Y-108442332D01*
X127329821Y-108375812D01*
X127329500Y-108366823D01*
X127329500Y-106250022D01*
X127349502Y-106181901D01*
X127403158Y-106135408D01*
X127473432Y-106125304D01*
X127488117Y-106128317D01*
X127495242Y-106130226D01*
X127495246Y-106130228D01*
X127640000Y-106149285D01*
X127784754Y-106130228D01*
X127919643Y-106074355D01*
X128035474Y-105985474D01*
X128124355Y-105869643D01*
X128180228Y-105734754D01*
X128199285Y-105590000D01*
X128180228Y-105445246D01*
X128124355Y-105310358D01*
X128035474Y-105194526D01*
X128035472Y-105194524D01*
X128035471Y-105194523D01*
X127919649Y-105105649D01*
X127919641Y-105105644D01*
X127784752Y-105049771D01*
X127640001Y-105030715D01*
X127639998Y-105030715D01*
X127603428Y-105035529D01*
X127533279Y-105024589D01*
X127497888Y-104999702D01*
X124484615Y-101986430D01*
X124450589Y-101924118D01*
X124455654Y-101853303D01*
X124498201Y-101796467D01*
X124525487Y-101780929D01*
X124589643Y-101754355D01*
X124705474Y-101665474D01*
X124718272Y-101648795D01*
X124775609Y-101606929D01*
X124818234Y-101599500D01*
X129584959Y-101599500D01*
X129653080Y-101619502D01*
G37*
%TD.AperFunction*%
%TA.AperFunction,Conductor*%
G36*
X135586939Y-95061094D02*
G01*
X135633750Y-95114473D01*
X135645449Y-95167495D01*
X135645449Y-100815944D01*
X135625447Y-100884065D01*
X135571791Y-100930558D01*
X135502994Y-100940449D01*
X135502942Y-100940850D01*
X135471343Y-100936690D01*
X135350000Y-100920715D01*
X135205247Y-100939771D01*
X135167046Y-100955595D01*
X135070358Y-100995645D01*
X135070357Y-100995646D01*
X135070356Y-100995646D01*
X134954526Y-101084526D01*
X134865646Y-101200356D01*
X134865645Y-101200358D01*
X134846417Y-101246779D01*
X134809771Y-101335247D01*
X134790715Y-101479999D01*
X134790715Y-101480000D01*
X134809771Y-101624752D01*
X134865644Y-101759641D01*
X134865649Y-101759649D01*
X134954525Y-101875474D01*
X135070350Y-101964350D01*
X135070357Y-101964355D01*
X135205246Y-102020228D01*
X135350000Y-102039285D01*
X135494754Y-102020228D01*
X135629643Y-101964355D01*
X135629700Y-101964310D01*
X135629753Y-101964290D01*
X135636797Y-101960224D01*
X135637430Y-101961322D01*
X135695920Y-101938709D01*
X135706406Y-101938272D01*
X135853322Y-101938272D01*
X135921443Y-101958274D01*
X135942417Y-101975177D01*
X136173862Y-102206622D01*
X136207888Y-102268934D01*
X136210767Y-102295584D01*
X136211377Y-102874367D01*
X136191447Y-102942509D01*
X136137840Y-102989058D01*
X136085377Y-103000500D01*
X134828673Y-103000500D01*
X134760552Y-102980498D01*
X134739578Y-102963595D01*
X132825115Y-101049132D01*
X132821400Y-101045079D01*
X132808530Y-101029741D01*
X132795066Y-101013695D01*
X132759589Y-100993212D01*
X132754957Y-100990261D01*
X132721401Y-100966765D01*
X132721397Y-100966762D01*
X132716367Y-100964416D01*
X132699664Y-100957498D01*
X132694430Y-100955593D01*
X132654091Y-100948480D01*
X132648725Y-100947290D01*
X132609164Y-100936690D01*
X132609158Y-100936690D01*
X132597409Y-100937718D01*
X132568352Y-100940260D01*
X132562868Y-100940500D01*
X124818234Y-100940500D01*
X124750113Y-100920498D01*
X124718272Y-100891205D01*
X124705474Y-100874526D01*
X124705472Y-100874524D01*
X124705471Y-100874523D01*
X124589649Y-100785649D01*
X124589641Y-100785644D01*
X124454752Y-100729771D01*
X124310000Y-100710715D01*
X124165247Y-100729771D01*
X124106506Y-100754103D01*
X124030358Y-100785645D01*
X124030357Y-100785646D01*
X124030356Y-100785646D01*
X123914526Y-100874526D01*
X123825646Y-100990356D01*
X123825643Y-100990361D01*
X123799072Y-101054508D01*
X123754523Y-101109788D01*
X123687159Y-101132208D01*
X123618368Y-101114649D01*
X123593568Y-101095383D01*
X123575382Y-101077197D01*
X123436404Y-100938218D01*
X123402379Y-100875906D01*
X123399500Y-100849123D01*
X123399500Y-96128674D01*
X123419502Y-96060553D01*
X123436405Y-96039578D01*
X124099580Y-95376404D01*
X124161892Y-95342379D01*
X124188675Y-95339500D01*
X126052868Y-95339500D01*
X126058353Y-95339739D01*
X126099160Y-95343310D01*
X126138735Y-95332705D01*
X126144073Y-95331520D01*
X126184434Y-95324405D01*
X126184435Y-95324404D01*
X126184437Y-95324404D01*
X126189699Y-95322488D01*
X126206322Y-95315603D01*
X126211398Y-95313235D01*
X126211401Y-95313235D01*
X126244973Y-95289726D01*
X126249573Y-95286796D01*
X126285066Y-95266305D01*
X126311397Y-95234923D01*
X126315101Y-95230880D01*
X126414013Y-95131968D01*
X126476321Y-95097946D01*
X126502349Y-95095068D01*
X127133752Y-95091317D01*
X127201990Y-95110914D01*
X127248801Y-95164293D01*
X127260500Y-95217315D01*
X127260500Y-98681326D01*
X127240498Y-98749447D01*
X127223599Y-98770416D01*
X127109768Y-98884248D01*
X127029131Y-98964885D01*
X127025078Y-98968599D01*
X126993693Y-98994934D01*
X126991393Y-98997676D01*
X126943095Y-99033089D01*
X126840358Y-99075645D01*
X126840357Y-99075646D01*
X126840356Y-99075646D01*
X126724526Y-99164526D01*
X126635646Y-99280356D01*
X126635645Y-99280358D01*
X126607708Y-99347801D01*
X126579771Y-99415247D01*
X126560715Y-99559999D01*
X126560715Y-99560000D01*
X126579771Y-99704752D01*
X126635644Y-99839641D01*
X126635649Y-99839649D01*
X126724525Y-99955474D01*
X126840350Y-100044350D01*
X126840357Y-100044355D01*
X126975246Y-100100228D01*
X127120000Y-100119285D01*
X127264754Y-100100228D01*
X127277551Y-100094926D01*
X127348140Y-100087337D01*
X127411628Y-100119115D01*
X127434892Y-100148339D01*
X127435645Y-100149644D01*
X127524525Y-100265474D01*
X127640350Y-100354350D01*
X127640357Y-100354355D01*
X127775246Y-100410228D01*
X127920000Y-100429285D01*
X128064754Y-100410228D01*
X128199643Y-100354355D01*
X128315474Y-100265474D01*
X128404355Y-100149643D01*
X128420809Y-100109919D01*
X128465354Y-100054641D01*
X128532717Y-100032219D01*
X128553660Y-100033216D01*
X128619365Y-100041867D01*
X128764119Y-100022810D01*
X128899008Y-99966937D01*
X129014839Y-99878056D01*
X129103720Y-99762225D01*
X129159593Y-99627336D01*
X129178650Y-99482582D01*
X129159593Y-99337828D01*
X129103720Y-99202940D01*
X129014839Y-99087108D01*
X128966098Y-99049707D01*
X128928041Y-98997587D01*
X128927258Y-98997953D01*
X128925402Y-98993974D01*
X128924233Y-98992372D01*
X128923369Y-98989612D01*
X128922600Y-98987964D01*
X128909040Y-98968599D01*
X128899097Y-98954398D01*
X128896156Y-98949782D01*
X128875670Y-98914299D01*
X128844281Y-98887960D01*
X128840241Y-98884258D01*
X128656403Y-98700420D01*
X128622377Y-98638108D01*
X128619499Y-98611334D01*
X128619499Y-98215729D01*
X128639500Y-98147612D01*
X128693156Y-98101119D01*
X128763430Y-98091015D01*
X128812387Y-98111636D01*
X128813203Y-98110224D01*
X128820353Y-98114352D01*
X128820357Y-98114355D01*
X128955246Y-98170228D01*
X129024877Y-98179395D01*
X129099999Y-98189285D01*
X129099999Y-98189284D01*
X129100000Y-98189285D01*
X129244754Y-98170228D01*
X129379643Y-98114355D01*
X129495474Y-98025474D01*
X129584355Y-97909643D01*
X129640228Y-97774754D01*
X129659285Y-97630000D01*
X129640228Y-97485246D01*
X129584355Y-97350358D01*
X129495474Y-97234526D01*
X129495472Y-97234524D01*
X129495471Y-97234523D01*
X129379649Y-97145649D01*
X129379646Y-97145647D01*
X129379643Y-97145645D01*
X129244754Y-97089772D01*
X129244752Y-97089771D01*
X129244748Y-97089770D01*
X129242882Y-97089270D01*
X129241485Y-97088418D01*
X129237124Y-97086612D01*
X129237405Y-97085931D01*
X129182261Y-97052315D01*
X129151243Y-96988453D01*
X129149500Y-96967565D01*
X129149500Y-95204593D01*
X129169502Y-95136472D01*
X129223158Y-95089979D01*
X129274743Y-95078596D01*
X135518705Y-95041498D01*
X135586939Y-95061094D01*
G37*
%TD.AperFunction*%
%TA.AperFunction,Conductor*%
G36*
X119994474Y-95159502D02*
G01*
X120015448Y-95176405D01*
X120953595Y-96114552D01*
X120987621Y-96176864D01*
X120990500Y-96203647D01*
X120990500Y-97798765D01*
X120970498Y-97866886D01*
X120916842Y-97913379D01*
X120848054Y-97923687D01*
X120741109Y-97909608D01*
X120741104Y-97909608D01*
X120667552Y-97919290D01*
X120628526Y-97915028D01*
X120628001Y-97918008D01*
X120576805Y-97908980D01*
X120571439Y-97907790D01*
X120531878Y-97897190D01*
X120531872Y-97897190D01*
X120520123Y-97898218D01*
X120491066Y-97900760D01*
X120485582Y-97901000D01*
X118656632Y-97901000D01*
X118651147Y-97900760D01*
X118622090Y-97898218D01*
X118610342Y-97897190D01*
X118610335Y-97897190D01*
X118570776Y-97907790D01*
X118565409Y-97908980D01*
X118525069Y-97916093D01*
X118519863Y-97917988D01*
X118503128Y-97924920D01*
X118498101Y-97927264D01*
X118498099Y-97927265D01*
X118489910Y-97932998D01*
X118464537Y-97950763D01*
X118459904Y-97953714D01*
X118424436Y-97974193D01*
X118424434Y-97974194D01*
X118398107Y-98005568D01*
X118394394Y-98009620D01*
X118289666Y-98114350D01*
X118214732Y-98189285D01*
X118185328Y-98218689D01*
X118123016Y-98252714D01*
X118096232Y-98255594D01*
X116021116Y-98255594D01*
X115952995Y-98235592D01*
X115906502Y-98181936D01*
X115896398Y-98111662D01*
X115904708Y-98081375D01*
X115919980Y-98044506D01*
X115939037Y-97899752D01*
X115919980Y-97754998D01*
X115864107Y-97620110D01*
X115830914Y-97576852D01*
X115805313Y-97510632D01*
X115819577Y-97441083D01*
X115854168Y-97400189D01*
X115925474Y-97345474D01*
X116014355Y-97229643D01*
X116070228Y-97094754D01*
X116089285Y-96950000D01*
X116070228Y-96805246D01*
X116014355Y-96670358D01*
X115925474Y-96554526D01*
X115925472Y-96554524D01*
X115925471Y-96554523D01*
X115809649Y-96465649D01*
X115809641Y-96465644D01*
X115674749Y-96409770D01*
X115674751Y-96409770D01*
X115666573Y-96408694D01*
X115601647Y-96379969D01*
X115562557Y-96320703D01*
X115561715Y-96249711D01*
X115566612Y-96235563D01*
X115600127Y-96154653D01*
X115619184Y-96009899D01*
X115600127Y-95865145D01*
X115544254Y-95730257D01*
X115455373Y-95614425D01*
X115455371Y-95614423D01*
X115455370Y-95614422D01*
X115339548Y-95525548D01*
X115339540Y-95525543D01*
X115204651Y-95469670D01*
X115059900Y-95450614D01*
X115059899Y-95450614D01*
X115039049Y-95453358D01*
X114968901Y-95442415D01*
X114933513Y-95417530D01*
X114894587Y-95378604D01*
X114860561Y-95316292D01*
X114865626Y-95245477D01*
X114908173Y-95188641D01*
X114974693Y-95163830D01*
X114982933Y-95163511D01*
X119024292Y-95139500D01*
X119926353Y-95139500D01*
X119994474Y-95159502D01*
G37*
%TD.AperFunction*%
%TA.AperFunction,Conductor*%
G36*
X114329448Y-95749502D02*
G01*
X114350422Y-95766405D01*
X114467530Y-95883513D01*
X114501556Y-95945825D01*
X114503358Y-95989049D01*
X114500614Y-96009898D01*
X114500614Y-96009900D01*
X114519670Y-96154651D01*
X114575543Y-96289540D01*
X114575548Y-96289548D01*
X114664424Y-96405373D01*
X114780249Y-96494249D01*
X114780256Y-96494254D01*
X114915145Y-96550127D01*
X114923319Y-96551203D01*
X114988246Y-96579924D01*
X115027339Y-96639189D01*
X115028184Y-96710180D01*
X115023283Y-96724343D01*
X115019814Y-96732718D01*
X114975266Y-96787999D01*
X114907903Y-96810420D01*
X114903405Y-96810500D01*
X111016316Y-96810500D01*
X110948195Y-96790498D01*
X110901702Y-96736842D01*
X110890316Y-96684282D01*
X110890316Y-96684219D01*
X110890331Y-96676202D01*
X110910450Y-96608121D01*
X110946761Y-96573562D01*
X110946619Y-96573393D01*
X110949323Y-96571123D01*
X110953338Y-96567302D01*
X110955066Y-96566305D01*
X110981397Y-96534923D01*
X110985101Y-96530880D01*
X111749578Y-95766404D01*
X111811891Y-95732379D01*
X111838674Y-95729500D01*
X114261327Y-95729500D01*
X114329448Y-95749502D01*
G37*
%TD.AperFunction*%
%TD*%
%TA.AperFunction,Conductor*%
%TO.N,GND*%
G36*
X140102304Y-91419971D02*
G01*
X140266816Y-91434350D01*
X140289044Y-91438325D01*
X140440135Y-91479608D01*
X140461295Y-91487489D01*
X140602574Y-91555084D01*
X140621989Y-91566616D01*
X140654653Y-91590223D01*
X140660909Y-91594744D01*
X140665340Y-91598260D01*
X141766670Y-92555603D01*
X143139979Y-93749367D01*
X143143179Y-93752148D01*
X143148044Y-93756859D01*
X143201985Y-93815040D01*
X143216078Y-93830240D01*
X143232241Y-93851950D01*
X143327459Y-94013581D01*
X143338613Y-94038242D01*
X143397115Y-94216480D01*
X143402745Y-94242955D01*
X143422869Y-94439736D01*
X143423195Y-94446509D01*
X143386258Y-100916694D01*
X143385919Y-100922876D01*
X143367168Y-101102580D01*
X143362203Y-101126795D01*
X143311486Y-101290476D01*
X143301888Y-101313258D01*
X143220191Y-101463880D01*
X143206329Y-101484350D01*
X143096793Y-101616124D01*
X143079203Y-101633492D01*
X142946046Y-101741344D01*
X142925403Y-101754943D01*
X142773751Y-101834721D01*
X142750848Y-101844029D01*
X142586540Y-101892660D01*
X142562263Y-101897317D01*
X142430848Y-101909342D01*
X142382332Y-101913781D01*
X142376164Y-101914041D01*
X141901742Y-101910717D01*
X141705431Y-101909342D01*
X141637452Y-101888863D01*
X141591336Y-101834883D01*
X141581725Y-101764540D01*
X141606240Y-101708372D01*
X141606052Y-101708254D01*
X141606839Y-101707000D01*
X141607811Y-101704775D01*
X141609806Y-101702271D01*
X141609816Y-101702262D01*
X141705789Y-101549522D01*
X141765368Y-101379255D01*
X141785565Y-101200000D01*
X141765368Y-101020745D01*
X141705789Y-100850478D01*
X141705787Y-100850475D01*
X141705787Y-100850474D01*
X141609817Y-100697739D01*
X141609816Y-100697737D01*
X141482262Y-100570183D01*
X141482260Y-100570182D01*
X141329525Y-100474212D01*
X141329522Y-100474211D01*
X141329522Y-100474210D01*
X141159255Y-100414632D01*
X140980000Y-100394435D01*
X140979999Y-100394435D01*
X140953926Y-100397372D01*
X140800745Y-100414632D01*
X140800742Y-100414632D01*
X140800742Y-100414633D01*
X140630477Y-100474211D01*
X140630474Y-100474212D01*
X140477741Y-100570181D01*
X140477738Y-100570183D01*
X140477738Y-100570184D01*
X140435325Y-100612596D01*
X140373017Y-100646620D01*
X140346232Y-100649500D01*
X138390926Y-100649500D01*
X138322805Y-100629498D01*
X138301830Y-100612595D01*
X137817404Y-100128168D01*
X137783379Y-100065856D01*
X137780500Y-100039073D01*
X137780500Y-93753501D01*
X137781040Y-93745269D01*
X137785683Y-93710000D01*
X137765044Y-93553239D01*
X137704537Y-93407162D01*
X137704536Y-93407159D01*
X137685169Y-93381919D01*
X137685167Y-93381916D01*
X137685167Y-93381915D01*
X137608283Y-93281719D01*
X137580055Y-93260058D01*
X137573861Y-93254626D01*
X136328687Y-92009452D01*
X136294661Y-91947140D01*
X136299726Y-91876325D01*
X136320465Y-91840324D01*
X136411670Y-91729422D01*
X136429068Y-91712045D01*
X136560912Y-91603891D01*
X136581362Y-91590223D01*
X136731701Y-91509752D01*
X136754404Y-91500321D01*
X136917533Y-91450590D01*
X136941632Y-91445752D01*
X137120524Y-91427737D01*
X137126676Y-91427420D01*
X140096665Y-91419733D01*
X140102304Y-91419971D01*
G37*
%TD.AperFunction*%
%TD*%
D44*
X78500000Y-120590000D02*
X133250000Y-120550000D01*
X62619999Y-109620000D02*
G75*
G03*
X78500000Y-120589999I16188051J6454750D01*
G01*
X133250000Y-120550012D02*
G75*
G03*
X133790000Y-120439999I20800J1278212D01*
G01*
X216697100Y-97173020D02*
X226565000Y-103330000D01*
X53290000Y-109620000D02*
X53280000Y-105030000D01*
X86130000Y-85480000D02*
X78780000Y-85490000D01*
D45*
X78780000Y-85489997D02*
G75*
G03*
X62620000Y-96260000I30320J-17554243D01*
G01*
D44*
X86130000Y-85480000D02*
X133230000Y-85460000D01*
X216697110Y-97173004D02*
G75*
G03*
X216016210Y-96980001I-673110J-1077096D01*
G01*
X53290000Y-96260000D02*
X62620000Y-96260000D01*
X147259825Y-110693771D02*
X216016200Y-110696000D01*
X216016210Y-110695995D02*
G75*
G03*
X216697100Y-110502980I7790J1269995D01*
G01*
X226565000Y-104346000D02*
G75*
G03*
X226565000Y-103330000I-380600J508000D01*
G01*
X133790000Y-120440000D02*
X146744025Y-110803232D01*
X216697100Y-110502980D02*
X226565000Y-104346000D01*
X53280000Y-101530000D02*
X53290000Y-96260000D01*
X146744032Y-96868294D02*
G75*
G03*
X147259825Y-96977772I515768J1160194D01*
G01*
X147259825Y-110693769D02*
G75*
G03*
X146744025Y-110803232I75J-1270331D01*
G01*
X147259825Y-96977772D02*
X216016200Y-96980000D01*
X62620000Y-109620000D02*
X53290000Y-109620000D01*
X133745800Y-85569461D02*
X146744025Y-96868311D01*
X91110000Y-103120000D02*
G75*
G03*
X91110000Y-103120000I-12500000J0D01*
G01*
X133745796Y-85569469D02*
G75*
G03*
X133230000Y-85460000I-515796J-1160431D01*
G01*
D45*
%TO.C,SMA1*%
X53280000Y-101530000D02*
X57780000Y-101530000D01*
X57780000Y-101530000D02*
X57780000Y-105030000D01*
X57780000Y-105030000D02*
X53280000Y-105030000D01*
%TD*%
M02*
