M48
; DRILL file {KiCad 7.0.5} date Fri Jun  2 10:04:06 2023
; FORMAT={-:-/ absolute / inch / decimal}
; #@! TF.CreationDate,2023-06-02T10:04:06+02:00
; #@! TF.GenerationSoftware,Kicad,Pcbnew,7.0.5
; #@! TF.FileFunction,Plated,1,2,PTH
FMAT,2
INCH
; #@! TA.AperFunction,Plated,PTH,ViaDrill
T1C0.0157
; #@! TA.AperFunction,Plated,PTH,ComponentDrill
T2C0.0256
; #@! TA.AperFunction,Plated,PTH,ComponentDrill
T3C0.0630
%
G90
G05
T1
X2.8409Y-3.4567
X2.8803Y-4.5683
X2.8811Y-3.535
X2.9287Y-4.6341
X2.9909Y-4.6461
X3.2993Y-4.6955
X3.3382Y-4.6039
X3.5295Y-4.6583
X3.5524Y-4.5102
X3.6307Y-4.3283
X3.7083Y-4.4236
X3.7664Y-3.4764
X3.7742Y-3.44
X3.8051Y-4.2516
X3.8169Y-3.878
X3.8319Y-3.9441
X3.8346Y-4.1433
X3.8346Y-4.213
X3.8675Y-3.8736
X3.8728Y-3.748
X3.9059Y-4.2205
X3.9154Y-3.9303
X3.9169Y-3.978
X3.9299Y-3.8728
X3.9356Y-4.1971
X3.9504Y-4.1346
X3.9516Y-4.0886
X3.9665Y-3.8335
X3.9685Y-4.1713
X3.9752Y-3.8776
X4.0075Y-3.8193
X4.0083Y-4.0051
X4.0496Y-3.4146
X4.0567Y-4.0051
X4.0795Y-3.548
X4.0984Y-4.2492
X4.1065Y-4.0096
X4.1138Y-3.739
X4.1232Y-3.5746
X4.2862Y-4.1502
X4.2925Y-4.2146
X4.2957Y-3.7917
X4.2968Y-4.0042
X4.3146Y-4.1675
X4.3161Y-3.6209
X4.3386Y-3.7618
X4.3402Y-4.1412
X4.3403Y-4.022
X4.3567Y-3.3961
X4.3581Y-3.6917
X4.3689Y-4.2409
X4.3693Y-4.3268
X4.3728Y-4.5331
X4.3752Y-4.0996
X4.3846Y-3.799
X4.4579Y-4.1059
X4.5134Y-3.7165
X4.5199Y-4.4918
X4.5299Y-3.7799
X4.5319Y-4.3811
X4.5425Y-3.8543
X4.5484Y-3.8169
X4.555Y-4.0403
X4.5618Y-4.7106
X4.5782Y-4.0126
X4.5803Y-4.1657
X4.5878Y-3.7571
X4.5932Y-4.0714
X4.5992Y-4.2626
X4.6063Y-4.2945
X4.6078Y-4.3475
X4.6413Y-4.3
X4.6487Y-4.3582
X4.6512Y-3.7094
X4.661Y-4.4327
X4.6809Y-4.0092
X4.6817Y-4.4644
X4.6856Y-3.89
X4.689Y-3.9583
X4.6923Y-4.4114
X4.6984Y-4.1409
X4.7222Y-4.467
X4.7241Y-3.924
X4.7438Y-3.9566
X4.7476Y-3.5394
X4.7514Y-4.3811
X4.7531Y-4.7189
X4.7536Y-3.8767
X4.7634Y-4.2071
X4.7709Y-3.7134
X4.7878Y-4.3803
X4.8232Y-3.698
X4.8449Y-4.3641
X4.8822Y-4.3161
X4.8929Y-4.5728
X4.8941Y-3.987
X4.8984Y-4.3431
X4.9101Y-4.5002
X4.9114Y-3.7098
X4.9327Y-4.3453
X4.9346Y-3.5563
X4.9969Y-3.7051
X5.0047Y-3.9197
X5.0252Y-4.1571
X5.0362Y-3.9319
X5.0409Y-4.4173
X5.0484Y-4.4937
X5.0638Y-3.9166
X5.0827Y-3.8437
X5.0996Y-4.3126
X5.1207Y-3.6781
X5.1213Y-3.5476
X5.1228Y-3.4823
X5.1236Y-4.0205
X5.1315Y-4.152
X5.1346Y-3.5839
X5.1661Y-4.1642
X5.1701Y-3.5906
X5.1709Y-4.3244
X5.1902Y-4.1984
X5.1941Y-3.4854
X5.1972Y-4.424
X5.2051Y-3.5906
X5.2063Y-4.0138
X5.2327Y-4.1535
X5.2358Y-3.7429
X5.2374Y-4.3165
X5.2591Y-3.5949
X5.2717Y-4.1555
X5.2723Y-4.0879
X5.3059Y-3.4587
X5.311Y-4.1689
X5.3287Y-3.9953
X5.3559Y-3.6949
X5.365Y-4.1083
X5.3937Y-4.5
X5.4063Y-4.1768
X5.4087Y-4.1098
X5.415Y-4.3067
X5.4882Y-4.1346
X5.5038Y-4.4852
X5.5092Y-4.412
X5.5492Y-3.8937
X5.5504Y-3.9843
X5.5713Y-4.4094
X5.6687Y-4.0281
T3
X2.3504Y-4.0717
T2
G00X3.8528Y-3.4898
M15
G01X3.8528Y-3.4661
M16
G05
G00X3.8528Y-3.6642
M15
G01X3.8528Y-3.6209
M16
G05
G00X4.1929Y-3.4898
M15
G01X4.1929Y-3.4661
M16
G05
G00X4.1929Y-3.6642
M15
G01X4.1929Y-3.6209
M16
G05
T0
M30
