%TF.GenerationSoftware,KiCad,Pcbnew,7.0.5*%
%TF.CreationDate,2023-06-02T10:04:05+02:00*%
%TF.ProjectId,esp32_soil_moisture_sensor,65737033-325f-4736-9f69-6c5f6d6f6973,5.3*%
%TF.SameCoordinates,Original*%
%TF.FileFunction,Drillmap*%
%TF.FilePolarity,Positive*%
%FSLAX45Y45*%
G04 Gerber Fmt 4.5, Leading zero omitted, Abs format (unit mm)*
G04 Created by KiCad (PCBNEW 7.0.5) date 2023-06-02 10:04:05*
%MOMM*%
%LPD*%
G01*
G04 APERTURE LIST*
%ADD10C,0.050000*%
%ADD11C,0.100000*%
%ADD12C,0.200000*%
%ADD13C,0.040000*%
%ADD14C,0.065000*%
%ADD15C,0.160000*%
G04 APERTURE END LIST*
D10*
X7850000Y-12059000D02*
X13325000Y-12055000D01*
X6262000Y-10962000D02*
G75*
G03*
X7850000Y-12059000I1618805J645475D01*
G01*
X13325000Y-12055001D02*
G75*
G03*
X13379000Y-12044000I2080J127821D01*
G01*
X21669710Y-9717302D02*
X22656500Y-10333000D01*
X5329000Y-10962000D02*
X5328000Y-10503000D01*
X8613000Y-8548000D02*
X7878000Y-8549000D01*
D11*
X7878000Y-8549000D02*
G75*
G03*
X6262000Y-9626000I3032J-1755424D01*
G01*
D10*
X8613000Y-8548000D02*
X13323000Y-8546000D01*
X21669711Y-9717300D02*
G75*
G03*
X21601621Y-9698000I-67311J-107710D01*
G01*
X5329000Y-9626000D02*
X6262000Y-9626000D01*
X14725982Y-11069377D02*
X21601620Y-11069600D01*
X21601621Y-11069600D02*
G75*
G03*
X21669710Y-11050298I779J127000D01*
G01*
X22656500Y-10434600D02*
G75*
G03*
X22656500Y-10333000I-38060J50800D01*
G01*
X13379000Y-12044000D02*
X14674402Y-11080323D01*
X21669710Y-11050298D02*
X22656500Y-10434600D01*
X5328000Y-10153000D02*
X5329000Y-9626000D01*
X14674403Y-9686829D02*
G75*
G03*
X14725982Y-9697777I51577J116019D01*
G01*
X14725982Y-11069377D02*
G75*
G03*
X14674402Y-11080323I8J-127033D01*
G01*
X14725982Y-9697777D02*
X21601620Y-9698000D01*
X6262000Y-10962000D02*
X5329000Y-10962000D01*
X13374580Y-8556946D02*
X14674402Y-9686831D01*
X9111000Y-10312000D02*
G75*
G03*
X9111000Y-10312000I-1250000J0D01*
G01*
X13374580Y-8556947D02*
G75*
G03*
X13323000Y-8546000I-51580J-116043D01*
G01*
D12*
D13*
X7196000Y-8760000D02*
X7236000Y-8800000D01*
X7236000Y-8760000D02*
X7196000Y-8800000D01*
X7296000Y-11583550D02*
X7336000Y-11623550D01*
X7336000Y-11583550D02*
X7296000Y-11623550D01*
X7298000Y-8959000D02*
X7338000Y-8999000D01*
X7338000Y-8959000D02*
X7298000Y-8999000D01*
X7419000Y-11750550D02*
X7459000Y-11790550D01*
X7459000Y-11750550D02*
X7419000Y-11790550D01*
X7577000Y-11781000D02*
X7617000Y-11821000D01*
X7617000Y-11781000D02*
X7577000Y-11821000D01*
X8360102Y-11906652D02*
X8400102Y-11946652D01*
X8400102Y-11906652D02*
X8360102Y-11946652D01*
X8459000Y-11674000D02*
X8499000Y-11714000D01*
X8499000Y-11674000D02*
X8459000Y-11714000D01*
X8945000Y-11812000D02*
X8985000Y-11852000D01*
X8985000Y-11812000D02*
X8945000Y-11852000D01*
X9003000Y-11436000D02*
X9043000Y-11476000D01*
X9043000Y-11436000D02*
X9003000Y-11476000D01*
X9202000Y-10974000D02*
X9242000Y-11014000D01*
X9242000Y-10974000D02*
X9202000Y-11014000D01*
X9399000Y-11216000D02*
X9439000Y-11256000D01*
X9439000Y-11216000D02*
X9399000Y-11256000D01*
X9546550Y-8810000D02*
X9586550Y-8850000D01*
X9586550Y-8810000D02*
X9546550Y-8850000D01*
X9566500Y-8717500D02*
X9606500Y-8757500D01*
X9606500Y-8717500D02*
X9566500Y-8757500D01*
X9645000Y-10779000D02*
X9685000Y-10819000D01*
X9685000Y-10779000D02*
X9645000Y-10819000D01*
X9675000Y-9830000D02*
X9715000Y-9870000D01*
X9715000Y-9830000D02*
X9675000Y-9870000D01*
X9713000Y-9998000D02*
X9753000Y-10038000D01*
X9753000Y-9998000D02*
X9713000Y-10038000D01*
X9720000Y-10504000D02*
X9760000Y-10544000D01*
X9760000Y-10504000D02*
X9720000Y-10544000D01*
X9720000Y-10681000D02*
X9760000Y-10721000D01*
X9760000Y-10681000D02*
X9720000Y-10721000D01*
X9803522Y-9819000D02*
X9843522Y-9859000D01*
X9843522Y-9819000D02*
X9803522Y-9859000D01*
X9817000Y-9500000D02*
X9857000Y-9540000D01*
X9857000Y-9500000D02*
X9817000Y-9540000D01*
X9901000Y-10700000D02*
X9941000Y-10740000D01*
X9941000Y-10700000D02*
X9901000Y-10740000D01*
X9925000Y-9963000D02*
X9965000Y-10003000D01*
X9965000Y-9963000D02*
X9925000Y-10003000D01*
X9929000Y-10084000D02*
X9969000Y-10124000D01*
X9969000Y-10084000D02*
X9929000Y-10124000D01*
X9962000Y-9817000D02*
X10002000Y-9857000D01*
X10002000Y-9817000D02*
X9962000Y-9857000D01*
X9976501Y-10640550D02*
X10016501Y-10680550D01*
X10016501Y-10640550D02*
X9976501Y-10680550D01*
X10014000Y-10482000D02*
X10054000Y-10522000D01*
X10054000Y-10482000D02*
X10014000Y-10522000D01*
X10017000Y-10365000D02*
X10057000Y-10405000D01*
X10057000Y-10365000D02*
X10017000Y-10405000D01*
X10055000Y-9717000D02*
X10095000Y-9757000D01*
X10095000Y-9717000D02*
X10055000Y-9757000D01*
X10060000Y-10575000D02*
X10100000Y-10615000D01*
X10100000Y-10575000D02*
X10060000Y-10615000D01*
X10077000Y-9829000D02*
X10117000Y-9869000D01*
X10117000Y-9829000D02*
X10077000Y-9869000D01*
X10159000Y-9681000D02*
X10199000Y-9721000D01*
X10199000Y-9681000D02*
X10159000Y-9721000D01*
X10161000Y-10153000D02*
X10201000Y-10193000D01*
X10201000Y-10153000D02*
X10161000Y-10193000D01*
X10266000Y-8653000D02*
X10306000Y-8693000D01*
X10306000Y-8653000D02*
X10266000Y-8693000D01*
X10284000Y-10153000D02*
X10324000Y-10193000D01*
X10324000Y-10153000D02*
X10284000Y-10193000D01*
X10342000Y-8992000D02*
X10382000Y-9032000D01*
X10382000Y-8992000D02*
X10342000Y-9032000D01*
X10390000Y-10773000D02*
X10430000Y-10813000D01*
X10430000Y-10773000D02*
X10390000Y-10813000D01*
X10410500Y-10164500D02*
X10450500Y-10204500D01*
X10450500Y-10164500D02*
X10410500Y-10204500D01*
X10429000Y-9477041D02*
X10469000Y-9517041D01*
X10469000Y-9477041D02*
X10429000Y-9517041D01*
X10453000Y-9059450D02*
X10493000Y-9099450D01*
X10493000Y-9059450D02*
X10453000Y-9099450D01*
X10867005Y-10521534D02*
X10907005Y-10561534D01*
X10907005Y-10521534D02*
X10867005Y-10561534D01*
X10883000Y-10685000D02*
X10923000Y-10725000D01*
X10923000Y-10685000D02*
X10883000Y-10725000D01*
X10891000Y-9611000D02*
X10931000Y-9651000D01*
X10931000Y-9611000D02*
X10891000Y-9651000D01*
X10893775Y-10150775D02*
X10933775Y-10190775D01*
X10933775Y-10150775D02*
X10893775Y-10190775D01*
X10939000Y-10565550D02*
X10979000Y-10605550D01*
X10979000Y-10565550D02*
X10939000Y-10605550D01*
X10943000Y-9177000D02*
X10983000Y-9217000D01*
X10983000Y-9177000D02*
X10943000Y-9217000D01*
X11000000Y-9535000D02*
X11040000Y-9575000D01*
X11040000Y-9535000D02*
X11000000Y-9575000D01*
X11004136Y-10498653D02*
X11044136Y-10538653D01*
X11044136Y-10498653D02*
X11004136Y-10538653D01*
X11004245Y-10195755D02*
X11044245Y-10235755D01*
X11044245Y-10195755D02*
X11004245Y-10235755D01*
X11046000Y-8606000D02*
X11086000Y-8646000D01*
X11086000Y-8606000D02*
X11046000Y-8646000D01*
X11049500Y-9357000D02*
X11089500Y-9397000D01*
X11089500Y-9357000D02*
X11049500Y-9397000D01*
X11077000Y-10752000D02*
X11117000Y-10792000D01*
X11117000Y-10752000D02*
X11077000Y-10792000D01*
X11078000Y-10970000D02*
X11118000Y-11010000D01*
X11118000Y-10970000D02*
X11078000Y-11010000D01*
X11087000Y-11494000D02*
X11127000Y-11534000D01*
X11127000Y-11494000D02*
X11087000Y-11534000D01*
X11093000Y-10393000D02*
X11133000Y-10433000D01*
X11133000Y-10393000D02*
X11093000Y-10433000D01*
X11116912Y-9629335D02*
X11156912Y-9669335D01*
X11156912Y-9629335D02*
X11116912Y-9669335D01*
X11303000Y-10409000D02*
X11343000Y-10449000D01*
X11343000Y-10409000D02*
X11303000Y-10449000D01*
X11444000Y-9420000D02*
X11484000Y-9460000D01*
X11484000Y-9420000D02*
X11444000Y-9460000D01*
X11460450Y-11389159D02*
X11500450Y-11429159D01*
X11500450Y-11389159D02*
X11460450Y-11429159D01*
X11485990Y-9580990D02*
X11525990Y-9620990D01*
X11525990Y-9580990D02*
X11485990Y-9620990D01*
X11491000Y-11108000D02*
X11531000Y-11148000D01*
X11531000Y-11108000D02*
X11491000Y-11148000D01*
X11517975Y-9769975D02*
X11557975Y-9809975D01*
X11557975Y-9769975D02*
X11517975Y-9809975D01*
X11533000Y-9675000D02*
X11573000Y-9715000D01*
X11573000Y-9675000D02*
X11533000Y-9715000D01*
X11549602Y-10242377D02*
X11589602Y-10282377D01*
X11589602Y-10242377D02*
X11549602Y-10282377D01*
X11567000Y-11945000D02*
X11607000Y-11985000D01*
X11607000Y-11945000D02*
X11567000Y-11985000D01*
X11608550Y-10172000D02*
X11648550Y-10212000D01*
X11648550Y-10172000D02*
X11608550Y-10212000D01*
X11613995Y-10560985D02*
X11653995Y-10600985D01*
X11653995Y-10560985D02*
X11613995Y-10600985D01*
X11633000Y-9523000D02*
X11673000Y-9563000D01*
X11673000Y-9523000D02*
X11633000Y-9563000D01*
X11646602Y-10321377D02*
X11686602Y-10361377D01*
X11686602Y-10321377D02*
X11646602Y-10361377D01*
X11662000Y-10807000D02*
X11702000Y-10847000D01*
X11702000Y-10807000D02*
X11662000Y-10847000D01*
X11680000Y-10887927D02*
X11720000Y-10927927D01*
X11720000Y-10887927D02*
X11680000Y-10927927D01*
X11683860Y-11022602D02*
X11723860Y-11062602D01*
X11723860Y-11022602D02*
X11683860Y-11062602D01*
X11769000Y-10902000D02*
X11809000Y-10942000D01*
X11809000Y-10902000D02*
X11769000Y-10942000D01*
X11787811Y-11049913D02*
X11827811Y-11089913D01*
X11827811Y-11049913D02*
X11787811Y-11089913D01*
X11794000Y-9402000D02*
X11834000Y-9442000D01*
X11834000Y-9402000D02*
X11794000Y-9442000D01*
X11819058Y-11239058D02*
X11859058Y-11279058D01*
X11859058Y-11239058D02*
X11819058Y-11279058D01*
X11869602Y-10163377D02*
X11909602Y-10203377D01*
X11909602Y-10163377D02*
X11869602Y-10203377D01*
X11871450Y-11319450D02*
X11911450Y-11359450D01*
X11911450Y-11319450D02*
X11871450Y-11359450D01*
X11881491Y-9860550D02*
X11921491Y-9900550D01*
X11921491Y-9860550D02*
X11881491Y-9900550D01*
X11890000Y-10034000D02*
X11930000Y-10074000D01*
X11930000Y-10034000D02*
X11890000Y-10074000D01*
X11898550Y-11185000D02*
X11938550Y-11225000D01*
X11938550Y-11185000D02*
X11898550Y-11225000D01*
X11914000Y-10498000D02*
X11954000Y-10538000D01*
X11954000Y-10498000D02*
X11914000Y-10538000D01*
X11974275Y-11326275D02*
X12014275Y-11366275D01*
X12014275Y-11326275D02*
X11974275Y-11366275D01*
X11979123Y-9946877D02*
X12019123Y-9986877D01*
X12019123Y-9946877D02*
X11979123Y-9986877D01*
X12029220Y-10029780D02*
X12069220Y-10069780D01*
X12069220Y-10029780D02*
X12029220Y-10069780D01*
X12039000Y-8970000D02*
X12079000Y-9010000D01*
X12079000Y-8970000D02*
X12039000Y-9010000D01*
X12048450Y-11108000D02*
X12088450Y-11148000D01*
X12088450Y-11108000D02*
X12048450Y-11148000D01*
X12053000Y-11966000D02*
X12093000Y-12006000D01*
X12093000Y-11966000D02*
X12053000Y-12006000D01*
X12054111Y-9826889D02*
X12094111Y-9866889D01*
X12094111Y-9826889D02*
X12054111Y-9866889D01*
X12079000Y-10666000D02*
X12119000Y-10706000D01*
X12119000Y-10666000D02*
X12079000Y-10706000D01*
X12098000Y-9412000D02*
X12138000Y-9452000D01*
X12138000Y-9412000D02*
X12098000Y-9452000D01*
X12141000Y-11106000D02*
X12181000Y-11146000D01*
X12181000Y-11106000D02*
X12141000Y-11146000D01*
X12231000Y-9373000D02*
X12271000Y-9413000D01*
X12271000Y-9373000D02*
X12231000Y-9413000D01*
X12286128Y-11064872D02*
X12326128Y-11104872D01*
X12326128Y-11064872D02*
X12286128Y-11104872D01*
X12380790Y-10942886D02*
X12420790Y-10982886D01*
X12420790Y-10942886D02*
X12380790Y-10982886D01*
X12408000Y-11595000D02*
X12448000Y-11635000D01*
X12448000Y-11595000D02*
X12408000Y-11635000D01*
X12411000Y-10107000D02*
X12451000Y-10147000D01*
X12451000Y-10107000D02*
X12411000Y-10147000D01*
X12421878Y-11011470D02*
X12461878Y-11051470D01*
X12461878Y-11011470D02*
X12421878Y-11051470D01*
X12451550Y-11410450D02*
X12491550Y-11450450D01*
X12491550Y-11410450D02*
X12451550Y-11450450D01*
X12455000Y-9403000D02*
X12495000Y-9443000D01*
X12495000Y-9403000D02*
X12455000Y-9443000D01*
X12509000Y-11017000D02*
X12549000Y-11057000D01*
X12549000Y-11017000D02*
X12509000Y-11057000D01*
X12514000Y-9013000D02*
X12554000Y-9053000D01*
X12554000Y-9013000D02*
X12514000Y-9053000D01*
X12672000Y-9391000D02*
X12712000Y-9431000D01*
X12712000Y-9391000D02*
X12672000Y-9431000D01*
X12692000Y-9936000D02*
X12732000Y-9976000D01*
X12732000Y-9936000D02*
X12692000Y-9976000D01*
X12744000Y-10539000D02*
X12784000Y-10579000D01*
X12784000Y-10539000D02*
X12744000Y-10579000D01*
X12772000Y-9967000D02*
X12812000Y-10007000D01*
X12812000Y-9967000D02*
X12772000Y-10007000D01*
X12784000Y-11200000D02*
X12824000Y-11240000D01*
X12824000Y-11200000D02*
X12784000Y-11240000D01*
X12803000Y-11394000D02*
X12843000Y-11434000D01*
X12843000Y-11394000D02*
X12803000Y-11434000D01*
X12841936Y-9928258D02*
X12881936Y-9968258D01*
X12881936Y-9928258D02*
X12841936Y-9968258D01*
X12890000Y-9743000D02*
X12930000Y-9783000D01*
X12930000Y-9743000D02*
X12890000Y-9783000D01*
X12933000Y-10934000D02*
X12973000Y-10974000D01*
X12973000Y-10934000D02*
X12933000Y-10974000D01*
X12986602Y-9322377D02*
X13026602Y-9362377D01*
X13026602Y-9322377D02*
X12986602Y-9362377D01*
X12988000Y-8991000D02*
X13028000Y-9031000D01*
X13028000Y-8991000D02*
X12988000Y-9031000D01*
X12992000Y-8825000D02*
X13032000Y-8865000D01*
X13032000Y-8825000D02*
X12992000Y-8865000D01*
X12994000Y-10192000D02*
X13034000Y-10232000D01*
X13034000Y-10192000D02*
X12994000Y-10232000D01*
X13014000Y-10526000D02*
X13054000Y-10566000D01*
X13054000Y-10526000D02*
X13014000Y-10566000D01*
X13022000Y-9083000D02*
X13062000Y-9123000D01*
X13062000Y-9083000D02*
X13022000Y-9123000D01*
X13102000Y-10557000D02*
X13142000Y-10597000D01*
X13142000Y-10557000D02*
X13102000Y-10597000D01*
X13112000Y-9100000D02*
X13152000Y-9140000D01*
X13152000Y-9100000D02*
X13112000Y-9140000D01*
X13114000Y-10964000D02*
X13154000Y-11004000D01*
X13154000Y-10964000D02*
X13114000Y-11004000D01*
X13163000Y-10644000D02*
X13203000Y-10684000D01*
X13203000Y-10644000D02*
X13163000Y-10684000D01*
X13173000Y-8833000D02*
X13213000Y-8873000D01*
X13213000Y-8833000D02*
X13173000Y-8873000D01*
X13181000Y-11216950D02*
X13221000Y-11256950D01*
X13221000Y-11216950D02*
X13181000Y-11256950D01*
X13201000Y-9100000D02*
X13241000Y-9140000D01*
X13241000Y-9100000D02*
X13201000Y-9140000D01*
X13204000Y-10175000D02*
X13244000Y-10215000D01*
X13244000Y-10175000D02*
X13204000Y-10215000D01*
X13271000Y-10530000D02*
X13311000Y-10570000D01*
X13311000Y-10530000D02*
X13271000Y-10570000D01*
X13278995Y-9486985D02*
X13318995Y-9526985D01*
X13318995Y-9486985D02*
X13278995Y-9526985D01*
X13283000Y-10944000D02*
X13323000Y-10984000D01*
X13323000Y-10944000D02*
X13283000Y-10984000D01*
X13338000Y-9111000D02*
X13378000Y-9151000D01*
X13378000Y-9111000D02*
X13338000Y-9151000D01*
X13370000Y-10535000D02*
X13410000Y-10575000D01*
X13410000Y-10535000D02*
X13370000Y-10575000D01*
X13371602Y-10363377D02*
X13411602Y-10403377D01*
X13411602Y-10363377D02*
X13371602Y-10403377D01*
X13457000Y-8765000D02*
X13497000Y-8805000D01*
X13497000Y-8765000D02*
X13457000Y-8805000D01*
X13470000Y-10569000D02*
X13510000Y-10609000D01*
X13510000Y-10569000D02*
X13470000Y-10609000D01*
X13515000Y-10128000D02*
X13555000Y-10168000D01*
X13555000Y-10128000D02*
X13515000Y-10168000D01*
X13584000Y-9364985D02*
X13624000Y-9404985D01*
X13624000Y-9364985D02*
X13584000Y-9404985D01*
X13607000Y-10415000D02*
X13647000Y-10455000D01*
X13647000Y-10415000D02*
X13607000Y-10455000D01*
X13680000Y-11410000D02*
X13720000Y-11450000D01*
X13720000Y-11410000D02*
X13680000Y-11450000D01*
X13712000Y-10589000D02*
X13752000Y-10629000D01*
X13752000Y-10589000D02*
X13712000Y-10629000D01*
X13718000Y-10419000D02*
X13758000Y-10459000D01*
X13758000Y-10419000D02*
X13718000Y-10459000D01*
X13734000Y-10919000D02*
X13774000Y-10959000D01*
X13774000Y-10919000D02*
X13734000Y-10959000D01*
X13920000Y-10482000D02*
X13960000Y-10522000D01*
X13960000Y-10482000D02*
X13920000Y-10522000D01*
X13959602Y-11372377D02*
X13999602Y-11412377D01*
X13999602Y-11372377D02*
X13959602Y-11412377D01*
X13973495Y-11186485D02*
X14013495Y-11226485D01*
X14013495Y-11186485D02*
X13973495Y-11226485D01*
X14075000Y-9870000D02*
X14115000Y-9910000D01*
X14115000Y-9870000D02*
X14075000Y-9910000D01*
X14078000Y-10100000D02*
X14118000Y-10140000D01*
X14118000Y-10100000D02*
X14078000Y-10140000D01*
X14131000Y-11180000D02*
X14171000Y-11220000D01*
X14171000Y-11180000D02*
X14131000Y-11220000D01*
X14378602Y-10211377D02*
X14418602Y-10251377D01*
X14418602Y-10211377D02*
X14378602Y-10251377D01*
D14*
X9818500Y-8834000D02*
G75*
G03*
X9818500Y-8834000I-32500J0D01*
G01*
D12*
X9818500Y-8864000D02*
X9818500Y-8804000D01*
X9818500Y-8804000D02*
G75*
G03*
X9753500Y-8804000I-32500J0D01*
G01*
X9753500Y-8804000D02*
X9753500Y-8864000D01*
X9753500Y-8864000D02*
G75*
G03*
X9818500Y-8864000I32500J0D01*
G01*
D14*
X9818500Y-9252000D02*
G75*
G03*
X9818500Y-9252000I-32500J0D01*
G01*
D12*
X9818500Y-9307000D02*
X9818500Y-9197000D01*
X9818500Y-9197000D02*
G75*
G03*
X9753500Y-9197000I-32500J0D01*
G01*
X9753500Y-9197000D02*
X9753500Y-9307000D01*
X9753500Y-9307000D02*
G75*
G03*
X9818500Y-9307000I32500J0D01*
G01*
D14*
X10682500Y-8834000D02*
G75*
G03*
X10682500Y-8834000I-32500J0D01*
G01*
D12*
X10682500Y-8864000D02*
X10682500Y-8804000D01*
X10682500Y-8804000D02*
G75*
G03*
X10617500Y-8804000I-32500J0D01*
G01*
X10617500Y-8804000D02*
X10617500Y-8864000D01*
X10617500Y-8864000D02*
G75*
G03*
X10682500Y-8864000I32500J0D01*
G01*
D14*
X10682500Y-9252000D02*
G75*
G03*
X10682500Y-9252000I-32500J0D01*
G01*
D12*
X10682500Y-9307000D02*
X10682500Y-9197000D01*
X10682500Y-9197000D02*
G75*
G03*
X10617500Y-9197000I-32500J0D01*
G01*
X10617500Y-9197000D02*
X10617500Y-9307000D01*
X10617500Y-9307000D02*
G75*
G03*
X10682500Y-9307000I32500J0D01*
G01*
D15*
X5970000Y-10262000D02*
X5970000Y-10422000D01*
X5890000Y-10342000D02*
X6050000Y-10342000D01*
D12*
X5583777Y-12372984D02*
X5583777Y-12172984D01*
X5583777Y-12172984D02*
X5631396Y-12172984D01*
X5631396Y-12172984D02*
X5659967Y-12182508D01*
X5659967Y-12182508D02*
X5679015Y-12201555D01*
X5679015Y-12201555D02*
X5688539Y-12220603D01*
X5688539Y-12220603D02*
X5698062Y-12258698D01*
X5698062Y-12258698D02*
X5698062Y-12287269D01*
X5698062Y-12287269D02*
X5688539Y-12325365D01*
X5688539Y-12325365D02*
X5679015Y-12344412D01*
X5679015Y-12344412D02*
X5659967Y-12363460D01*
X5659967Y-12363460D02*
X5631396Y-12372984D01*
X5631396Y-12372984D02*
X5583777Y-12372984D01*
X5783777Y-12372984D02*
X5783777Y-12239650D01*
X5783777Y-12277746D02*
X5793301Y-12258698D01*
X5793301Y-12258698D02*
X5802824Y-12249174D01*
X5802824Y-12249174D02*
X5821872Y-12239650D01*
X5821872Y-12239650D02*
X5840920Y-12239650D01*
X5907586Y-12372984D02*
X5907586Y-12239650D01*
X5907586Y-12172984D02*
X5898062Y-12182508D01*
X5898062Y-12182508D02*
X5907586Y-12192031D01*
X5907586Y-12192031D02*
X5917110Y-12182508D01*
X5917110Y-12182508D02*
X5907586Y-12172984D01*
X5907586Y-12172984D02*
X5907586Y-12192031D01*
X6031396Y-12372984D02*
X6012348Y-12363460D01*
X6012348Y-12363460D02*
X6002824Y-12344412D01*
X6002824Y-12344412D02*
X6002824Y-12172984D01*
X6136158Y-12372984D02*
X6117110Y-12363460D01*
X6117110Y-12363460D02*
X6107586Y-12344412D01*
X6107586Y-12344412D02*
X6107586Y-12172984D01*
X6364729Y-12372984D02*
X6364729Y-12172984D01*
X6364729Y-12172984D02*
X6431396Y-12315841D01*
X6431396Y-12315841D02*
X6498062Y-12172984D01*
X6498062Y-12172984D02*
X6498062Y-12372984D01*
X6679015Y-12372984D02*
X6679015Y-12268222D01*
X6679015Y-12268222D02*
X6669491Y-12249174D01*
X6669491Y-12249174D02*
X6650443Y-12239650D01*
X6650443Y-12239650D02*
X6612348Y-12239650D01*
X6612348Y-12239650D02*
X6593301Y-12249174D01*
X6679015Y-12363460D02*
X6659967Y-12372984D01*
X6659967Y-12372984D02*
X6612348Y-12372984D01*
X6612348Y-12372984D02*
X6593301Y-12363460D01*
X6593301Y-12363460D02*
X6583777Y-12344412D01*
X6583777Y-12344412D02*
X6583777Y-12325365D01*
X6583777Y-12325365D02*
X6593301Y-12306317D01*
X6593301Y-12306317D02*
X6612348Y-12296793D01*
X6612348Y-12296793D02*
X6659967Y-12296793D01*
X6659967Y-12296793D02*
X6679015Y-12287269D01*
X6774253Y-12239650D02*
X6774253Y-12439650D01*
X6774253Y-12249174D02*
X6793301Y-12239650D01*
X6793301Y-12239650D02*
X6831396Y-12239650D01*
X6831396Y-12239650D02*
X6850443Y-12249174D01*
X6850443Y-12249174D02*
X6859967Y-12258698D01*
X6859967Y-12258698D02*
X6869491Y-12277746D01*
X6869491Y-12277746D02*
X6869491Y-12334888D01*
X6869491Y-12334888D02*
X6859967Y-12353936D01*
X6859967Y-12353936D02*
X6850443Y-12363460D01*
X6850443Y-12363460D02*
X6831396Y-12372984D01*
X6831396Y-12372984D02*
X6793301Y-12372984D01*
X6793301Y-12372984D02*
X6774253Y-12363460D01*
X6955205Y-12353936D02*
X6964729Y-12363460D01*
X6964729Y-12363460D02*
X6955205Y-12372984D01*
X6955205Y-12372984D02*
X6945682Y-12363460D01*
X6945682Y-12363460D02*
X6955205Y-12353936D01*
X6955205Y-12353936D02*
X6955205Y-12372984D01*
X6955205Y-12249174D02*
X6964729Y-12258698D01*
X6964729Y-12258698D02*
X6955205Y-12268222D01*
X6955205Y-12268222D02*
X6945682Y-12258698D01*
X6945682Y-12258698D02*
X6955205Y-12249174D01*
X6955205Y-12249174D02*
X6955205Y-12268222D01*
D13*
X5283000Y-12681500D02*
X5323000Y-12721500D01*
X5323000Y-12681500D02*
X5283000Y-12721500D01*
D12*
X5621872Y-12592984D02*
X5640920Y-12592984D01*
X5640920Y-12592984D02*
X5659967Y-12602508D01*
X5659967Y-12602508D02*
X5669491Y-12612031D01*
X5669491Y-12612031D02*
X5679015Y-12631079D01*
X5679015Y-12631079D02*
X5688539Y-12669174D01*
X5688539Y-12669174D02*
X5688539Y-12716793D01*
X5688539Y-12716793D02*
X5679015Y-12754888D01*
X5679015Y-12754888D02*
X5669491Y-12773936D01*
X5669491Y-12773936D02*
X5659967Y-12783460D01*
X5659967Y-12783460D02*
X5640920Y-12792984D01*
X5640920Y-12792984D02*
X5621872Y-12792984D01*
X5621872Y-12792984D02*
X5602824Y-12783460D01*
X5602824Y-12783460D02*
X5593301Y-12773936D01*
X5593301Y-12773936D02*
X5583777Y-12754888D01*
X5583777Y-12754888D02*
X5574253Y-12716793D01*
X5574253Y-12716793D02*
X5574253Y-12669174D01*
X5574253Y-12669174D02*
X5583777Y-12631079D01*
X5583777Y-12631079D02*
X5593301Y-12612031D01*
X5593301Y-12612031D02*
X5602824Y-12602508D01*
X5602824Y-12602508D02*
X5621872Y-12592984D01*
X5774253Y-12773936D02*
X5783777Y-12783460D01*
X5783777Y-12783460D02*
X5774253Y-12792984D01*
X5774253Y-12792984D02*
X5764729Y-12783460D01*
X5764729Y-12783460D02*
X5774253Y-12773936D01*
X5774253Y-12773936D02*
X5774253Y-12792984D01*
X5955205Y-12659650D02*
X5955205Y-12792984D01*
X5907586Y-12583460D02*
X5859967Y-12726317D01*
X5859967Y-12726317D02*
X5983777Y-12726317D01*
X6098062Y-12592984D02*
X6117110Y-12592984D01*
X6117110Y-12592984D02*
X6136158Y-12602508D01*
X6136158Y-12602508D02*
X6145682Y-12612031D01*
X6145682Y-12612031D02*
X6155205Y-12631079D01*
X6155205Y-12631079D02*
X6164729Y-12669174D01*
X6164729Y-12669174D02*
X6164729Y-12716793D01*
X6164729Y-12716793D02*
X6155205Y-12754888D01*
X6155205Y-12754888D02*
X6145682Y-12773936D01*
X6145682Y-12773936D02*
X6136158Y-12783460D01*
X6136158Y-12783460D02*
X6117110Y-12792984D01*
X6117110Y-12792984D02*
X6098062Y-12792984D01*
X6098062Y-12792984D02*
X6079015Y-12783460D01*
X6079015Y-12783460D02*
X6069491Y-12773936D01*
X6069491Y-12773936D02*
X6059967Y-12754888D01*
X6059967Y-12754888D02*
X6050443Y-12716793D01*
X6050443Y-12716793D02*
X6050443Y-12669174D01*
X6050443Y-12669174D02*
X6059967Y-12631079D01*
X6059967Y-12631079D02*
X6069491Y-12612031D01*
X6069491Y-12612031D02*
X6079015Y-12602508D01*
X6079015Y-12602508D02*
X6098062Y-12592984D01*
X6288539Y-12592984D02*
X6307586Y-12592984D01*
X6307586Y-12592984D02*
X6326634Y-12602508D01*
X6326634Y-12602508D02*
X6336158Y-12612031D01*
X6336158Y-12612031D02*
X6345682Y-12631079D01*
X6345682Y-12631079D02*
X6355205Y-12669174D01*
X6355205Y-12669174D02*
X6355205Y-12716793D01*
X6355205Y-12716793D02*
X6345682Y-12754888D01*
X6345682Y-12754888D02*
X6336158Y-12773936D01*
X6336158Y-12773936D02*
X6326634Y-12783460D01*
X6326634Y-12783460D02*
X6307586Y-12792984D01*
X6307586Y-12792984D02*
X6288539Y-12792984D01*
X6288539Y-12792984D02*
X6269491Y-12783460D01*
X6269491Y-12783460D02*
X6259967Y-12773936D01*
X6259967Y-12773936D02*
X6250443Y-12754888D01*
X6250443Y-12754888D02*
X6240920Y-12716793D01*
X6240920Y-12716793D02*
X6240920Y-12669174D01*
X6240920Y-12669174D02*
X6250443Y-12631079D01*
X6250443Y-12631079D02*
X6259967Y-12612031D01*
X6259967Y-12612031D02*
X6269491Y-12602508D01*
X6269491Y-12602508D02*
X6288539Y-12592984D01*
X6440920Y-12792984D02*
X6440920Y-12659650D01*
X6440920Y-12678698D02*
X6450443Y-12669174D01*
X6450443Y-12669174D02*
X6469491Y-12659650D01*
X6469491Y-12659650D02*
X6498063Y-12659650D01*
X6498063Y-12659650D02*
X6517110Y-12669174D01*
X6517110Y-12669174D02*
X6526634Y-12688222D01*
X6526634Y-12688222D02*
X6526634Y-12792984D01*
X6526634Y-12688222D02*
X6536158Y-12669174D01*
X6536158Y-12669174D02*
X6555205Y-12659650D01*
X6555205Y-12659650D02*
X6583777Y-12659650D01*
X6583777Y-12659650D02*
X6602824Y-12669174D01*
X6602824Y-12669174D02*
X6612348Y-12688222D01*
X6612348Y-12688222D02*
X6612348Y-12792984D01*
X6707586Y-12792984D02*
X6707586Y-12659650D01*
X6707586Y-12678698D02*
X6717110Y-12669174D01*
X6717110Y-12669174D02*
X6736158Y-12659650D01*
X6736158Y-12659650D02*
X6764729Y-12659650D01*
X6764729Y-12659650D02*
X6783777Y-12669174D01*
X6783777Y-12669174D02*
X6793301Y-12688222D01*
X6793301Y-12688222D02*
X6793301Y-12792984D01*
X6793301Y-12688222D02*
X6802824Y-12669174D01*
X6802824Y-12669174D02*
X6821872Y-12659650D01*
X6821872Y-12659650D02*
X6850443Y-12659650D01*
X6850443Y-12659650D02*
X6869491Y-12669174D01*
X6869491Y-12669174D02*
X6879015Y-12688222D01*
X6879015Y-12688222D02*
X6879015Y-12792984D01*
X7269491Y-12583460D02*
X7098063Y-12840603D01*
X7526634Y-12592984D02*
X7545682Y-12592984D01*
X7545682Y-12592984D02*
X7564729Y-12602508D01*
X7564729Y-12602508D02*
X7574253Y-12612031D01*
X7574253Y-12612031D02*
X7583777Y-12631079D01*
X7583777Y-12631079D02*
X7593301Y-12669174D01*
X7593301Y-12669174D02*
X7593301Y-12716793D01*
X7593301Y-12716793D02*
X7583777Y-12754888D01*
X7583777Y-12754888D02*
X7574253Y-12773936D01*
X7574253Y-12773936D02*
X7564729Y-12783460D01*
X7564729Y-12783460D02*
X7545682Y-12792984D01*
X7545682Y-12792984D02*
X7526634Y-12792984D01*
X7526634Y-12792984D02*
X7507586Y-12783460D01*
X7507586Y-12783460D02*
X7498063Y-12773936D01*
X7498063Y-12773936D02*
X7488539Y-12754888D01*
X7488539Y-12754888D02*
X7479015Y-12716793D01*
X7479015Y-12716793D02*
X7479015Y-12669174D01*
X7479015Y-12669174D02*
X7488539Y-12631079D01*
X7488539Y-12631079D02*
X7498063Y-12612031D01*
X7498063Y-12612031D02*
X7507586Y-12602508D01*
X7507586Y-12602508D02*
X7526634Y-12592984D01*
X7679015Y-12773936D02*
X7688539Y-12783460D01*
X7688539Y-12783460D02*
X7679015Y-12792984D01*
X7679015Y-12792984D02*
X7669491Y-12783460D01*
X7669491Y-12783460D02*
X7679015Y-12773936D01*
X7679015Y-12773936D02*
X7679015Y-12792984D01*
X7812348Y-12592984D02*
X7831396Y-12592984D01*
X7831396Y-12592984D02*
X7850444Y-12602508D01*
X7850444Y-12602508D02*
X7859967Y-12612031D01*
X7859967Y-12612031D02*
X7869491Y-12631079D01*
X7869491Y-12631079D02*
X7879015Y-12669174D01*
X7879015Y-12669174D02*
X7879015Y-12716793D01*
X7879015Y-12716793D02*
X7869491Y-12754888D01*
X7869491Y-12754888D02*
X7859967Y-12773936D01*
X7859967Y-12773936D02*
X7850444Y-12783460D01*
X7850444Y-12783460D02*
X7831396Y-12792984D01*
X7831396Y-12792984D02*
X7812348Y-12792984D01*
X7812348Y-12792984D02*
X7793301Y-12783460D01*
X7793301Y-12783460D02*
X7783777Y-12773936D01*
X7783777Y-12773936D02*
X7774253Y-12754888D01*
X7774253Y-12754888D02*
X7764729Y-12716793D01*
X7764729Y-12716793D02*
X7764729Y-12669174D01*
X7764729Y-12669174D02*
X7774253Y-12631079D01*
X7774253Y-12631079D02*
X7783777Y-12612031D01*
X7783777Y-12612031D02*
X7793301Y-12602508D01*
X7793301Y-12602508D02*
X7812348Y-12592984D01*
X8069491Y-12792984D02*
X7955206Y-12792984D01*
X8012348Y-12792984D02*
X8012348Y-12592984D01*
X8012348Y-12592984D02*
X7993301Y-12621555D01*
X7993301Y-12621555D02*
X7974253Y-12640603D01*
X7974253Y-12640603D02*
X7955206Y-12650127D01*
X8250444Y-12592984D02*
X8155206Y-12592984D01*
X8155206Y-12592984D02*
X8145682Y-12688222D01*
X8145682Y-12688222D02*
X8155206Y-12678698D01*
X8155206Y-12678698D02*
X8174253Y-12669174D01*
X8174253Y-12669174D02*
X8221872Y-12669174D01*
X8221872Y-12669174D02*
X8240920Y-12678698D01*
X8240920Y-12678698D02*
X8250444Y-12688222D01*
X8250444Y-12688222D02*
X8259967Y-12707269D01*
X8259967Y-12707269D02*
X8259967Y-12754888D01*
X8259967Y-12754888D02*
X8250444Y-12773936D01*
X8250444Y-12773936D02*
X8240920Y-12783460D01*
X8240920Y-12783460D02*
X8221872Y-12792984D01*
X8221872Y-12792984D02*
X8174253Y-12792984D01*
X8174253Y-12792984D02*
X8155206Y-12783460D01*
X8155206Y-12783460D02*
X8145682Y-12773936D01*
X8326634Y-12592984D02*
X8459968Y-12592984D01*
X8459968Y-12592984D02*
X8374253Y-12792984D01*
X8526634Y-12592984D02*
X8526634Y-12631079D01*
X8602825Y-12592984D02*
X8602825Y-12631079D01*
X8898063Y-12869174D02*
X8888539Y-12859650D01*
X8888539Y-12859650D02*
X8869491Y-12831079D01*
X8869491Y-12831079D02*
X8859968Y-12812031D01*
X8859968Y-12812031D02*
X8850444Y-12783460D01*
X8850444Y-12783460D02*
X8840920Y-12735841D01*
X8840920Y-12735841D02*
X8840920Y-12697746D01*
X8840920Y-12697746D02*
X8850444Y-12650127D01*
X8850444Y-12650127D02*
X8859968Y-12621555D01*
X8859968Y-12621555D02*
X8869491Y-12602508D01*
X8869491Y-12602508D02*
X8888539Y-12573936D01*
X8888539Y-12573936D02*
X8898063Y-12564412D01*
X9079015Y-12792984D02*
X8964730Y-12792984D01*
X9021872Y-12792984D02*
X9021872Y-12592984D01*
X9021872Y-12592984D02*
X9002825Y-12621555D01*
X9002825Y-12621555D02*
X8983777Y-12640603D01*
X8983777Y-12640603D02*
X8964730Y-12650127D01*
X9250444Y-12659650D02*
X9250444Y-12792984D01*
X9202825Y-12583460D02*
X9155206Y-12726317D01*
X9155206Y-12726317D02*
X9279015Y-12726317D01*
X9440920Y-12592984D02*
X9402825Y-12592984D01*
X9402825Y-12592984D02*
X9383777Y-12602508D01*
X9383777Y-12602508D02*
X9374253Y-12612031D01*
X9374253Y-12612031D02*
X9355206Y-12640603D01*
X9355206Y-12640603D02*
X9345682Y-12678698D01*
X9345682Y-12678698D02*
X9345682Y-12754888D01*
X9345682Y-12754888D02*
X9355206Y-12773936D01*
X9355206Y-12773936D02*
X9364730Y-12783460D01*
X9364730Y-12783460D02*
X9383777Y-12792984D01*
X9383777Y-12792984D02*
X9421872Y-12792984D01*
X9421872Y-12792984D02*
X9440920Y-12783460D01*
X9440920Y-12783460D02*
X9450444Y-12773936D01*
X9450444Y-12773936D02*
X9459968Y-12754888D01*
X9459968Y-12754888D02*
X9459968Y-12707269D01*
X9459968Y-12707269D02*
X9450444Y-12688222D01*
X9450444Y-12688222D02*
X9440920Y-12678698D01*
X9440920Y-12678698D02*
X9421872Y-12669174D01*
X9421872Y-12669174D02*
X9383777Y-12669174D01*
X9383777Y-12669174D02*
X9364730Y-12678698D01*
X9364730Y-12678698D02*
X9355206Y-12688222D01*
X9355206Y-12688222D02*
X9345682Y-12707269D01*
X9698063Y-12792984D02*
X9698063Y-12592984D01*
X9783777Y-12792984D02*
X9783777Y-12688222D01*
X9783777Y-12688222D02*
X9774253Y-12669174D01*
X9774253Y-12669174D02*
X9755206Y-12659650D01*
X9755206Y-12659650D02*
X9726634Y-12659650D01*
X9726634Y-12659650D02*
X9707587Y-12669174D01*
X9707587Y-12669174D02*
X9698063Y-12678698D01*
X9907587Y-12792984D02*
X9888539Y-12783460D01*
X9888539Y-12783460D02*
X9879015Y-12773936D01*
X9879015Y-12773936D02*
X9869492Y-12754888D01*
X9869492Y-12754888D02*
X9869492Y-12697746D01*
X9869492Y-12697746D02*
X9879015Y-12678698D01*
X9879015Y-12678698D02*
X9888539Y-12669174D01*
X9888539Y-12669174D02*
X9907587Y-12659650D01*
X9907587Y-12659650D02*
X9936158Y-12659650D01*
X9936158Y-12659650D02*
X9955206Y-12669174D01*
X9955206Y-12669174D02*
X9964730Y-12678698D01*
X9964730Y-12678698D02*
X9974253Y-12697746D01*
X9974253Y-12697746D02*
X9974253Y-12754888D01*
X9974253Y-12754888D02*
X9964730Y-12773936D01*
X9964730Y-12773936D02*
X9955206Y-12783460D01*
X9955206Y-12783460D02*
X9936158Y-12792984D01*
X9936158Y-12792984D02*
X9907587Y-12792984D01*
X10088539Y-12792984D02*
X10069492Y-12783460D01*
X10069492Y-12783460D02*
X10059968Y-12764412D01*
X10059968Y-12764412D02*
X10059968Y-12592984D01*
X10240920Y-12783460D02*
X10221873Y-12792984D01*
X10221873Y-12792984D02*
X10183777Y-12792984D01*
X10183777Y-12792984D02*
X10164730Y-12783460D01*
X10164730Y-12783460D02*
X10155206Y-12764412D01*
X10155206Y-12764412D02*
X10155206Y-12688222D01*
X10155206Y-12688222D02*
X10164730Y-12669174D01*
X10164730Y-12669174D02*
X10183777Y-12659650D01*
X10183777Y-12659650D02*
X10221873Y-12659650D01*
X10221873Y-12659650D02*
X10240920Y-12669174D01*
X10240920Y-12669174D02*
X10250444Y-12688222D01*
X10250444Y-12688222D02*
X10250444Y-12707269D01*
X10250444Y-12707269D02*
X10155206Y-12726317D01*
X10326634Y-12783460D02*
X10345682Y-12792984D01*
X10345682Y-12792984D02*
X10383777Y-12792984D01*
X10383777Y-12792984D02*
X10402825Y-12783460D01*
X10402825Y-12783460D02*
X10412349Y-12764412D01*
X10412349Y-12764412D02*
X10412349Y-12754888D01*
X10412349Y-12754888D02*
X10402825Y-12735841D01*
X10402825Y-12735841D02*
X10383777Y-12726317D01*
X10383777Y-12726317D02*
X10355206Y-12726317D01*
X10355206Y-12726317D02*
X10336158Y-12716793D01*
X10336158Y-12716793D02*
X10326634Y-12697746D01*
X10326634Y-12697746D02*
X10326634Y-12688222D01*
X10326634Y-12688222D02*
X10336158Y-12669174D01*
X10336158Y-12669174D02*
X10355206Y-12659650D01*
X10355206Y-12659650D02*
X10383777Y-12659650D01*
X10383777Y-12659650D02*
X10402825Y-12669174D01*
X10479015Y-12869174D02*
X10488539Y-12859650D01*
X10488539Y-12859650D02*
X10507587Y-12831079D01*
X10507587Y-12831079D02*
X10517111Y-12812031D01*
X10517111Y-12812031D02*
X10526634Y-12783460D01*
X10526634Y-12783460D02*
X10536158Y-12735841D01*
X10536158Y-12735841D02*
X10536158Y-12697746D01*
X10536158Y-12697746D02*
X10526634Y-12650127D01*
X10526634Y-12650127D02*
X10517111Y-12621555D01*
X10517111Y-12621555D02*
X10507587Y-12602508D01*
X10507587Y-12602508D02*
X10488539Y-12573936D01*
X10488539Y-12573936D02*
X10479015Y-12564412D01*
D14*
X5323000Y-12965500D02*
G75*
G03*
X5323000Y-12965500I-32500J0D01*
G01*
D12*
X5621872Y-12856984D02*
X5640920Y-12856984D01*
X5640920Y-12856984D02*
X5659967Y-12866508D01*
X5659967Y-12866508D02*
X5669491Y-12876031D01*
X5669491Y-12876031D02*
X5679015Y-12895079D01*
X5679015Y-12895079D02*
X5688539Y-12933174D01*
X5688539Y-12933174D02*
X5688539Y-12980793D01*
X5688539Y-12980793D02*
X5679015Y-13018888D01*
X5679015Y-13018888D02*
X5669491Y-13037936D01*
X5669491Y-13037936D02*
X5659967Y-13047460D01*
X5659967Y-13047460D02*
X5640920Y-13056984D01*
X5640920Y-13056984D02*
X5621872Y-13056984D01*
X5621872Y-13056984D02*
X5602824Y-13047460D01*
X5602824Y-13047460D02*
X5593301Y-13037936D01*
X5593301Y-13037936D02*
X5583777Y-13018888D01*
X5583777Y-13018888D02*
X5574253Y-12980793D01*
X5574253Y-12980793D02*
X5574253Y-12933174D01*
X5574253Y-12933174D02*
X5583777Y-12895079D01*
X5583777Y-12895079D02*
X5593301Y-12876031D01*
X5593301Y-12876031D02*
X5602824Y-12866508D01*
X5602824Y-12866508D02*
X5621872Y-12856984D01*
X5774253Y-13037936D02*
X5783777Y-13047460D01*
X5783777Y-13047460D02*
X5774253Y-13056984D01*
X5774253Y-13056984D02*
X5764729Y-13047460D01*
X5764729Y-13047460D02*
X5774253Y-13037936D01*
X5774253Y-13037936D02*
X5774253Y-13056984D01*
X5955205Y-12856984D02*
X5917110Y-12856984D01*
X5917110Y-12856984D02*
X5898062Y-12866508D01*
X5898062Y-12866508D02*
X5888539Y-12876031D01*
X5888539Y-12876031D02*
X5869491Y-12904603D01*
X5869491Y-12904603D02*
X5859967Y-12942698D01*
X5859967Y-12942698D02*
X5859967Y-13018888D01*
X5859967Y-13018888D02*
X5869491Y-13037936D01*
X5869491Y-13037936D02*
X5879015Y-13047460D01*
X5879015Y-13047460D02*
X5898062Y-13056984D01*
X5898062Y-13056984D02*
X5936158Y-13056984D01*
X5936158Y-13056984D02*
X5955205Y-13047460D01*
X5955205Y-13047460D02*
X5964729Y-13037936D01*
X5964729Y-13037936D02*
X5974253Y-13018888D01*
X5974253Y-13018888D02*
X5974253Y-12971269D01*
X5974253Y-12971269D02*
X5964729Y-12952222D01*
X5964729Y-12952222D02*
X5955205Y-12942698D01*
X5955205Y-12942698D02*
X5936158Y-12933174D01*
X5936158Y-12933174D02*
X5898062Y-12933174D01*
X5898062Y-12933174D02*
X5879015Y-12942698D01*
X5879015Y-12942698D02*
X5869491Y-12952222D01*
X5869491Y-12952222D02*
X5859967Y-12971269D01*
X6155205Y-12856984D02*
X6059967Y-12856984D01*
X6059967Y-12856984D02*
X6050443Y-12952222D01*
X6050443Y-12952222D02*
X6059967Y-12942698D01*
X6059967Y-12942698D02*
X6079015Y-12933174D01*
X6079015Y-12933174D02*
X6126634Y-12933174D01*
X6126634Y-12933174D02*
X6145682Y-12942698D01*
X6145682Y-12942698D02*
X6155205Y-12952222D01*
X6155205Y-12952222D02*
X6164729Y-12971269D01*
X6164729Y-12971269D02*
X6164729Y-13018888D01*
X6164729Y-13018888D02*
X6155205Y-13037936D01*
X6155205Y-13037936D02*
X6145682Y-13047460D01*
X6145682Y-13047460D02*
X6126634Y-13056984D01*
X6126634Y-13056984D02*
X6079015Y-13056984D01*
X6079015Y-13056984D02*
X6059967Y-13047460D01*
X6059967Y-13047460D02*
X6050443Y-13037936D01*
X6288539Y-12856984D02*
X6307586Y-12856984D01*
X6307586Y-12856984D02*
X6326634Y-12866508D01*
X6326634Y-12866508D02*
X6336158Y-12876031D01*
X6336158Y-12876031D02*
X6345682Y-12895079D01*
X6345682Y-12895079D02*
X6355205Y-12933174D01*
X6355205Y-12933174D02*
X6355205Y-12980793D01*
X6355205Y-12980793D02*
X6345682Y-13018888D01*
X6345682Y-13018888D02*
X6336158Y-13037936D01*
X6336158Y-13037936D02*
X6326634Y-13047460D01*
X6326634Y-13047460D02*
X6307586Y-13056984D01*
X6307586Y-13056984D02*
X6288539Y-13056984D01*
X6288539Y-13056984D02*
X6269491Y-13047460D01*
X6269491Y-13047460D02*
X6259967Y-13037936D01*
X6259967Y-13037936D02*
X6250443Y-13018888D01*
X6250443Y-13018888D02*
X6240920Y-12980793D01*
X6240920Y-12980793D02*
X6240920Y-12933174D01*
X6240920Y-12933174D02*
X6250443Y-12895079D01*
X6250443Y-12895079D02*
X6259967Y-12876031D01*
X6259967Y-12876031D02*
X6269491Y-12866508D01*
X6269491Y-12866508D02*
X6288539Y-12856984D01*
X6440920Y-13056984D02*
X6440920Y-12923650D01*
X6440920Y-12942698D02*
X6450443Y-12933174D01*
X6450443Y-12933174D02*
X6469491Y-12923650D01*
X6469491Y-12923650D02*
X6498063Y-12923650D01*
X6498063Y-12923650D02*
X6517110Y-12933174D01*
X6517110Y-12933174D02*
X6526634Y-12952222D01*
X6526634Y-12952222D02*
X6526634Y-13056984D01*
X6526634Y-12952222D02*
X6536158Y-12933174D01*
X6536158Y-12933174D02*
X6555205Y-12923650D01*
X6555205Y-12923650D02*
X6583777Y-12923650D01*
X6583777Y-12923650D02*
X6602824Y-12933174D01*
X6602824Y-12933174D02*
X6612348Y-12952222D01*
X6612348Y-12952222D02*
X6612348Y-13056984D01*
X6707586Y-13056984D02*
X6707586Y-12923650D01*
X6707586Y-12942698D02*
X6717110Y-12933174D01*
X6717110Y-12933174D02*
X6736158Y-12923650D01*
X6736158Y-12923650D02*
X6764729Y-12923650D01*
X6764729Y-12923650D02*
X6783777Y-12933174D01*
X6783777Y-12933174D02*
X6793301Y-12952222D01*
X6793301Y-12952222D02*
X6793301Y-13056984D01*
X6793301Y-12952222D02*
X6802824Y-12933174D01*
X6802824Y-12933174D02*
X6821872Y-12923650D01*
X6821872Y-12923650D02*
X6850443Y-12923650D01*
X6850443Y-12923650D02*
X6869491Y-12933174D01*
X6869491Y-12933174D02*
X6879015Y-12952222D01*
X6879015Y-12952222D02*
X6879015Y-13056984D01*
X7269491Y-12847460D02*
X7098063Y-13104603D01*
X7526634Y-12856984D02*
X7545682Y-12856984D01*
X7545682Y-12856984D02*
X7564729Y-12866508D01*
X7564729Y-12866508D02*
X7574253Y-12876031D01*
X7574253Y-12876031D02*
X7583777Y-12895079D01*
X7583777Y-12895079D02*
X7593301Y-12933174D01*
X7593301Y-12933174D02*
X7593301Y-12980793D01*
X7593301Y-12980793D02*
X7583777Y-13018888D01*
X7583777Y-13018888D02*
X7574253Y-13037936D01*
X7574253Y-13037936D02*
X7564729Y-13047460D01*
X7564729Y-13047460D02*
X7545682Y-13056984D01*
X7545682Y-13056984D02*
X7526634Y-13056984D01*
X7526634Y-13056984D02*
X7507586Y-13047460D01*
X7507586Y-13047460D02*
X7498063Y-13037936D01*
X7498063Y-13037936D02*
X7488539Y-13018888D01*
X7488539Y-13018888D02*
X7479015Y-12980793D01*
X7479015Y-12980793D02*
X7479015Y-12933174D01*
X7479015Y-12933174D02*
X7488539Y-12895079D01*
X7488539Y-12895079D02*
X7498063Y-12876031D01*
X7498063Y-12876031D02*
X7507586Y-12866508D01*
X7507586Y-12866508D02*
X7526634Y-12856984D01*
X7679015Y-13037936D02*
X7688539Y-13047460D01*
X7688539Y-13047460D02*
X7679015Y-13056984D01*
X7679015Y-13056984D02*
X7669491Y-13047460D01*
X7669491Y-13047460D02*
X7679015Y-13037936D01*
X7679015Y-13037936D02*
X7679015Y-13056984D01*
X7812348Y-12856984D02*
X7831396Y-12856984D01*
X7831396Y-12856984D02*
X7850444Y-12866508D01*
X7850444Y-12866508D02*
X7859967Y-12876031D01*
X7859967Y-12876031D02*
X7869491Y-12895079D01*
X7869491Y-12895079D02*
X7879015Y-12933174D01*
X7879015Y-12933174D02*
X7879015Y-12980793D01*
X7879015Y-12980793D02*
X7869491Y-13018888D01*
X7869491Y-13018888D02*
X7859967Y-13037936D01*
X7859967Y-13037936D02*
X7850444Y-13047460D01*
X7850444Y-13047460D02*
X7831396Y-13056984D01*
X7831396Y-13056984D02*
X7812348Y-13056984D01*
X7812348Y-13056984D02*
X7793301Y-13047460D01*
X7793301Y-13047460D02*
X7783777Y-13037936D01*
X7783777Y-13037936D02*
X7774253Y-13018888D01*
X7774253Y-13018888D02*
X7764729Y-12980793D01*
X7764729Y-12980793D02*
X7764729Y-12933174D01*
X7764729Y-12933174D02*
X7774253Y-12895079D01*
X7774253Y-12895079D02*
X7783777Y-12876031D01*
X7783777Y-12876031D02*
X7793301Y-12866508D01*
X7793301Y-12866508D02*
X7812348Y-12856984D01*
X7955206Y-12876031D02*
X7964729Y-12866508D01*
X7964729Y-12866508D02*
X7983777Y-12856984D01*
X7983777Y-12856984D02*
X8031396Y-12856984D01*
X8031396Y-12856984D02*
X8050444Y-12866508D01*
X8050444Y-12866508D02*
X8059967Y-12876031D01*
X8059967Y-12876031D02*
X8069491Y-12895079D01*
X8069491Y-12895079D02*
X8069491Y-12914127D01*
X8069491Y-12914127D02*
X8059967Y-12942698D01*
X8059967Y-12942698D02*
X7945682Y-13056984D01*
X7945682Y-13056984D02*
X8069491Y-13056984D01*
X8250444Y-12856984D02*
X8155206Y-12856984D01*
X8155206Y-12856984D02*
X8145682Y-12952222D01*
X8145682Y-12952222D02*
X8155206Y-12942698D01*
X8155206Y-12942698D02*
X8174253Y-12933174D01*
X8174253Y-12933174D02*
X8221872Y-12933174D01*
X8221872Y-12933174D02*
X8240920Y-12942698D01*
X8240920Y-12942698D02*
X8250444Y-12952222D01*
X8250444Y-12952222D02*
X8259967Y-12971269D01*
X8259967Y-12971269D02*
X8259967Y-13018888D01*
X8259967Y-13018888D02*
X8250444Y-13037936D01*
X8250444Y-13037936D02*
X8240920Y-13047460D01*
X8240920Y-13047460D02*
X8221872Y-13056984D01*
X8221872Y-13056984D02*
X8174253Y-13056984D01*
X8174253Y-13056984D02*
X8155206Y-13047460D01*
X8155206Y-13047460D02*
X8145682Y-13037936D01*
X8431396Y-12856984D02*
X8393301Y-12856984D01*
X8393301Y-12856984D02*
X8374253Y-12866508D01*
X8374253Y-12866508D02*
X8364729Y-12876031D01*
X8364729Y-12876031D02*
X8345682Y-12904603D01*
X8345682Y-12904603D02*
X8336158Y-12942698D01*
X8336158Y-12942698D02*
X8336158Y-13018888D01*
X8336158Y-13018888D02*
X8345682Y-13037936D01*
X8345682Y-13037936D02*
X8355206Y-13047460D01*
X8355206Y-13047460D02*
X8374253Y-13056984D01*
X8374253Y-13056984D02*
X8412349Y-13056984D01*
X8412349Y-13056984D02*
X8431396Y-13047460D01*
X8431396Y-13047460D02*
X8440920Y-13037936D01*
X8440920Y-13037936D02*
X8450444Y-13018888D01*
X8450444Y-13018888D02*
X8450444Y-12971269D01*
X8450444Y-12971269D02*
X8440920Y-12952222D01*
X8440920Y-12952222D02*
X8431396Y-12942698D01*
X8431396Y-12942698D02*
X8412349Y-12933174D01*
X8412349Y-12933174D02*
X8374253Y-12933174D01*
X8374253Y-12933174D02*
X8355206Y-12942698D01*
X8355206Y-12942698D02*
X8345682Y-12952222D01*
X8345682Y-12952222D02*
X8336158Y-12971269D01*
X8526634Y-12856984D02*
X8526634Y-12895079D01*
X8602825Y-12856984D02*
X8602825Y-12895079D01*
X8898063Y-13133174D02*
X8888539Y-13123650D01*
X8888539Y-13123650D02*
X8869491Y-13095079D01*
X8869491Y-13095079D02*
X8859968Y-13076031D01*
X8859968Y-13076031D02*
X8850444Y-13047460D01*
X8850444Y-13047460D02*
X8840920Y-12999841D01*
X8840920Y-12999841D02*
X8840920Y-12961746D01*
X8840920Y-12961746D02*
X8850444Y-12914127D01*
X8850444Y-12914127D02*
X8859968Y-12885555D01*
X8859968Y-12885555D02*
X8869491Y-12866508D01*
X8869491Y-12866508D02*
X8888539Y-12837936D01*
X8888539Y-12837936D02*
X8898063Y-12828412D01*
X9012349Y-12856984D02*
X9031396Y-12856984D01*
X9031396Y-12856984D02*
X9050444Y-12866508D01*
X9050444Y-12866508D02*
X9059968Y-12876031D01*
X9059968Y-12876031D02*
X9069491Y-12895079D01*
X9069491Y-12895079D02*
X9079015Y-12933174D01*
X9079015Y-12933174D02*
X9079015Y-12980793D01*
X9079015Y-12980793D02*
X9069491Y-13018888D01*
X9069491Y-13018888D02*
X9059968Y-13037936D01*
X9059968Y-13037936D02*
X9050444Y-13047460D01*
X9050444Y-13047460D02*
X9031396Y-13056984D01*
X9031396Y-13056984D02*
X9012349Y-13056984D01*
X9012349Y-13056984D02*
X8993301Y-13047460D01*
X8993301Y-13047460D02*
X8983777Y-13037936D01*
X8983777Y-13037936D02*
X8974253Y-13018888D01*
X8974253Y-13018888D02*
X8964730Y-12980793D01*
X8964730Y-12980793D02*
X8964730Y-12933174D01*
X8964730Y-12933174D02*
X8974253Y-12895079D01*
X8974253Y-12895079D02*
X8983777Y-12876031D01*
X8983777Y-12876031D02*
X8993301Y-12866508D01*
X8993301Y-12866508D02*
X9012349Y-12856984D01*
X9317111Y-13056984D02*
X9317111Y-12856984D01*
X9402825Y-13056984D02*
X9402825Y-12952222D01*
X9402825Y-12952222D02*
X9393301Y-12933174D01*
X9393301Y-12933174D02*
X9374253Y-12923650D01*
X9374253Y-12923650D02*
X9345682Y-12923650D01*
X9345682Y-12923650D02*
X9326634Y-12933174D01*
X9326634Y-12933174D02*
X9317111Y-12942698D01*
X9526634Y-13056984D02*
X9507587Y-13047460D01*
X9507587Y-13047460D02*
X9498063Y-13037936D01*
X9498063Y-13037936D02*
X9488539Y-13018888D01*
X9488539Y-13018888D02*
X9488539Y-12961746D01*
X9488539Y-12961746D02*
X9498063Y-12942698D01*
X9498063Y-12942698D02*
X9507587Y-12933174D01*
X9507587Y-12933174D02*
X9526634Y-12923650D01*
X9526634Y-12923650D02*
X9555206Y-12923650D01*
X9555206Y-12923650D02*
X9574253Y-12933174D01*
X9574253Y-12933174D02*
X9583777Y-12942698D01*
X9583777Y-12942698D02*
X9593301Y-12961746D01*
X9593301Y-12961746D02*
X9593301Y-13018888D01*
X9593301Y-13018888D02*
X9583777Y-13037936D01*
X9583777Y-13037936D02*
X9574253Y-13047460D01*
X9574253Y-13047460D02*
X9555206Y-13056984D01*
X9555206Y-13056984D02*
X9526634Y-13056984D01*
X9707587Y-13056984D02*
X9688539Y-13047460D01*
X9688539Y-13047460D02*
X9679015Y-13028412D01*
X9679015Y-13028412D02*
X9679015Y-12856984D01*
X9859968Y-13047460D02*
X9840920Y-13056984D01*
X9840920Y-13056984D02*
X9802825Y-13056984D01*
X9802825Y-13056984D02*
X9783777Y-13047460D01*
X9783777Y-13047460D02*
X9774253Y-13028412D01*
X9774253Y-13028412D02*
X9774253Y-12952222D01*
X9774253Y-12952222D02*
X9783777Y-12933174D01*
X9783777Y-12933174D02*
X9802825Y-12923650D01*
X9802825Y-12923650D02*
X9840920Y-12923650D01*
X9840920Y-12923650D02*
X9859968Y-12933174D01*
X9859968Y-12933174D02*
X9869492Y-12952222D01*
X9869492Y-12952222D02*
X9869492Y-12971269D01*
X9869492Y-12971269D02*
X9774253Y-12990317D01*
X9945682Y-13047460D02*
X9964730Y-13056984D01*
X9964730Y-13056984D02*
X10002825Y-13056984D01*
X10002825Y-13056984D02*
X10021873Y-13047460D01*
X10021873Y-13047460D02*
X10031396Y-13028412D01*
X10031396Y-13028412D02*
X10031396Y-13018888D01*
X10031396Y-13018888D02*
X10021873Y-12999841D01*
X10021873Y-12999841D02*
X10002825Y-12990317D01*
X10002825Y-12990317D02*
X9974253Y-12990317D01*
X9974253Y-12990317D02*
X9955206Y-12980793D01*
X9955206Y-12980793D02*
X9945682Y-12961746D01*
X9945682Y-12961746D02*
X9945682Y-12952222D01*
X9945682Y-12952222D02*
X9955206Y-12933174D01*
X9955206Y-12933174D02*
X9974253Y-12923650D01*
X9974253Y-12923650D02*
X10002825Y-12923650D01*
X10002825Y-12923650D02*
X10021873Y-12933174D01*
X10269492Y-12980793D02*
X10421873Y-12980793D01*
X10345682Y-13056984D02*
X10345682Y-12904603D01*
X10755206Y-12923650D02*
X10755206Y-13056984D01*
X10707587Y-12847460D02*
X10659968Y-12990317D01*
X10659968Y-12990317D02*
X10783777Y-12990317D01*
X11002825Y-13047460D02*
X11021873Y-13056984D01*
X11021873Y-13056984D02*
X11059968Y-13056984D01*
X11059968Y-13056984D02*
X11079016Y-13047460D01*
X11079016Y-13047460D02*
X11088539Y-13028412D01*
X11088539Y-13028412D02*
X11088539Y-13018888D01*
X11088539Y-13018888D02*
X11079016Y-12999841D01*
X11079016Y-12999841D02*
X11059968Y-12990317D01*
X11059968Y-12990317D02*
X11031396Y-12990317D01*
X11031396Y-12990317D02*
X11012349Y-12980793D01*
X11012349Y-12980793D02*
X11002825Y-12961746D01*
X11002825Y-12961746D02*
X11002825Y-12952222D01*
X11002825Y-12952222D02*
X11012349Y-12933174D01*
X11012349Y-12933174D02*
X11031396Y-12923650D01*
X11031396Y-12923650D02*
X11059968Y-12923650D01*
X11059968Y-12923650D02*
X11079016Y-12933174D01*
X11202825Y-13056984D02*
X11183777Y-13047460D01*
X11183777Y-13047460D02*
X11174254Y-13028412D01*
X11174254Y-13028412D02*
X11174254Y-12856984D01*
X11307587Y-13056984D02*
X11288539Y-13047460D01*
X11288539Y-13047460D02*
X11279015Y-13037936D01*
X11279015Y-13037936D02*
X11269492Y-13018888D01*
X11269492Y-13018888D02*
X11269492Y-12961746D01*
X11269492Y-12961746D02*
X11279015Y-12942698D01*
X11279015Y-12942698D02*
X11288539Y-12933174D01*
X11288539Y-12933174D02*
X11307587Y-12923650D01*
X11307587Y-12923650D02*
X11336158Y-12923650D01*
X11336158Y-12923650D02*
X11355206Y-12933174D01*
X11355206Y-12933174D02*
X11364730Y-12942698D01*
X11364730Y-12942698D02*
X11374254Y-12961746D01*
X11374254Y-12961746D02*
X11374254Y-13018888D01*
X11374254Y-13018888D02*
X11364730Y-13037936D01*
X11364730Y-13037936D02*
X11355206Y-13047460D01*
X11355206Y-13047460D02*
X11336158Y-13056984D01*
X11336158Y-13056984D02*
X11307587Y-13056984D01*
X11431396Y-12923650D02*
X11507587Y-12923650D01*
X11459968Y-12856984D02*
X11459968Y-13028412D01*
X11459968Y-13028412D02*
X11469492Y-13047460D01*
X11469492Y-13047460D02*
X11488539Y-13056984D01*
X11488539Y-13056984D02*
X11507587Y-13056984D01*
X11564730Y-13047460D02*
X11583777Y-13056984D01*
X11583777Y-13056984D02*
X11621873Y-13056984D01*
X11621873Y-13056984D02*
X11640920Y-13047460D01*
X11640920Y-13047460D02*
X11650444Y-13028412D01*
X11650444Y-13028412D02*
X11650444Y-13018888D01*
X11650444Y-13018888D02*
X11640920Y-12999841D01*
X11640920Y-12999841D02*
X11621873Y-12990317D01*
X11621873Y-12990317D02*
X11593301Y-12990317D01*
X11593301Y-12990317D02*
X11574254Y-12980793D01*
X11574254Y-12980793D02*
X11564730Y-12961746D01*
X11564730Y-12961746D02*
X11564730Y-12952222D01*
X11564730Y-12952222D02*
X11574254Y-12933174D01*
X11574254Y-12933174D02*
X11593301Y-12923650D01*
X11593301Y-12923650D02*
X11621873Y-12923650D01*
X11621873Y-12923650D02*
X11640920Y-12933174D01*
X11717111Y-13133174D02*
X11726635Y-13123650D01*
X11726635Y-13123650D02*
X11745682Y-13095079D01*
X11745682Y-13095079D02*
X11755206Y-13076031D01*
X11755206Y-13076031D02*
X11764730Y-13047460D01*
X11764730Y-13047460D02*
X11774254Y-12999841D01*
X11774254Y-12999841D02*
X11774254Y-12961746D01*
X11774254Y-12961746D02*
X11764730Y-12914127D01*
X11764730Y-12914127D02*
X11755206Y-12885555D01*
X11755206Y-12885555D02*
X11745682Y-12866508D01*
X11745682Y-12866508D02*
X11726635Y-12837936D01*
X11726635Y-12837936D02*
X11717111Y-12828412D01*
D15*
X5243000Y-13149500D02*
X5243000Y-13309500D01*
X5163000Y-13229500D02*
X5323000Y-13229500D01*
D12*
X5688539Y-13320984D02*
X5574253Y-13320984D01*
X5631396Y-13320984D02*
X5631396Y-13120984D01*
X5631396Y-13120984D02*
X5612348Y-13149555D01*
X5612348Y-13149555D02*
X5593301Y-13168603D01*
X5593301Y-13168603D02*
X5574253Y-13178127D01*
X5774253Y-13301936D02*
X5783777Y-13311460D01*
X5783777Y-13311460D02*
X5774253Y-13320984D01*
X5774253Y-13320984D02*
X5764729Y-13311460D01*
X5764729Y-13311460D02*
X5774253Y-13301936D01*
X5774253Y-13301936D02*
X5774253Y-13320984D01*
X5955205Y-13120984D02*
X5917110Y-13120984D01*
X5917110Y-13120984D02*
X5898062Y-13130508D01*
X5898062Y-13130508D02*
X5888539Y-13140031D01*
X5888539Y-13140031D02*
X5869491Y-13168603D01*
X5869491Y-13168603D02*
X5859967Y-13206698D01*
X5859967Y-13206698D02*
X5859967Y-13282888D01*
X5859967Y-13282888D02*
X5869491Y-13301936D01*
X5869491Y-13301936D02*
X5879015Y-13311460D01*
X5879015Y-13311460D02*
X5898062Y-13320984D01*
X5898062Y-13320984D02*
X5936158Y-13320984D01*
X5936158Y-13320984D02*
X5955205Y-13311460D01*
X5955205Y-13311460D02*
X5964729Y-13301936D01*
X5964729Y-13301936D02*
X5974253Y-13282888D01*
X5974253Y-13282888D02*
X5974253Y-13235269D01*
X5974253Y-13235269D02*
X5964729Y-13216222D01*
X5964729Y-13216222D02*
X5955205Y-13206698D01*
X5955205Y-13206698D02*
X5936158Y-13197174D01*
X5936158Y-13197174D02*
X5898062Y-13197174D01*
X5898062Y-13197174D02*
X5879015Y-13206698D01*
X5879015Y-13206698D02*
X5869491Y-13216222D01*
X5869491Y-13216222D02*
X5859967Y-13235269D01*
X6098062Y-13120984D02*
X6117110Y-13120984D01*
X6117110Y-13120984D02*
X6136158Y-13130508D01*
X6136158Y-13130508D02*
X6145682Y-13140031D01*
X6145682Y-13140031D02*
X6155205Y-13159079D01*
X6155205Y-13159079D02*
X6164729Y-13197174D01*
X6164729Y-13197174D02*
X6164729Y-13244793D01*
X6164729Y-13244793D02*
X6155205Y-13282888D01*
X6155205Y-13282888D02*
X6145682Y-13301936D01*
X6145682Y-13301936D02*
X6136158Y-13311460D01*
X6136158Y-13311460D02*
X6117110Y-13320984D01*
X6117110Y-13320984D02*
X6098062Y-13320984D01*
X6098062Y-13320984D02*
X6079015Y-13311460D01*
X6079015Y-13311460D02*
X6069491Y-13301936D01*
X6069491Y-13301936D02*
X6059967Y-13282888D01*
X6059967Y-13282888D02*
X6050443Y-13244793D01*
X6050443Y-13244793D02*
X6050443Y-13197174D01*
X6050443Y-13197174D02*
X6059967Y-13159079D01*
X6059967Y-13159079D02*
X6069491Y-13140031D01*
X6069491Y-13140031D02*
X6079015Y-13130508D01*
X6079015Y-13130508D02*
X6098062Y-13120984D01*
X6288539Y-13120984D02*
X6307586Y-13120984D01*
X6307586Y-13120984D02*
X6326634Y-13130508D01*
X6326634Y-13130508D02*
X6336158Y-13140031D01*
X6336158Y-13140031D02*
X6345682Y-13159079D01*
X6345682Y-13159079D02*
X6355205Y-13197174D01*
X6355205Y-13197174D02*
X6355205Y-13244793D01*
X6355205Y-13244793D02*
X6345682Y-13282888D01*
X6345682Y-13282888D02*
X6336158Y-13301936D01*
X6336158Y-13301936D02*
X6326634Y-13311460D01*
X6326634Y-13311460D02*
X6307586Y-13320984D01*
X6307586Y-13320984D02*
X6288539Y-13320984D01*
X6288539Y-13320984D02*
X6269491Y-13311460D01*
X6269491Y-13311460D02*
X6259967Y-13301936D01*
X6259967Y-13301936D02*
X6250443Y-13282888D01*
X6250443Y-13282888D02*
X6240920Y-13244793D01*
X6240920Y-13244793D02*
X6240920Y-13197174D01*
X6240920Y-13197174D02*
X6250443Y-13159079D01*
X6250443Y-13159079D02*
X6259967Y-13140031D01*
X6259967Y-13140031D02*
X6269491Y-13130508D01*
X6269491Y-13130508D02*
X6288539Y-13120984D01*
X6440920Y-13320984D02*
X6440920Y-13187650D01*
X6440920Y-13206698D02*
X6450443Y-13197174D01*
X6450443Y-13197174D02*
X6469491Y-13187650D01*
X6469491Y-13187650D02*
X6498063Y-13187650D01*
X6498063Y-13187650D02*
X6517110Y-13197174D01*
X6517110Y-13197174D02*
X6526634Y-13216222D01*
X6526634Y-13216222D02*
X6526634Y-13320984D01*
X6526634Y-13216222D02*
X6536158Y-13197174D01*
X6536158Y-13197174D02*
X6555205Y-13187650D01*
X6555205Y-13187650D02*
X6583777Y-13187650D01*
X6583777Y-13187650D02*
X6602824Y-13197174D01*
X6602824Y-13197174D02*
X6612348Y-13216222D01*
X6612348Y-13216222D02*
X6612348Y-13320984D01*
X6707586Y-13320984D02*
X6707586Y-13187650D01*
X6707586Y-13206698D02*
X6717110Y-13197174D01*
X6717110Y-13197174D02*
X6736158Y-13187650D01*
X6736158Y-13187650D02*
X6764729Y-13187650D01*
X6764729Y-13187650D02*
X6783777Y-13197174D01*
X6783777Y-13197174D02*
X6793301Y-13216222D01*
X6793301Y-13216222D02*
X6793301Y-13320984D01*
X6793301Y-13216222D02*
X6802824Y-13197174D01*
X6802824Y-13197174D02*
X6821872Y-13187650D01*
X6821872Y-13187650D02*
X6850443Y-13187650D01*
X6850443Y-13187650D02*
X6869491Y-13197174D01*
X6869491Y-13197174D02*
X6879015Y-13216222D01*
X6879015Y-13216222D02*
X6879015Y-13320984D01*
X7269491Y-13111460D02*
X7098063Y-13368603D01*
X7526634Y-13120984D02*
X7545682Y-13120984D01*
X7545682Y-13120984D02*
X7564729Y-13130508D01*
X7564729Y-13130508D02*
X7574253Y-13140031D01*
X7574253Y-13140031D02*
X7583777Y-13159079D01*
X7583777Y-13159079D02*
X7593301Y-13197174D01*
X7593301Y-13197174D02*
X7593301Y-13244793D01*
X7593301Y-13244793D02*
X7583777Y-13282888D01*
X7583777Y-13282888D02*
X7574253Y-13301936D01*
X7574253Y-13301936D02*
X7564729Y-13311460D01*
X7564729Y-13311460D02*
X7545682Y-13320984D01*
X7545682Y-13320984D02*
X7526634Y-13320984D01*
X7526634Y-13320984D02*
X7507586Y-13311460D01*
X7507586Y-13311460D02*
X7498063Y-13301936D01*
X7498063Y-13301936D02*
X7488539Y-13282888D01*
X7488539Y-13282888D02*
X7479015Y-13244793D01*
X7479015Y-13244793D02*
X7479015Y-13197174D01*
X7479015Y-13197174D02*
X7488539Y-13159079D01*
X7488539Y-13159079D02*
X7498063Y-13140031D01*
X7498063Y-13140031D02*
X7507586Y-13130508D01*
X7507586Y-13130508D02*
X7526634Y-13120984D01*
X7679015Y-13301936D02*
X7688539Y-13311460D01*
X7688539Y-13311460D02*
X7679015Y-13320984D01*
X7679015Y-13320984D02*
X7669491Y-13311460D01*
X7669491Y-13311460D02*
X7679015Y-13301936D01*
X7679015Y-13301936D02*
X7679015Y-13320984D01*
X7812348Y-13120984D02*
X7831396Y-13120984D01*
X7831396Y-13120984D02*
X7850444Y-13130508D01*
X7850444Y-13130508D02*
X7859967Y-13140031D01*
X7859967Y-13140031D02*
X7869491Y-13159079D01*
X7869491Y-13159079D02*
X7879015Y-13197174D01*
X7879015Y-13197174D02*
X7879015Y-13244793D01*
X7879015Y-13244793D02*
X7869491Y-13282888D01*
X7869491Y-13282888D02*
X7859967Y-13301936D01*
X7859967Y-13301936D02*
X7850444Y-13311460D01*
X7850444Y-13311460D02*
X7831396Y-13320984D01*
X7831396Y-13320984D02*
X7812348Y-13320984D01*
X7812348Y-13320984D02*
X7793301Y-13311460D01*
X7793301Y-13311460D02*
X7783777Y-13301936D01*
X7783777Y-13301936D02*
X7774253Y-13282888D01*
X7774253Y-13282888D02*
X7764729Y-13244793D01*
X7764729Y-13244793D02*
X7764729Y-13197174D01*
X7764729Y-13197174D02*
X7774253Y-13159079D01*
X7774253Y-13159079D02*
X7783777Y-13140031D01*
X7783777Y-13140031D02*
X7793301Y-13130508D01*
X7793301Y-13130508D02*
X7812348Y-13120984D01*
X8050444Y-13120984D02*
X8012348Y-13120984D01*
X8012348Y-13120984D02*
X7993301Y-13130508D01*
X7993301Y-13130508D02*
X7983777Y-13140031D01*
X7983777Y-13140031D02*
X7964729Y-13168603D01*
X7964729Y-13168603D02*
X7955206Y-13206698D01*
X7955206Y-13206698D02*
X7955206Y-13282888D01*
X7955206Y-13282888D02*
X7964729Y-13301936D01*
X7964729Y-13301936D02*
X7974253Y-13311460D01*
X7974253Y-13311460D02*
X7993301Y-13320984D01*
X7993301Y-13320984D02*
X8031396Y-13320984D01*
X8031396Y-13320984D02*
X8050444Y-13311460D01*
X8050444Y-13311460D02*
X8059967Y-13301936D01*
X8059967Y-13301936D02*
X8069491Y-13282888D01*
X8069491Y-13282888D02*
X8069491Y-13235269D01*
X8069491Y-13235269D02*
X8059967Y-13216222D01*
X8059967Y-13216222D02*
X8050444Y-13206698D01*
X8050444Y-13206698D02*
X8031396Y-13197174D01*
X8031396Y-13197174D02*
X7993301Y-13197174D01*
X7993301Y-13197174D02*
X7974253Y-13206698D01*
X7974253Y-13206698D02*
X7964729Y-13216222D01*
X7964729Y-13216222D02*
X7955206Y-13235269D01*
X8136158Y-13120984D02*
X8259967Y-13120984D01*
X8259967Y-13120984D02*
X8193301Y-13197174D01*
X8193301Y-13197174D02*
X8221872Y-13197174D01*
X8221872Y-13197174D02*
X8240920Y-13206698D01*
X8240920Y-13206698D02*
X8250444Y-13216222D01*
X8250444Y-13216222D02*
X8259967Y-13235269D01*
X8259967Y-13235269D02*
X8259967Y-13282888D01*
X8259967Y-13282888D02*
X8250444Y-13301936D01*
X8250444Y-13301936D02*
X8240920Y-13311460D01*
X8240920Y-13311460D02*
X8221872Y-13320984D01*
X8221872Y-13320984D02*
X8164729Y-13320984D01*
X8164729Y-13320984D02*
X8145682Y-13311460D01*
X8145682Y-13311460D02*
X8136158Y-13301936D01*
X8383777Y-13120984D02*
X8402825Y-13120984D01*
X8402825Y-13120984D02*
X8421872Y-13130508D01*
X8421872Y-13130508D02*
X8431396Y-13140031D01*
X8431396Y-13140031D02*
X8440920Y-13159079D01*
X8440920Y-13159079D02*
X8450444Y-13197174D01*
X8450444Y-13197174D02*
X8450444Y-13244793D01*
X8450444Y-13244793D02*
X8440920Y-13282888D01*
X8440920Y-13282888D02*
X8431396Y-13301936D01*
X8431396Y-13301936D02*
X8421872Y-13311460D01*
X8421872Y-13311460D02*
X8402825Y-13320984D01*
X8402825Y-13320984D02*
X8383777Y-13320984D01*
X8383777Y-13320984D02*
X8364729Y-13311460D01*
X8364729Y-13311460D02*
X8355206Y-13301936D01*
X8355206Y-13301936D02*
X8345682Y-13282888D01*
X8345682Y-13282888D02*
X8336158Y-13244793D01*
X8336158Y-13244793D02*
X8336158Y-13197174D01*
X8336158Y-13197174D02*
X8345682Y-13159079D01*
X8345682Y-13159079D02*
X8355206Y-13140031D01*
X8355206Y-13140031D02*
X8364729Y-13130508D01*
X8364729Y-13130508D02*
X8383777Y-13120984D01*
X8526634Y-13120984D02*
X8526634Y-13159079D01*
X8602825Y-13120984D02*
X8602825Y-13159079D01*
X8898063Y-13397174D02*
X8888539Y-13387650D01*
X8888539Y-13387650D02*
X8869491Y-13359079D01*
X8869491Y-13359079D02*
X8859968Y-13340031D01*
X8859968Y-13340031D02*
X8850444Y-13311460D01*
X8850444Y-13311460D02*
X8840920Y-13263841D01*
X8840920Y-13263841D02*
X8840920Y-13225746D01*
X8840920Y-13225746D02*
X8850444Y-13178127D01*
X8850444Y-13178127D02*
X8859968Y-13149555D01*
X8859968Y-13149555D02*
X8869491Y-13130508D01*
X8869491Y-13130508D02*
X8888539Y-13101936D01*
X8888539Y-13101936D02*
X8898063Y-13092412D01*
X9079015Y-13320984D02*
X8964730Y-13320984D01*
X9021872Y-13320984D02*
X9021872Y-13120984D01*
X9021872Y-13120984D02*
X9002825Y-13149555D01*
X9002825Y-13149555D02*
X8983777Y-13168603D01*
X8983777Y-13168603D02*
X8964730Y-13178127D01*
X9317111Y-13320984D02*
X9317111Y-13120984D01*
X9402825Y-13320984D02*
X9402825Y-13216222D01*
X9402825Y-13216222D02*
X9393301Y-13197174D01*
X9393301Y-13197174D02*
X9374253Y-13187650D01*
X9374253Y-13187650D02*
X9345682Y-13187650D01*
X9345682Y-13187650D02*
X9326634Y-13197174D01*
X9326634Y-13197174D02*
X9317111Y-13206698D01*
X9526634Y-13320984D02*
X9507587Y-13311460D01*
X9507587Y-13311460D02*
X9498063Y-13301936D01*
X9498063Y-13301936D02*
X9488539Y-13282888D01*
X9488539Y-13282888D02*
X9488539Y-13225746D01*
X9488539Y-13225746D02*
X9498063Y-13206698D01*
X9498063Y-13206698D02*
X9507587Y-13197174D01*
X9507587Y-13197174D02*
X9526634Y-13187650D01*
X9526634Y-13187650D02*
X9555206Y-13187650D01*
X9555206Y-13187650D02*
X9574253Y-13197174D01*
X9574253Y-13197174D02*
X9583777Y-13206698D01*
X9583777Y-13206698D02*
X9593301Y-13225746D01*
X9593301Y-13225746D02*
X9593301Y-13282888D01*
X9593301Y-13282888D02*
X9583777Y-13301936D01*
X9583777Y-13301936D02*
X9574253Y-13311460D01*
X9574253Y-13311460D02*
X9555206Y-13320984D01*
X9555206Y-13320984D02*
X9526634Y-13320984D01*
X9707587Y-13320984D02*
X9688539Y-13311460D01*
X9688539Y-13311460D02*
X9679015Y-13292412D01*
X9679015Y-13292412D02*
X9679015Y-13120984D01*
X9859968Y-13311460D02*
X9840920Y-13320984D01*
X9840920Y-13320984D02*
X9802825Y-13320984D01*
X9802825Y-13320984D02*
X9783777Y-13311460D01*
X9783777Y-13311460D02*
X9774253Y-13292412D01*
X9774253Y-13292412D02*
X9774253Y-13216222D01*
X9774253Y-13216222D02*
X9783777Y-13197174D01*
X9783777Y-13197174D02*
X9802825Y-13187650D01*
X9802825Y-13187650D02*
X9840920Y-13187650D01*
X9840920Y-13187650D02*
X9859968Y-13197174D01*
X9859968Y-13197174D02*
X9869492Y-13216222D01*
X9869492Y-13216222D02*
X9869492Y-13235269D01*
X9869492Y-13235269D02*
X9774253Y-13254317D01*
X9936158Y-13397174D02*
X9945682Y-13387650D01*
X9945682Y-13387650D02*
X9964730Y-13359079D01*
X9964730Y-13359079D02*
X9974253Y-13340031D01*
X9974253Y-13340031D02*
X9983777Y-13311460D01*
X9983777Y-13311460D02*
X9993301Y-13263841D01*
X9993301Y-13263841D02*
X9993301Y-13225746D01*
X9993301Y-13225746D02*
X9983777Y-13178127D01*
X9983777Y-13178127D02*
X9974253Y-13149555D01*
X9974253Y-13149555D02*
X9964730Y-13130508D01*
X9964730Y-13130508D02*
X9945682Y-13101936D01*
X9945682Y-13101936D02*
X9936158Y-13092412D01*
M02*
