%TF.GenerationSoftware,KiCad,Pcbnew,7.0.5*%
%TF.CreationDate,2023-06-02T10:03:58+02:00*%
%TF.ProjectId,esp32_soil_moisture_sensor,65737033-325f-4736-9f69-6c5f6d6f6973,5.3*%
%TF.SameCoordinates,Original*%
%TF.FileFunction,Paste,Bot*%
%TF.FilePolarity,Positive*%
%FSLAX46Y46*%
G04 Gerber Fmt 4.6, Leading zero omitted, Abs format (unit mm)*
G04 Created by KiCad (PCBNEW 7.0.5) date 2023-06-02 10:03:58*
%MOMM*%
%LPD*%
G01*
G04 APERTURE LIST*
G04 Aperture macros list*
%AMRoundRect*
0 Rectangle with rounded corners*
0 $1 Rounding radius*
0 $2 $3 $4 $5 $6 $7 $8 $9 X,Y pos of 4 corners*
0 Add a 4 corners polygon primitive as box body*
4,1,4,$2,$3,$4,$5,$6,$7,$8,$9,$2,$3,0*
0 Add four circle primitives for the rounded corners*
1,1,$1+$1,$2,$3*
1,1,$1+$1,$4,$5*
1,1,$1+$1,$6,$7*
1,1,$1+$1,$8,$9*
0 Add four rect primitives between the rounded corners*
20,1,$1+$1,$2,$3,$4,$5,0*
20,1,$1+$1,$4,$5,$6,$7,0*
20,1,$1+$1,$6,$7,$8,$9,0*
20,1,$1+$1,$8,$9,$2,$3,0*%
%AMFreePoly0*
4,1,7,1.500000,-0.775000,-1.500000,-0.775000,-1.500000,0.225000,-6.000000,0.225000,-6.000000,0.775000,1.500000,0.775000,1.500000,-0.775000,1.500000,-0.775000,$1*%
%AMFreePoly1*
4,1,8,1.500000,-0.775000,-1.500000,-0.775000,-6.000000,-0.775000,-6.000000,-0.225000,-1.500000,-0.225000,-1.500000,0.775000,1.500000,0.775000,1.500000,-0.775000,1.500000,-0.775000,$1*%
G04 Aperture macros list end*
%ADD10C,0.100000*%
%ADD11C,0.150000*%
%ADD12C,0.300000*%
%ADD13C,0.400000*%
%ADD14RoundRect,0.200000X0.200000X0.275000X-0.200000X0.275000X-0.200000X-0.275000X0.200000X-0.275000X0*%
%ADD15RoundRect,0.225000X-0.250000X0.225000X-0.250000X-0.225000X0.250000X-0.225000X0.250000X0.225000X0*%
%ADD16R,2.600000X1.100000*%
%ADD17FreePoly0,0.000000*%
%ADD18FreePoly1,0.000000*%
%ADD19RoundRect,0.150000X-0.150000X0.587500X-0.150000X-0.587500X0.150000X-0.587500X0.150000X0.587500X0*%
%ADD20RoundRect,0.150000X-0.150000X-0.625000X0.150000X-0.625000X0.150000X0.625000X-0.150000X0.625000X0*%
%ADD21RoundRect,0.250000X-0.350000X-0.650000X0.350000X-0.650000X0.350000X0.650000X-0.350000X0.650000X0*%
%ADD22RoundRect,0.200000X0.275000X-0.200000X0.275000X0.200000X-0.275000X0.200000X-0.275000X-0.200000X0*%
%ADD23RoundRect,0.250000X-0.450000X0.262500X-0.450000X-0.262500X0.450000X-0.262500X0.450000X0.262500X0*%
%ADD24RoundRect,0.250000X-0.475000X0.250000X-0.475000X-0.250000X0.475000X-0.250000X0.475000X0.250000X0*%
%TA.AperFunction,Profile*%
%ADD25C,0.050000*%
%TD*%
%TA.AperFunction,Profile*%
%ADD26C,0.100000*%
%TD*%
G04 APERTURE END LIST*
D10*
D11*
X177002200Y-166007200D02*
X285002200Y-166007200D01*
X285002200Y-198007200D01*
X177002200Y-198007200D01*
X177002200Y-166007200D01*
D10*
D11*
X10000000Y-10000000D02*
X287002200Y-10000000D01*
X287002200Y-200007200D01*
X10000000Y-200007200D01*
X10000000Y-10000000D01*
D10*
D11*
X12000000Y-12000000D02*
X285002200Y-12000000D01*
X285002200Y-198007200D01*
X12000000Y-198007200D01*
X12000000Y-12000000D01*
D10*
D11*
X60000000Y-12000000D02*
X60000000Y-10000000D01*
D10*
D11*
X110000000Y-12000000D02*
X110000000Y-10000000D01*
D10*
D11*
X160000000Y-12000000D02*
X160000000Y-10000000D01*
D10*
D11*
X210000000Y-12000000D02*
X210000000Y-10000000D01*
D10*
D11*
X260000000Y-12000000D02*
X260000000Y-10000000D01*
D10*
D11*
X36089160Y-11593604D02*
X35346303Y-11593604D01*
X35717731Y-11593604D02*
X35717731Y-10293604D01*
X35717731Y-10293604D02*
X35593922Y-10479319D01*
X35593922Y-10479319D02*
X35470112Y-10603128D01*
X35470112Y-10603128D02*
X35346303Y-10665033D01*
D10*
D11*
X85346303Y-10417414D02*
X85408207Y-10355509D01*
X85408207Y-10355509D02*
X85532017Y-10293604D01*
X85532017Y-10293604D02*
X85841541Y-10293604D01*
X85841541Y-10293604D02*
X85965350Y-10355509D01*
X85965350Y-10355509D02*
X86027255Y-10417414D01*
X86027255Y-10417414D02*
X86089160Y-10541223D01*
X86089160Y-10541223D02*
X86089160Y-10665033D01*
X86089160Y-10665033D02*
X86027255Y-10850747D01*
X86027255Y-10850747D02*
X85284398Y-11593604D01*
X85284398Y-11593604D02*
X86089160Y-11593604D01*
D10*
D11*
X135284398Y-10293604D02*
X136089160Y-10293604D01*
X136089160Y-10293604D02*
X135655826Y-10788842D01*
X135655826Y-10788842D02*
X135841541Y-10788842D01*
X135841541Y-10788842D02*
X135965350Y-10850747D01*
X135965350Y-10850747D02*
X136027255Y-10912652D01*
X136027255Y-10912652D02*
X136089160Y-11036461D01*
X136089160Y-11036461D02*
X136089160Y-11345985D01*
X136089160Y-11345985D02*
X136027255Y-11469795D01*
X136027255Y-11469795D02*
X135965350Y-11531700D01*
X135965350Y-11531700D02*
X135841541Y-11593604D01*
X135841541Y-11593604D02*
X135470112Y-11593604D01*
X135470112Y-11593604D02*
X135346303Y-11531700D01*
X135346303Y-11531700D02*
X135284398Y-11469795D01*
D10*
D11*
X185965350Y-10726938D02*
X185965350Y-11593604D01*
X185655826Y-10231700D02*
X185346303Y-11160271D01*
X185346303Y-11160271D02*
X186151064Y-11160271D01*
D10*
D11*
X236027255Y-10293604D02*
X235408207Y-10293604D01*
X235408207Y-10293604D02*
X235346303Y-10912652D01*
X235346303Y-10912652D02*
X235408207Y-10850747D01*
X235408207Y-10850747D02*
X235532017Y-10788842D01*
X235532017Y-10788842D02*
X235841541Y-10788842D01*
X235841541Y-10788842D02*
X235965350Y-10850747D01*
X235965350Y-10850747D02*
X236027255Y-10912652D01*
X236027255Y-10912652D02*
X236089160Y-11036461D01*
X236089160Y-11036461D02*
X236089160Y-11345985D01*
X236089160Y-11345985D02*
X236027255Y-11469795D01*
X236027255Y-11469795D02*
X235965350Y-11531700D01*
X235965350Y-11531700D02*
X235841541Y-11593604D01*
X235841541Y-11593604D02*
X235532017Y-11593604D01*
X235532017Y-11593604D02*
X235408207Y-11531700D01*
X235408207Y-11531700D02*
X235346303Y-11469795D01*
D10*
D11*
X285965350Y-10293604D02*
X285717731Y-10293604D01*
X285717731Y-10293604D02*
X285593922Y-10355509D01*
X285593922Y-10355509D02*
X285532017Y-10417414D01*
X285532017Y-10417414D02*
X285408207Y-10603128D01*
X285408207Y-10603128D02*
X285346303Y-10850747D01*
X285346303Y-10850747D02*
X285346303Y-11345985D01*
X285346303Y-11345985D02*
X285408207Y-11469795D01*
X285408207Y-11469795D02*
X285470112Y-11531700D01*
X285470112Y-11531700D02*
X285593922Y-11593604D01*
X285593922Y-11593604D02*
X285841541Y-11593604D01*
X285841541Y-11593604D02*
X285965350Y-11531700D01*
X285965350Y-11531700D02*
X286027255Y-11469795D01*
X286027255Y-11469795D02*
X286089160Y-11345985D01*
X286089160Y-11345985D02*
X286089160Y-11036461D01*
X286089160Y-11036461D02*
X286027255Y-10912652D01*
X286027255Y-10912652D02*
X285965350Y-10850747D01*
X285965350Y-10850747D02*
X285841541Y-10788842D01*
X285841541Y-10788842D02*
X285593922Y-10788842D01*
X285593922Y-10788842D02*
X285470112Y-10850747D01*
X285470112Y-10850747D02*
X285408207Y-10912652D01*
X285408207Y-10912652D02*
X285346303Y-11036461D01*
D10*
D11*
X60000000Y-198007200D02*
X60000000Y-200007200D01*
D10*
D11*
X110000000Y-198007200D02*
X110000000Y-200007200D01*
D10*
D11*
X160000000Y-198007200D02*
X160000000Y-200007200D01*
D10*
D11*
X210000000Y-198007200D02*
X210000000Y-200007200D01*
D10*
D11*
X260000000Y-198007200D02*
X260000000Y-200007200D01*
D10*
D11*
X36089160Y-199600804D02*
X35346303Y-199600804D01*
X35717731Y-199600804D02*
X35717731Y-198300804D01*
X35717731Y-198300804D02*
X35593922Y-198486519D01*
X35593922Y-198486519D02*
X35470112Y-198610328D01*
X35470112Y-198610328D02*
X35346303Y-198672233D01*
D10*
D11*
X85346303Y-198424614D02*
X85408207Y-198362709D01*
X85408207Y-198362709D02*
X85532017Y-198300804D01*
X85532017Y-198300804D02*
X85841541Y-198300804D01*
X85841541Y-198300804D02*
X85965350Y-198362709D01*
X85965350Y-198362709D02*
X86027255Y-198424614D01*
X86027255Y-198424614D02*
X86089160Y-198548423D01*
X86089160Y-198548423D02*
X86089160Y-198672233D01*
X86089160Y-198672233D02*
X86027255Y-198857947D01*
X86027255Y-198857947D02*
X85284398Y-199600804D01*
X85284398Y-199600804D02*
X86089160Y-199600804D01*
D10*
D11*
X135284398Y-198300804D02*
X136089160Y-198300804D01*
X136089160Y-198300804D02*
X135655826Y-198796042D01*
X135655826Y-198796042D02*
X135841541Y-198796042D01*
X135841541Y-198796042D02*
X135965350Y-198857947D01*
X135965350Y-198857947D02*
X136027255Y-198919852D01*
X136027255Y-198919852D02*
X136089160Y-199043661D01*
X136089160Y-199043661D02*
X136089160Y-199353185D01*
X136089160Y-199353185D02*
X136027255Y-199476995D01*
X136027255Y-199476995D02*
X135965350Y-199538900D01*
X135965350Y-199538900D02*
X135841541Y-199600804D01*
X135841541Y-199600804D02*
X135470112Y-199600804D01*
X135470112Y-199600804D02*
X135346303Y-199538900D01*
X135346303Y-199538900D02*
X135284398Y-199476995D01*
D10*
D11*
X185965350Y-198734138D02*
X185965350Y-199600804D01*
X185655826Y-198238900D02*
X185346303Y-199167471D01*
X185346303Y-199167471D02*
X186151064Y-199167471D01*
D10*
D11*
X236027255Y-198300804D02*
X235408207Y-198300804D01*
X235408207Y-198300804D02*
X235346303Y-198919852D01*
X235346303Y-198919852D02*
X235408207Y-198857947D01*
X235408207Y-198857947D02*
X235532017Y-198796042D01*
X235532017Y-198796042D02*
X235841541Y-198796042D01*
X235841541Y-198796042D02*
X235965350Y-198857947D01*
X235965350Y-198857947D02*
X236027255Y-198919852D01*
X236027255Y-198919852D02*
X236089160Y-199043661D01*
X236089160Y-199043661D02*
X236089160Y-199353185D01*
X236089160Y-199353185D02*
X236027255Y-199476995D01*
X236027255Y-199476995D02*
X235965350Y-199538900D01*
X235965350Y-199538900D02*
X235841541Y-199600804D01*
X235841541Y-199600804D02*
X235532017Y-199600804D01*
X235532017Y-199600804D02*
X235408207Y-199538900D01*
X235408207Y-199538900D02*
X235346303Y-199476995D01*
D10*
D11*
X285965350Y-198300804D02*
X285717731Y-198300804D01*
X285717731Y-198300804D02*
X285593922Y-198362709D01*
X285593922Y-198362709D02*
X285532017Y-198424614D01*
X285532017Y-198424614D02*
X285408207Y-198610328D01*
X285408207Y-198610328D02*
X285346303Y-198857947D01*
X285346303Y-198857947D02*
X285346303Y-199353185D01*
X285346303Y-199353185D02*
X285408207Y-199476995D01*
X285408207Y-199476995D02*
X285470112Y-199538900D01*
X285470112Y-199538900D02*
X285593922Y-199600804D01*
X285593922Y-199600804D02*
X285841541Y-199600804D01*
X285841541Y-199600804D02*
X285965350Y-199538900D01*
X285965350Y-199538900D02*
X286027255Y-199476995D01*
X286027255Y-199476995D02*
X286089160Y-199353185D01*
X286089160Y-199353185D02*
X286089160Y-199043661D01*
X286089160Y-199043661D02*
X286027255Y-198919852D01*
X286027255Y-198919852D02*
X285965350Y-198857947D01*
X285965350Y-198857947D02*
X285841541Y-198796042D01*
X285841541Y-198796042D02*
X285593922Y-198796042D01*
X285593922Y-198796042D02*
X285470112Y-198857947D01*
X285470112Y-198857947D02*
X285408207Y-198919852D01*
X285408207Y-198919852D02*
X285346303Y-199043661D01*
D10*
D11*
X10000000Y-60000000D02*
X12000000Y-60000000D01*
D10*
D11*
X10000000Y-110000000D02*
X12000000Y-110000000D01*
D10*
D11*
X10000000Y-160000000D02*
X12000000Y-160000000D01*
D10*
D11*
X10690476Y-35222176D02*
X11309523Y-35222176D01*
X10566666Y-35593604D02*
X10999999Y-34293604D01*
X10999999Y-34293604D02*
X11433333Y-35593604D01*
D10*
D11*
X11092857Y-84912652D02*
X11278571Y-84974557D01*
X11278571Y-84974557D02*
X11340476Y-85036461D01*
X11340476Y-85036461D02*
X11402380Y-85160271D01*
X11402380Y-85160271D02*
X11402380Y-85345985D01*
X11402380Y-85345985D02*
X11340476Y-85469795D01*
X11340476Y-85469795D02*
X11278571Y-85531700D01*
X11278571Y-85531700D02*
X11154761Y-85593604D01*
X11154761Y-85593604D02*
X10659523Y-85593604D01*
X10659523Y-85593604D02*
X10659523Y-84293604D01*
X10659523Y-84293604D02*
X11092857Y-84293604D01*
X11092857Y-84293604D02*
X11216666Y-84355509D01*
X11216666Y-84355509D02*
X11278571Y-84417414D01*
X11278571Y-84417414D02*
X11340476Y-84541223D01*
X11340476Y-84541223D02*
X11340476Y-84665033D01*
X11340476Y-84665033D02*
X11278571Y-84788842D01*
X11278571Y-84788842D02*
X11216666Y-84850747D01*
X11216666Y-84850747D02*
X11092857Y-84912652D01*
X11092857Y-84912652D02*
X10659523Y-84912652D01*
D10*
D11*
X11402380Y-135469795D02*
X11340476Y-135531700D01*
X11340476Y-135531700D02*
X11154761Y-135593604D01*
X11154761Y-135593604D02*
X11030952Y-135593604D01*
X11030952Y-135593604D02*
X10845238Y-135531700D01*
X10845238Y-135531700D02*
X10721428Y-135407890D01*
X10721428Y-135407890D02*
X10659523Y-135284080D01*
X10659523Y-135284080D02*
X10597619Y-135036461D01*
X10597619Y-135036461D02*
X10597619Y-134850747D01*
X10597619Y-134850747D02*
X10659523Y-134603128D01*
X10659523Y-134603128D02*
X10721428Y-134479319D01*
X10721428Y-134479319D02*
X10845238Y-134355509D01*
X10845238Y-134355509D02*
X11030952Y-134293604D01*
X11030952Y-134293604D02*
X11154761Y-134293604D01*
X11154761Y-134293604D02*
X11340476Y-134355509D01*
X11340476Y-134355509D02*
X11402380Y-134417414D01*
D10*
D11*
X10659523Y-185593604D02*
X10659523Y-184293604D01*
X10659523Y-184293604D02*
X10969047Y-184293604D01*
X10969047Y-184293604D02*
X11154761Y-184355509D01*
X11154761Y-184355509D02*
X11278571Y-184479319D01*
X11278571Y-184479319D02*
X11340476Y-184603128D01*
X11340476Y-184603128D02*
X11402380Y-184850747D01*
X11402380Y-184850747D02*
X11402380Y-185036461D01*
X11402380Y-185036461D02*
X11340476Y-185284080D01*
X11340476Y-185284080D02*
X11278571Y-185407890D01*
X11278571Y-185407890D02*
X11154761Y-185531700D01*
X11154761Y-185531700D02*
X10969047Y-185593604D01*
X10969047Y-185593604D02*
X10659523Y-185593604D01*
D10*
D11*
X287002200Y-60000000D02*
X285002200Y-60000000D01*
D10*
D11*
X287002200Y-110000000D02*
X285002200Y-110000000D01*
D10*
D11*
X287002200Y-160000000D02*
X285002200Y-160000000D01*
D10*
D11*
X285692676Y-35222176D02*
X286311723Y-35222176D01*
X285568866Y-35593604D02*
X286002199Y-34293604D01*
X286002199Y-34293604D02*
X286435533Y-35593604D01*
D10*
D11*
X286095057Y-84912652D02*
X286280771Y-84974557D01*
X286280771Y-84974557D02*
X286342676Y-85036461D01*
X286342676Y-85036461D02*
X286404580Y-85160271D01*
X286404580Y-85160271D02*
X286404580Y-85345985D01*
X286404580Y-85345985D02*
X286342676Y-85469795D01*
X286342676Y-85469795D02*
X286280771Y-85531700D01*
X286280771Y-85531700D02*
X286156961Y-85593604D01*
X286156961Y-85593604D02*
X285661723Y-85593604D01*
X285661723Y-85593604D02*
X285661723Y-84293604D01*
X285661723Y-84293604D02*
X286095057Y-84293604D01*
X286095057Y-84293604D02*
X286218866Y-84355509D01*
X286218866Y-84355509D02*
X286280771Y-84417414D01*
X286280771Y-84417414D02*
X286342676Y-84541223D01*
X286342676Y-84541223D02*
X286342676Y-84665033D01*
X286342676Y-84665033D02*
X286280771Y-84788842D01*
X286280771Y-84788842D02*
X286218866Y-84850747D01*
X286218866Y-84850747D02*
X286095057Y-84912652D01*
X286095057Y-84912652D02*
X285661723Y-84912652D01*
D10*
D11*
X286404580Y-135469795D02*
X286342676Y-135531700D01*
X286342676Y-135531700D02*
X286156961Y-135593604D01*
X286156961Y-135593604D02*
X286033152Y-135593604D01*
X286033152Y-135593604D02*
X285847438Y-135531700D01*
X285847438Y-135531700D02*
X285723628Y-135407890D01*
X285723628Y-135407890D02*
X285661723Y-135284080D01*
X285661723Y-135284080D02*
X285599819Y-135036461D01*
X285599819Y-135036461D02*
X285599819Y-134850747D01*
X285599819Y-134850747D02*
X285661723Y-134603128D01*
X285661723Y-134603128D02*
X285723628Y-134479319D01*
X285723628Y-134479319D02*
X285847438Y-134355509D01*
X285847438Y-134355509D02*
X286033152Y-134293604D01*
X286033152Y-134293604D02*
X286156961Y-134293604D01*
X286156961Y-134293604D02*
X286342676Y-134355509D01*
X286342676Y-134355509D02*
X286404580Y-134417414D01*
D10*
D11*
X285661723Y-185593604D02*
X285661723Y-184293604D01*
X285661723Y-184293604D02*
X285971247Y-184293604D01*
X285971247Y-184293604D02*
X286156961Y-184355509D01*
X286156961Y-184355509D02*
X286280771Y-184479319D01*
X286280771Y-184479319D02*
X286342676Y-184603128D01*
X286342676Y-184603128D02*
X286404580Y-184850747D01*
X286404580Y-184850747D02*
X286404580Y-185036461D01*
X286404580Y-185036461D02*
X286342676Y-185284080D01*
X286342676Y-185284080D02*
X286280771Y-185407890D01*
X286280771Y-185407890D02*
X286156961Y-185531700D01*
X286156961Y-185531700D02*
X285971247Y-185593604D01*
X285971247Y-185593604D02*
X285661723Y-185593604D01*
D10*
D11*
X200458026Y-193793328D02*
X200458026Y-192293328D01*
X200458026Y-192293328D02*
X200815169Y-192293328D01*
X200815169Y-192293328D02*
X201029455Y-192364757D01*
X201029455Y-192364757D02*
X201172312Y-192507614D01*
X201172312Y-192507614D02*
X201243741Y-192650471D01*
X201243741Y-192650471D02*
X201315169Y-192936185D01*
X201315169Y-192936185D02*
X201315169Y-193150471D01*
X201315169Y-193150471D02*
X201243741Y-193436185D01*
X201243741Y-193436185D02*
X201172312Y-193579042D01*
X201172312Y-193579042D02*
X201029455Y-193721900D01*
X201029455Y-193721900D02*
X200815169Y-193793328D01*
X200815169Y-193793328D02*
X200458026Y-193793328D01*
X202600884Y-193793328D02*
X202600884Y-193007614D01*
X202600884Y-193007614D02*
X202529455Y-192864757D01*
X202529455Y-192864757D02*
X202386598Y-192793328D01*
X202386598Y-192793328D02*
X202100884Y-192793328D01*
X202100884Y-192793328D02*
X201958026Y-192864757D01*
X202600884Y-193721900D02*
X202458026Y-193793328D01*
X202458026Y-193793328D02*
X202100884Y-193793328D01*
X202100884Y-193793328D02*
X201958026Y-193721900D01*
X201958026Y-193721900D02*
X201886598Y-193579042D01*
X201886598Y-193579042D02*
X201886598Y-193436185D01*
X201886598Y-193436185D02*
X201958026Y-193293328D01*
X201958026Y-193293328D02*
X202100884Y-193221900D01*
X202100884Y-193221900D02*
X202458026Y-193221900D01*
X202458026Y-193221900D02*
X202600884Y-193150471D01*
X203100884Y-192793328D02*
X203672312Y-192793328D01*
X203315169Y-192293328D02*
X203315169Y-193579042D01*
X203315169Y-193579042D02*
X203386598Y-193721900D01*
X203386598Y-193721900D02*
X203529455Y-193793328D01*
X203529455Y-193793328D02*
X203672312Y-193793328D01*
X204743741Y-193721900D02*
X204600884Y-193793328D01*
X204600884Y-193793328D02*
X204315170Y-193793328D01*
X204315170Y-193793328D02*
X204172312Y-193721900D01*
X204172312Y-193721900D02*
X204100884Y-193579042D01*
X204100884Y-193579042D02*
X204100884Y-193007614D01*
X204100884Y-193007614D02*
X204172312Y-192864757D01*
X204172312Y-192864757D02*
X204315170Y-192793328D01*
X204315170Y-192793328D02*
X204600884Y-192793328D01*
X204600884Y-192793328D02*
X204743741Y-192864757D01*
X204743741Y-192864757D02*
X204815170Y-193007614D01*
X204815170Y-193007614D02*
X204815170Y-193150471D01*
X204815170Y-193150471D02*
X204100884Y-193293328D01*
X205458026Y-193650471D02*
X205529455Y-193721900D01*
X205529455Y-193721900D02*
X205458026Y-193793328D01*
X205458026Y-193793328D02*
X205386598Y-193721900D01*
X205386598Y-193721900D02*
X205458026Y-193650471D01*
X205458026Y-193650471D02*
X205458026Y-193793328D01*
X205458026Y-192864757D02*
X205529455Y-192936185D01*
X205529455Y-192936185D02*
X205458026Y-193007614D01*
X205458026Y-193007614D02*
X205386598Y-192936185D01*
X205386598Y-192936185D02*
X205458026Y-192864757D01*
X205458026Y-192864757D02*
X205458026Y-193007614D01*
X207243741Y-192436185D02*
X207315169Y-192364757D01*
X207315169Y-192364757D02*
X207458027Y-192293328D01*
X207458027Y-192293328D02*
X207815169Y-192293328D01*
X207815169Y-192293328D02*
X207958027Y-192364757D01*
X207958027Y-192364757D02*
X208029455Y-192436185D01*
X208029455Y-192436185D02*
X208100884Y-192579042D01*
X208100884Y-192579042D02*
X208100884Y-192721900D01*
X208100884Y-192721900D02*
X208029455Y-192936185D01*
X208029455Y-192936185D02*
X207172312Y-193793328D01*
X207172312Y-193793328D02*
X208100884Y-193793328D01*
X209029455Y-192293328D02*
X209172312Y-192293328D01*
X209172312Y-192293328D02*
X209315169Y-192364757D01*
X209315169Y-192364757D02*
X209386598Y-192436185D01*
X209386598Y-192436185D02*
X209458026Y-192579042D01*
X209458026Y-192579042D02*
X209529455Y-192864757D01*
X209529455Y-192864757D02*
X209529455Y-193221900D01*
X209529455Y-193221900D02*
X209458026Y-193507614D01*
X209458026Y-193507614D02*
X209386598Y-193650471D01*
X209386598Y-193650471D02*
X209315169Y-193721900D01*
X209315169Y-193721900D02*
X209172312Y-193793328D01*
X209172312Y-193793328D02*
X209029455Y-193793328D01*
X209029455Y-193793328D02*
X208886598Y-193721900D01*
X208886598Y-193721900D02*
X208815169Y-193650471D01*
X208815169Y-193650471D02*
X208743740Y-193507614D01*
X208743740Y-193507614D02*
X208672312Y-193221900D01*
X208672312Y-193221900D02*
X208672312Y-192864757D01*
X208672312Y-192864757D02*
X208743740Y-192579042D01*
X208743740Y-192579042D02*
X208815169Y-192436185D01*
X208815169Y-192436185D02*
X208886598Y-192364757D01*
X208886598Y-192364757D02*
X209029455Y-192293328D01*
X210100883Y-192436185D02*
X210172311Y-192364757D01*
X210172311Y-192364757D02*
X210315169Y-192293328D01*
X210315169Y-192293328D02*
X210672311Y-192293328D01*
X210672311Y-192293328D02*
X210815169Y-192364757D01*
X210815169Y-192364757D02*
X210886597Y-192436185D01*
X210886597Y-192436185D02*
X210958026Y-192579042D01*
X210958026Y-192579042D02*
X210958026Y-192721900D01*
X210958026Y-192721900D02*
X210886597Y-192936185D01*
X210886597Y-192936185D02*
X210029454Y-193793328D01*
X210029454Y-193793328D02*
X210958026Y-193793328D01*
X212386597Y-193793328D02*
X211529454Y-193793328D01*
X211958025Y-193793328D02*
X211958025Y-192293328D01*
X211958025Y-192293328D02*
X211815168Y-192507614D01*
X211815168Y-192507614D02*
X211672311Y-192650471D01*
X211672311Y-192650471D02*
X211529454Y-192721900D01*
X213029453Y-193221900D02*
X214172311Y-193221900D01*
X215672311Y-193793328D02*
X214815168Y-193793328D01*
X215243739Y-193793328D02*
X215243739Y-192293328D01*
X215243739Y-192293328D02*
X215100882Y-192507614D01*
X215100882Y-192507614D02*
X214958025Y-192650471D01*
X214958025Y-192650471D02*
X214815168Y-192721900D01*
X216243739Y-192436185D02*
X216315167Y-192364757D01*
X216315167Y-192364757D02*
X216458025Y-192293328D01*
X216458025Y-192293328D02*
X216815167Y-192293328D01*
X216815167Y-192293328D02*
X216958025Y-192364757D01*
X216958025Y-192364757D02*
X217029453Y-192436185D01*
X217029453Y-192436185D02*
X217100882Y-192579042D01*
X217100882Y-192579042D02*
X217100882Y-192721900D01*
X217100882Y-192721900D02*
X217029453Y-192936185D01*
X217029453Y-192936185D02*
X216172310Y-193793328D01*
X216172310Y-193793328D02*
X217100882Y-193793328D01*
X217743738Y-193221900D02*
X218886596Y-193221900D01*
X219529453Y-192436185D02*
X219600881Y-192364757D01*
X219600881Y-192364757D02*
X219743739Y-192293328D01*
X219743739Y-192293328D02*
X220100881Y-192293328D01*
X220100881Y-192293328D02*
X220243739Y-192364757D01*
X220243739Y-192364757D02*
X220315167Y-192436185D01*
X220315167Y-192436185D02*
X220386596Y-192579042D01*
X220386596Y-192579042D02*
X220386596Y-192721900D01*
X220386596Y-192721900D02*
X220315167Y-192936185D01*
X220315167Y-192936185D02*
X219458024Y-193793328D01*
X219458024Y-193793328D02*
X220386596Y-193793328D01*
X221243738Y-192936185D02*
X221100881Y-192864757D01*
X221100881Y-192864757D02*
X221029452Y-192793328D01*
X221029452Y-192793328D02*
X220958024Y-192650471D01*
X220958024Y-192650471D02*
X220958024Y-192579042D01*
X220958024Y-192579042D02*
X221029452Y-192436185D01*
X221029452Y-192436185D02*
X221100881Y-192364757D01*
X221100881Y-192364757D02*
X221243738Y-192293328D01*
X221243738Y-192293328D02*
X221529452Y-192293328D01*
X221529452Y-192293328D02*
X221672310Y-192364757D01*
X221672310Y-192364757D02*
X221743738Y-192436185D01*
X221743738Y-192436185D02*
X221815167Y-192579042D01*
X221815167Y-192579042D02*
X221815167Y-192650471D01*
X221815167Y-192650471D02*
X221743738Y-192793328D01*
X221743738Y-192793328D02*
X221672310Y-192864757D01*
X221672310Y-192864757D02*
X221529452Y-192936185D01*
X221529452Y-192936185D02*
X221243738Y-192936185D01*
X221243738Y-192936185D02*
X221100881Y-193007614D01*
X221100881Y-193007614D02*
X221029452Y-193079042D01*
X221029452Y-193079042D02*
X220958024Y-193221900D01*
X220958024Y-193221900D02*
X220958024Y-193507614D01*
X220958024Y-193507614D02*
X221029452Y-193650471D01*
X221029452Y-193650471D02*
X221100881Y-193721900D01*
X221100881Y-193721900D02*
X221243738Y-193793328D01*
X221243738Y-193793328D02*
X221529452Y-193793328D01*
X221529452Y-193793328D02*
X221672310Y-193721900D01*
X221672310Y-193721900D02*
X221743738Y-193650471D01*
X221743738Y-193650471D02*
X221815167Y-193507614D01*
X221815167Y-193507614D02*
X221815167Y-193221900D01*
X221815167Y-193221900D02*
X221743738Y-193079042D01*
X221743738Y-193079042D02*
X221672310Y-193007614D01*
X221672310Y-193007614D02*
X221529452Y-192936185D01*
D10*
D11*
X177002200Y-194507200D02*
X285002200Y-194507200D01*
D10*
D11*
X178458026Y-196593328D02*
X178458026Y-195093328D01*
X179315169Y-196593328D02*
X178672312Y-195736185D01*
X179315169Y-195093328D02*
X178458026Y-195950471D01*
X179958026Y-196593328D02*
X179958026Y-195593328D01*
X179958026Y-195093328D02*
X179886598Y-195164757D01*
X179886598Y-195164757D02*
X179958026Y-195236185D01*
X179958026Y-195236185D02*
X180029455Y-195164757D01*
X180029455Y-195164757D02*
X179958026Y-195093328D01*
X179958026Y-195093328D02*
X179958026Y-195236185D01*
X181529455Y-196450471D02*
X181458027Y-196521900D01*
X181458027Y-196521900D02*
X181243741Y-196593328D01*
X181243741Y-196593328D02*
X181100884Y-196593328D01*
X181100884Y-196593328D02*
X180886598Y-196521900D01*
X180886598Y-196521900D02*
X180743741Y-196379042D01*
X180743741Y-196379042D02*
X180672312Y-196236185D01*
X180672312Y-196236185D02*
X180600884Y-195950471D01*
X180600884Y-195950471D02*
X180600884Y-195736185D01*
X180600884Y-195736185D02*
X180672312Y-195450471D01*
X180672312Y-195450471D02*
X180743741Y-195307614D01*
X180743741Y-195307614D02*
X180886598Y-195164757D01*
X180886598Y-195164757D02*
X181100884Y-195093328D01*
X181100884Y-195093328D02*
X181243741Y-195093328D01*
X181243741Y-195093328D02*
X181458027Y-195164757D01*
X181458027Y-195164757D02*
X181529455Y-195236185D01*
X182815170Y-196593328D02*
X182815170Y-195807614D01*
X182815170Y-195807614D02*
X182743741Y-195664757D01*
X182743741Y-195664757D02*
X182600884Y-195593328D01*
X182600884Y-195593328D02*
X182315170Y-195593328D01*
X182315170Y-195593328D02*
X182172312Y-195664757D01*
X182815170Y-196521900D02*
X182672312Y-196593328D01*
X182672312Y-196593328D02*
X182315170Y-196593328D01*
X182315170Y-196593328D02*
X182172312Y-196521900D01*
X182172312Y-196521900D02*
X182100884Y-196379042D01*
X182100884Y-196379042D02*
X182100884Y-196236185D01*
X182100884Y-196236185D02*
X182172312Y-196093328D01*
X182172312Y-196093328D02*
X182315170Y-196021900D01*
X182315170Y-196021900D02*
X182672312Y-196021900D01*
X182672312Y-196021900D02*
X182815170Y-195950471D01*
X184172313Y-196593328D02*
X184172313Y-195093328D01*
X184172313Y-196521900D02*
X184029455Y-196593328D01*
X184029455Y-196593328D02*
X183743741Y-196593328D01*
X183743741Y-196593328D02*
X183600884Y-196521900D01*
X183600884Y-196521900D02*
X183529455Y-196450471D01*
X183529455Y-196450471D02*
X183458027Y-196307614D01*
X183458027Y-196307614D02*
X183458027Y-195879042D01*
X183458027Y-195879042D02*
X183529455Y-195736185D01*
X183529455Y-195736185D02*
X183600884Y-195664757D01*
X183600884Y-195664757D02*
X183743741Y-195593328D01*
X183743741Y-195593328D02*
X184029455Y-195593328D01*
X184029455Y-195593328D02*
X184172313Y-195664757D01*
X186029455Y-195807614D02*
X186529455Y-195807614D01*
X186743741Y-196593328D02*
X186029455Y-196593328D01*
X186029455Y-196593328D02*
X186029455Y-195093328D01*
X186029455Y-195093328D02*
X186743741Y-195093328D01*
X187386598Y-196450471D02*
X187458027Y-196521900D01*
X187458027Y-196521900D02*
X187386598Y-196593328D01*
X187386598Y-196593328D02*
X187315170Y-196521900D01*
X187315170Y-196521900D02*
X187386598Y-196450471D01*
X187386598Y-196450471D02*
X187386598Y-196593328D01*
X188100884Y-196593328D02*
X188100884Y-195093328D01*
X188100884Y-195093328D02*
X188458027Y-195093328D01*
X188458027Y-195093328D02*
X188672313Y-195164757D01*
X188672313Y-195164757D02*
X188815170Y-195307614D01*
X188815170Y-195307614D02*
X188886599Y-195450471D01*
X188886599Y-195450471D02*
X188958027Y-195736185D01*
X188958027Y-195736185D02*
X188958027Y-195950471D01*
X188958027Y-195950471D02*
X188886599Y-196236185D01*
X188886599Y-196236185D02*
X188815170Y-196379042D01*
X188815170Y-196379042D02*
X188672313Y-196521900D01*
X188672313Y-196521900D02*
X188458027Y-196593328D01*
X188458027Y-196593328D02*
X188100884Y-196593328D01*
X189600884Y-196450471D02*
X189672313Y-196521900D01*
X189672313Y-196521900D02*
X189600884Y-196593328D01*
X189600884Y-196593328D02*
X189529456Y-196521900D01*
X189529456Y-196521900D02*
X189600884Y-196450471D01*
X189600884Y-196450471D02*
X189600884Y-196593328D01*
X190243742Y-196164757D02*
X190958028Y-196164757D01*
X190100885Y-196593328D02*
X190600885Y-195093328D01*
X190600885Y-195093328D02*
X191100885Y-196593328D01*
X191600884Y-196450471D02*
X191672313Y-196521900D01*
X191672313Y-196521900D02*
X191600884Y-196593328D01*
X191600884Y-196593328D02*
X191529456Y-196521900D01*
X191529456Y-196521900D02*
X191600884Y-196450471D01*
X191600884Y-196450471D02*
X191600884Y-196593328D01*
X194600884Y-196593328D02*
X194600884Y-195093328D01*
X194743742Y-196021900D02*
X195172313Y-196593328D01*
X195172313Y-195593328D02*
X194600884Y-196164757D01*
X195815170Y-196593328D02*
X195815170Y-195593328D01*
X195815170Y-195093328D02*
X195743742Y-195164757D01*
X195743742Y-195164757D02*
X195815170Y-195236185D01*
X195815170Y-195236185D02*
X195886599Y-195164757D01*
X195886599Y-195164757D02*
X195815170Y-195093328D01*
X195815170Y-195093328D02*
X195815170Y-195236185D01*
X197172314Y-196521900D02*
X197029456Y-196593328D01*
X197029456Y-196593328D02*
X196743742Y-196593328D01*
X196743742Y-196593328D02*
X196600885Y-196521900D01*
X196600885Y-196521900D02*
X196529456Y-196450471D01*
X196529456Y-196450471D02*
X196458028Y-196307614D01*
X196458028Y-196307614D02*
X196458028Y-195879042D01*
X196458028Y-195879042D02*
X196529456Y-195736185D01*
X196529456Y-195736185D02*
X196600885Y-195664757D01*
X196600885Y-195664757D02*
X196743742Y-195593328D01*
X196743742Y-195593328D02*
X197029456Y-195593328D01*
X197029456Y-195593328D02*
X197172314Y-195664757D01*
X198458028Y-196593328D02*
X198458028Y-195807614D01*
X198458028Y-195807614D02*
X198386599Y-195664757D01*
X198386599Y-195664757D02*
X198243742Y-195593328D01*
X198243742Y-195593328D02*
X197958028Y-195593328D01*
X197958028Y-195593328D02*
X197815170Y-195664757D01*
X198458028Y-196521900D02*
X198315170Y-196593328D01*
X198315170Y-196593328D02*
X197958028Y-196593328D01*
X197958028Y-196593328D02*
X197815170Y-196521900D01*
X197815170Y-196521900D02*
X197743742Y-196379042D01*
X197743742Y-196379042D02*
X197743742Y-196236185D01*
X197743742Y-196236185D02*
X197815170Y-196093328D01*
X197815170Y-196093328D02*
X197958028Y-196021900D01*
X197958028Y-196021900D02*
X198315170Y-196021900D01*
X198315170Y-196021900D02*
X198458028Y-195950471D01*
X199815171Y-196593328D02*
X199815171Y-195093328D01*
X199815171Y-196521900D02*
X199672313Y-196593328D01*
X199672313Y-196593328D02*
X199386599Y-196593328D01*
X199386599Y-196593328D02*
X199243742Y-196521900D01*
X199243742Y-196521900D02*
X199172313Y-196450471D01*
X199172313Y-196450471D02*
X199100885Y-196307614D01*
X199100885Y-196307614D02*
X199100885Y-195879042D01*
X199100885Y-195879042D02*
X199172313Y-195736185D01*
X199172313Y-195736185D02*
X199243742Y-195664757D01*
X199243742Y-195664757D02*
X199386599Y-195593328D01*
X199386599Y-195593328D02*
X199672313Y-195593328D01*
X199672313Y-195593328D02*
X199815171Y-195664757D01*
X201529456Y-195093328D02*
X202529456Y-195093328D01*
X202529456Y-195093328D02*
X201886599Y-196593328D01*
X203100884Y-196450471D02*
X203172313Y-196521900D01*
X203172313Y-196521900D02*
X203100884Y-196593328D01*
X203100884Y-196593328D02*
X203029456Y-196521900D01*
X203029456Y-196521900D02*
X203100884Y-196450471D01*
X203100884Y-196450471D02*
X203100884Y-196593328D01*
X204100885Y-195093328D02*
X204243742Y-195093328D01*
X204243742Y-195093328D02*
X204386599Y-195164757D01*
X204386599Y-195164757D02*
X204458028Y-195236185D01*
X204458028Y-195236185D02*
X204529456Y-195379042D01*
X204529456Y-195379042D02*
X204600885Y-195664757D01*
X204600885Y-195664757D02*
X204600885Y-196021900D01*
X204600885Y-196021900D02*
X204529456Y-196307614D01*
X204529456Y-196307614D02*
X204458028Y-196450471D01*
X204458028Y-196450471D02*
X204386599Y-196521900D01*
X204386599Y-196521900D02*
X204243742Y-196593328D01*
X204243742Y-196593328D02*
X204100885Y-196593328D01*
X204100885Y-196593328D02*
X203958028Y-196521900D01*
X203958028Y-196521900D02*
X203886599Y-196450471D01*
X203886599Y-196450471D02*
X203815170Y-196307614D01*
X203815170Y-196307614D02*
X203743742Y-196021900D01*
X203743742Y-196021900D02*
X203743742Y-195664757D01*
X203743742Y-195664757D02*
X203815170Y-195379042D01*
X203815170Y-195379042D02*
X203886599Y-195236185D01*
X203886599Y-195236185D02*
X203958028Y-195164757D01*
X203958028Y-195164757D02*
X204100885Y-195093328D01*
X205243741Y-196450471D02*
X205315170Y-196521900D01*
X205315170Y-196521900D02*
X205243741Y-196593328D01*
X205243741Y-196593328D02*
X205172313Y-196521900D01*
X205172313Y-196521900D02*
X205243741Y-196450471D01*
X205243741Y-196450471D02*
X205243741Y-196593328D01*
X206672313Y-195093328D02*
X205958027Y-195093328D01*
X205958027Y-195093328D02*
X205886599Y-195807614D01*
X205886599Y-195807614D02*
X205958027Y-195736185D01*
X205958027Y-195736185D02*
X206100885Y-195664757D01*
X206100885Y-195664757D02*
X206458027Y-195664757D01*
X206458027Y-195664757D02*
X206600885Y-195736185D01*
X206600885Y-195736185D02*
X206672313Y-195807614D01*
X206672313Y-195807614D02*
X206743742Y-195950471D01*
X206743742Y-195950471D02*
X206743742Y-196307614D01*
X206743742Y-196307614D02*
X206672313Y-196450471D01*
X206672313Y-196450471D02*
X206600885Y-196521900D01*
X206600885Y-196521900D02*
X206458027Y-196593328D01*
X206458027Y-196593328D02*
X206100885Y-196593328D01*
X206100885Y-196593328D02*
X205958027Y-196521900D01*
X205958027Y-196521900D02*
X205886599Y-196450471D01*
D10*
D11*
X177002200Y-191507200D02*
X285002200Y-191507200D01*
D10*
D12*
X264413853Y-193785528D02*
X263913853Y-193071242D01*
X263556710Y-193785528D02*
X263556710Y-192285528D01*
X263556710Y-192285528D02*
X264128139Y-192285528D01*
X264128139Y-192285528D02*
X264270996Y-192356957D01*
X264270996Y-192356957D02*
X264342425Y-192428385D01*
X264342425Y-192428385D02*
X264413853Y-192571242D01*
X264413853Y-192571242D02*
X264413853Y-192785528D01*
X264413853Y-192785528D02*
X264342425Y-192928385D01*
X264342425Y-192928385D02*
X264270996Y-192999814D01*
X264270996Y-192999814D02*
X264128139Y-193071242D01*
X264128139Y-193071242D02*
X263556710Y-193071242D01*
X265628139Y-193714100D02*
X265485282Y-193785528D01*
X265485282Y-193785528D02*
X265199568Y-193785528D01*
X265199568Y-193785528D02*
X265056710Y-193714100D01*
X265056710Y-193714100D02*
X264985282Y-193571242D01*
X264985282Y-193571242D02*
X264985282Y-192999814D01*
X264985282Y-192999814D02*
X265056710Y-192856957D01*
X265056710Y-192856957D02*
X265199568Y-192785528D01*
X265199568Y-192785528D02*
X265485282Y-192785528D01*
X265485282Y-192785528D02*
X265628139Y-192856957D01*
X265628139Y-192856957D02*
X265699568Y-192999814D01*
X265699568Y-192999814D02*
X265699568Y-193142671D01*
X265699568Y-193142671D02*
X264985282Y-193285528D01*
X266199567Y-192785528D02*
X266556710Y-193785528D01*
X266556710Y-193785528D02*
X266913853Y-192785528D01*
X267485281Y-193642671D02*
X267556710Y-193714100D01*
X267556710Y-193714100D02*
X267485281Y-193785528D01*
X267485281Y-193785528D02*
X267413853Y-193714100D01*
X267413853Y-193714100D02*
X267485281Y-193642671D01*
X267485281Y-193642671D02*
X267485281Y-193785528D01*
X267485281Y-192856957D02*
X267556710Y-192928385D01*
X267556710Y-192928385D02*
X267485281Y-192999814D01*
X267485281Y-192999814D02*
X267413853Y-192928385D01*
X267413853Y-192928385D02*
X267485281Y-192856957D01*
X267485281Y-192856957D02*
X267485281Y-192999814D01*
X270056710Y-192285528D02*
X269342424Y-192285528D01*
X269342424Y-192285528D02*
X269270996Y-192999814D01*
X269270996Y-192999814D02*
X269342424Y-192928385D01*
X269342424Y-192928385D02*
X269485282Y-192856957D01*
X269485282Y-192856957D02*
X269842424Y-192856957D01*
X269842424Y-192856957D02*
X269985282Y-192928385D01*
X269985282Y-192928385D02*
X270056710Y-192999814D01*
X270056710Y-192999814D02*
X270128139Y-193142671D01*
X270128139Y-193142671D02*
X270128139Y-193499814D01*
X270128139Y-193499814D02*
X270056710Y-193642671D01*
X270056710Y-193642671D02*
X269985282Y-193714100D01*
X269985282Y-193714100D02*
X269842424Y-193785528D01*
X269842424Y-193785528D02*
X269485282Y-193785528D01*
X269485282Y-193785528D02*
X269342424Y-193714100D01*
X269342424Y-193714100D02*
X269270996Y-193642671D01*
X270770995Y-193642671D02*
X270842424Y-193714100D01*
X270842424Y-193714100D02*
X270770995Y-193785528D01*
X270770995Y-193785528D02*
X270699567Y-193714100D01*
X270699567Y-193714100D02*
X270770995Y-193642671D01*
X270770995Y-193642671D02*
X270770995Y-193785528D01*
X271342424Y-192285528D02*
X272270996Y-192285528D01*
X272270996Y-192285528D02*
X271770996Y-192856957D01*
X271770996Y-192856957D02*
X271985281Y-192856957D01*
X271985281Y-192856957D02*
X272128139Y-192928385D01*
X272128139Y-192928385D02*
X272199567Y-192999814D01*
X272199567Y-192999814D02*
X272270996Y-193142671D01*
X272270996Y-193142671D02*
X272270996Y-193499814D01*
X272270996Y-193499814D02*
X272199567Y-193642671D01*
X272199567Y-193642671D02*
X272128139Y-193714100D01*
X272128139Y-193714100D02*
X271985281Y-193785528D01*
X271985281Y-193785528D02*
X271556710Y-193785528D01*
X271556710Y-193785528D02*
X271413853Y-193714100D01*
X271413853Y-193714100D02*
X271342424Y-193642671D01*
D10*
D11*
X178386598Y-193721900D02*
X178600884Y-193793328D01*
X178600884Y-193793328D02*
X178958026Y-193793328D01*
X178958026Y-193793328D02*
X179100884Y-193721900D01*
X179100884Y-193721900D02*
X179172312Y-193650471D01*
X179172312Y-193650471D02*
X179243741Y-193507614D01*
X179243741Y-193507614D02*
X179243741Y-193364757D01*
X179243741Y-193364757D02*
X179172312Y-193221900D01*
X179172312Y-193221900D02*
X179100884Y-193150471D01*
X179100884Y-193150471D02*
X178958026Y-193079042D01*
X178958026Y-193079042D02*
X178672312Y-193007614D01*
X178672312Y-193007614D02*
X178529455Y-192936185D01*
X178529455Y-192936185D02*
X178458026Y-192864757D01*
X178458026Y-192864757D02*
X178386598Y-192721900D01*
X178386598Y-192721900D02*
X178386598Y-192579042D01*
X178386598Y-192579042D02*
X178458026Y-192436185D01*
X178458026Y-192436185D02*
X178529455Y-192364757D01*
X178529455Y-192364757D02*
X178672312Y-192293328D01*
X178672312Y-192293328D02*
X179029455Y-192293328D01*
X179029455Y-192293328D02*
X179243741Y-192364757D01*
X179886597Y-193793328D02*
X179886597Y-192793328D01*
X179886597Y-192293328D02*
X179815169Y-192364757D01*
X179815169Y-192364757D02*
X179886597Y-192436185D01*
X179886597Y-192436185D02*
X179958026Y-192364757D01*
X179958026Y-192364757D02*
X179886597Y-192293328D01*
X179886597Y-192293328D02*
X179886597Y-192436185D01*
X180458026Y-192793328D02*
X181243741Y-192793328D01*
X181243741Y-192793328D02*
X180458026Y-193793328D01*
X180458026Y-193793328D02*
X181243741Y-193793328D01*
X182386598Y-193721900D02*
X182243741Y-193793328D01*
X182243741Y-193793328D02*
X181958027Y-193793328D01*
X181958027Y-193793328D02*
X181815169Y-193721900D01*
X181815169Y-193721900D02*
X181743741Y-193579042D01*
X181743741Y-193579042D02*
X181743741Y-193007614D01*
X181743741Y-193007614D02*
X181815169Y-192864757D01*
X181815169Y-192864757D02*
X181958027Y-192793328D01*
X181958027Y-192793328D02*
X182243741Y-192793328D01*
X182243741Y-192793328D02*
X182386598Y-192864757D01*
X182386598Y-192864757D02*
X182458027Y-193007614D01*
X182458027Y-193007614D02*
X182458027Y-193150471D01*
X182458027Y-193150471D02*
X181743741Y-193293328D01*
X183100883Y-193650471D02*
X183172312Y-193721900D01*
X183172312Y-193721900D02*
X183100883Y-193793328D01*
X183100883Y-193793328D02*
X183029455Y-193721900D01*
X183029455Y-193721900D02*
X183100883Y-193650471D01*
X183100883Y-193650471D02*
X183100883Y-193793328D01*
X183100883Y-192864757D02*
X183172312Y-192936185D01*
X183172312Y-192936185D02*
X183100883Y-193007614D01*
X183100883Y-193007614D02*
X183029455Y-192936185D01*
X183029455Y-192936185D02*
X183100883Y-192864757D01*
X183100883Y-192864757D02*
X183100883Y-193007614D01*
X184886598Y-193364757D02*
X185600884Y-193364757D01*
X184743741Y-193793328D02*
X185243741Y-192293328D01*
X185243741Y-192293328D02*
X185743741Y-193793328D01*
X186886598Y-192793328D02*
X186886598Y-193793328D01*
X186529455Y-192221900D02*
X186172312Y-193293328D01*
X186172312Y-193293328D02*
X187100883Y-193293328D01*
D10*
D11*
X263458026Y-196593328D02*
X263458026Y-195093328D01*
X264815170Y-196593328D02*
X264815170Y-195093328D01*
X264815170Y-196521900D02*
X264672312Y-196593328D01*
X264672312Y-196593328D02*
X264386598Y-196593328D01*
X264386598Y-196593328D02*
X264243741Y-196521900D01*
X264243741Y-196521900D02*
X264172312Y-196450471D01*
X264172312Y-196450471D02*
X264100884Y-196307614D01*
X264100884Y-196307614D02*
X264100884Y-195879042D01*
X264100884Y-195879042D02*
X264172312Y-195736185D01*
X264172312Y-195736185D02*
X264243741Y-195664757D01*
X264243741Y-195664757D02*
X264386598Y-195593328D01*
X264386598Y-195593328D02*
X264672312Y-195593328D01*
X264672312Y-195593328D02*
X264815170Y-195664757D01*
X265529455Y-196450471D02*
X265600884Y-196521900D01*
X265600884Y-196521900D02*
X265529455Y-196593328D01*
X265529455Y-196593328D02*
X265458027Y-196521900D01*
X265458027Y-196521900D02*
X265529455Y-196450471D01*
X265529455Y-196450471D02*
X265529455Y-196593328D01*
X265529455Y-195664757D02*
X265600884Y-195736185D01*
X265600884Y-195736185D02*
X265529455Y-195807614D01*
X265529455Y-195807614D02*
X265458027Y-195736185D01*
X265458027Y-195736185D02*
X265529455Y-195664757D01*
X265529455Y-195664757D02*
X265529455Y-195807614D01*
X268172313Y-196593328D02*
X267315170Y-196593328D01*
X267743741Y-196593328D02*
X267743741Y-195093328D01*
X267743741Y-195093328D02*
X267600884Y-195307614D01*
X267600884Y-195307614D02*
X267458027Y-195450471D01*
X267458027Y-195450471D02*
X267315170Y-195521900D01*
X269886598Y-195021900D02*
X268600884Y-196950471D01*
X271172313Y-196593328D02*
X270315170Y-196593328D01*
X270743741Y-196593328D02*
X270743741Y-195093328D01*
X270743741Y-195093328D02*
X270600884Y-195307614D01*
X270600884Y-195307614D02*
X270458027Y-195450471D01*
X270458027Y-195450471D02*
X270315170Y-195521900D01*
D10*
D11*
X177002200Y-187507200D02*
X285002200Y-187507200D01*
D10*
D13*
X178693928Y-188211638D02*
X179836785Y-188211638D01*
X179015357Y-190211638D02*
X179265357Y-188211638D01*
X180253452Y-190211638D02*
X180420119Y-188878304D01*
X180503452Y-188211638D02*
X180396309Y-188306876D01*
X180396309Y-188306876D02*
X180479643Y-188402114D01*
X180479643Y-188402114D02*
X180586786Y-188306876D01*
X180586786Y-188306876D02*
X180503452Y-188211638D01*
X180503452Y-188211638D02*
X180479643Y-188402114D01*
X181086786Y-188878304D02*
X181848690Y-188878304D01*
X181455833Y-188211638D02*
X181241548Y-189925923D01*
X181241548Y-189925923D02*
X181312976Y-190116400D01*
X181312976Y-190116400D02*
X181491548Y-190211638D01*
X181491548Y-190211638D02*
X181682024Y-190211638D01*
X182634405Y-190211638D02*
X182455833Y-190116400D01*
X182455833Y-190116400D02*
X182384405Y-189925923D01*
X182384405Y-189925923D02*
X182598690Y-188211638D01*
X184170119Y-190116400D02*
X183967738Y-190211638D01*
X183967738Y-190211638D02*
X183586785Y-190211638D01*
X183586785Y-190211638D02*
X183408214Y-190116400D01*
X183408214Y-190116400D02*
X183336785Y-189925923D01*
X183336785Y-189925923D02*
X183432024Y-189164019D01*
X183432024Y-189164019D02*
X183551071Y-188973542D01*
X183551071Y-188973542D02*
X183753452Y-188878304D01*
X183753452Y-188878304D02*
X184134404Y-188878304D01*
X184134404Y-188878304D02*
X184312976Y-188973542D01*
X184312976Y-188973542D02*
X184384404Y-189164019D01*
X184384404Y-189164019D02*
X184360595Y-189354495D01*
X184360595Y-189354495D02*
X183384404Y-189544971D01*
X185134405Y-190021161D02*
X185217738Y-190116400D01*
X185217738Y-190116400D02*
X185110595Y-190211638D01*
X185110595Y-190211638D02*
X185027262Y-190116400D01*
X185027262Y-190116400D02*
X185134405Y-190021161D01*
X185134405Y-190021161D02*
X185110595Y-190211638D01*
X185265357Y-188973542D02*
X185348690Y-189068780D01*
X185348690Y-189068780D02*
X185241548Y-189164019D01*
X185241548Y-189164019D02*
X185158214Y-189068780D01*
X185158214Y-189068780D02*
X185265357Y-188973542D01*
X185265357Y-188973542D02*
X185241548Y-189164019D01*
D10*
D11*
X178958026Y-185607614D02*
X178458026Y-185607614D01*
X178458026Y-186393328D02*
X178458026Y-184893328D01*
X178458026Y-184893328D02*
X179172312Y-184893328D01*
X179743740Y-186393328D02*
X179743740Y-185393328D01*
X179743740Y-184893328D02*
X179672312Y-184964757D01*
X179672312Y-184964757D02*
X179743740Y-185036185D01*
X179743740Y-185036185D02*
X179815169Y-184964757D01*
X179815169Y-184964757D02*
X179743740Y-184893328D01*
X179743740Y-184893328D02*
X179743740Y-185036185D01*
X180672312Y-186393328D02*
X180529455Y-186321900D01*
X180529455Y-186321900D02*
X180458026Y-186179042D01*
X180458026Y-186179042D02*
X180458026Y-184893328D01*
X181815169Y-186321900D02*
X181672312Y-186393328D01*
X181672312Y-186393328D02*
X181386598Y-186393328D01*
X181386598Y-186393328D02*
X181243740Y-186321900D01*
X181243740Y-186321900D02*
X181172312Y-186179042D01*
X181172312Y-186179042D02*
X181172312Y-185607614D01*
X181172312Y-185607614D02*
X181243740Y-185464757D01*
X181243740Y-185464757D02*
X181386598Y-185393328D01*
X181386598Y-185393328D02*
X181672312Y-185393328D01*
X181672312Y-185393328D02*
X181815169Y-185464757D01*
X181815169Y-185464757D02*
X181886598Y-185607614D01*
X181886598Y-185607614D02*
X181886598Y-185750471D01*
X181886598Y-185750471D02*
X181172312Y-185893328D01*
X182529454Y-186250471D02*
X182600883Y-186321900D01*
X182600883Y-186321900D02*
X182529454Y-186393328D01*
X182529454Y-186393328D02*
X182458026Y-186321900D01*
X182458026Y-186321900D02*
X182529454Y-186250471D01*
X182529454Y-186250471D02*
X182529454Y-186393328D01*
X182529454Y-185464757D02*
X182600883Y-185536185D01*
X182600883Y-185536185D02*
X182529454Y-185607614D01*
X182529454Y-185607614D02*
X182458026Y-185536185D01*
X182458026Y-185536185D02*
X182529454Y-185464757D01*
X182529454Y-185464757D02*
X182529454Y-185607614D01*
X184958026Y-186321900D02*
X184815169Y-186393328D01*
X184815169Y-186393328D02*
X184529455Y-186393328D01*
X184529455Y-186393328D02*
X184386597Y-186321900D01*
X184386597Y-186321900D02*
X184315169Y-186179042D01*
X184315169Y-186179042D02*
X184315169Y-185607614D01*
X184315169Y-185607614D02*
X184386597Y-185464757D01*
X184386597Y-185464757D02*
X184529455Y-185393328D01*
X184529455Y-185393328D02*
X184815169Y-185393328D01*
X184815169Y-185393328D02*
X184958026Y-185464757D01*
X184958026Y-185464757D02*
X185029455Y-185607614D01*
X185029455Y-185607614D02*
X185029455Y-185750471D01*
X185029455Y-185750471D02*
X184315169Y-185893328D01*
X185600883Y-186321900D02*
X185743740Y-186393328D01*
X185743740Y-186393328D02*
X186029454Y-186393328D01*
X186029454Y-186393328D02*
X186172311Y-186321900D01*
X186172311Y-186321900D02*
X186243740Y-186179042D01*
X186243740Y-186179042D02*
X186243740Y-186107614D01*
X186243740Y-186107614D02*
X186172311Y-185964757D01*
X186172311Y-185964757D02*
X186029454Y-185893328D01*
X186029454Y-185893328D02*
X185815169Y-185893328D01*
X185815169Y-185893328D02*
X185672311Y-185821900D01*
X185672311Y-185821900D02*
X185600883Y-185679042D01*
X185600883Y-185679042D02*
X185600883Y-185607614D01*
X185600883Y-185607614D02*
X185672311Y-185464757D01*
X185672311Y-185464757D02*
X185815169Y-185393328D01*
X185815169Y-185393328D02*
X186029454Y-185393328D01*
X186029454Y-185393328D02*
X186172311Y-185464757D01*
X186886597Y-185393328D02*
X186886597Y-186893328D01*
X186886597Y-185464757D02*
X187029455Y-185393328D01*
X187029455Y-185393328D02*
X187315169Y-185393328D01*
X187315169Y-185393328D02*
X187458026Y-185464757D01*
X187458026Y-185464757D02*
X187529455Y-185536185D01*
X187529455Y-185536185D02*
X187600883Y-185679042D01*
X187600883Y-185679042D02*
X187600883Y-186107614D01*
X187600883Y-186107614D02*
X187529455Y-186250471D01*
X187529455Y-186250471D02*
X187458026Y-186321900D01*
X187458026Y-186321900D02*
X187315169Y-186393328D01*
X187315169Y-186393328D02*
X187029455Y-186393328D01*
X187029455Y-186393328D02*
X186886597Y-186321900D01*
X188100883Y-184893328D02*
X189029455Y-184893328D01*
X189029455Y-184893328D02*
X188529455Y-185464757D01*
X188529455Y-185464757D02*
X188743740Y-185464757D01*
X188743740Y-185464757D02*
X188886598Y-185536185D01*
X188886598Y-185536185D02*
X188958026Y-185607614D01*
X188958026Y-185607614D02*
X189029455Y-185750471D01*
X189029455Y-185750471D02*
X189029455Y-186107614D01*
X189029455Y-186107614D02*
X188958026Y-186250471D01*
X188958026Y-186250471D02*
X188886598Y-186321900D01*
X188886598Y-186321900D02*
X188743740Y-186393328D01*
X188743740Y-186393328D02*
X188315169Y-186393328D01*
X188315169Y-186393328D02*
X188172312Y-186321900D01*
X188172312Y-186321900D02*
X188100883Y-186250471D01*
X189600883Y-185036185D02*
X189672311Y-184964757D01*
X189672311Y-184964757D02*
X189815169Y-184893328D01*
X189815169Y-184893328D02*
X190172311Y-184893328D01*
X190172311Y-184893328D02*
X190315169Y-184964757D01*
X190315169Y-184964757D02*
X190386597Y-185036185D01*
X190386597Y-185036185D02*
X190458026Y-185179042D01*
X190458026Y-185179042D02*
X190458026Y-185321900D01*
X190458026Y-185321900D02*
X190386597Y-185536185D01*
X190386597Y-185536185D02*
X189529454Y-186393328D01*
X189529454Y-186393328D02*
X190458026Y-186393328D01*
X190743740Y-186536185D02*
X191886597Y-186536185D01*
X192172311Y-186321900D02*
X192315168Y-186393328D01*
X192315168Y-186393328D02*
X192600882Y-186393328D01*
X192600882Y-186393328D02*
X192743739Y-186321900D01*
X192743739Y-186321900D02*
X192815168Y-186179042D01*
X192815168Y-186179042D02*
X192815168Y-186107614D01*
X192815168Y-186107614D02*
X192743739Y-185964757D01*
X192743739Y-185964757D02*
X192600882Y-185893328D01*
X192600882Y-185893328D02*
X192386597Y-185893328D01*
X192386597Y-185893328D02*
X192243739Y-185821900D01*
X192243739Y-185821900D02*
X192172311Y-185679042D01*
X192172311Y-185679042D02*
X192172311Y-185607614D01*
X192172311Y-185607614D02*
X192243739Y-185464757D01*
X192243739Y-185464757D02*
X192386597Y-185393328D01*
X192386597Y-185393328D02*
X192600882Y-185393328D01*
X192600882Y-185393328D02*
X192743739Y-185464757D01*
X193672311Y-186393328D02*
X193529454Y-186321900D01*
X193529454Y-186321900D02*
X193458025Y-186250471D01*
X193458025Y-186250471D02*
X193386597Y-186107614D01*
X193386597Y-186107614D02*
X193386597Y-185679042D01*
X193386597Y-185679042D02*
X193458025Y-185536185D01*
X193458025Y-185536185D02*
X193529454Y-185464757D01*
X193529454Y-185464757D02*
X193672311Y-185393328D01*
X193672311Y-185393328D02*
X193886597Y-185393328D01*
X193886597Y-185393328D02*
X194029454Y-185464757D01*
X194029454Y-185464757D02*
X194100883Y-185536185D01*
X194100883Y-185536185D02*
X194172311Y-185679042D01*
X194172311Y-185679042D02*
X194172311Y-186107614D01*
X194172311Y-186107614D02*
X194100883Y-186250471D01*
X194100883Y-186250471D02*
X194029454Y-186321900D01*
X194029454Y-186321900D02*
X193886597Y-186393328D01*
X193886597Y-186393328D02*
X193672311Y-186393328D01*
X194815168Y-186393328D02*
X194815168Y-185393328D01*
X194815168Y-184893328D02*
X194743740Y-184964757D01*
X194743740Y-184964757D02*
X194815168Y-185036185D01*
X194815168Y-185036185D02*
X194886597Y-184964757D01*
X194886597Y-184964757D02*
X194815168Y-184893328D01*
X194815168Y-184893328D02*
X194815168Y-185036185D01*
X195743740Y-186393328D02*
X195600883Y-186321900D01*
X195600883Y-186321900D02*
X195529454Y-186179042D01*
X195529454Y-186179042D02*
X195529454Y-184893328D01*
X195958026Y-186536185D02*
X197100883Y-186536185D01*
X197458025Y-186393328D02*
X197458025Y-185393328D01*
X197458025Y-185536185D02*
X197529454Y-185464757D01*
X197529454Y-185464757D02*
X197672311Y-185393328D01*
X197672311Y-185393328D02*
X197886597Y-185393328D01*
X197886597Y-185393328D02*
X198029454Y-185464757D01*
X198029454Y-185464757D02*
X198100883Y-185607614D01*
X198100883Y-185607614D02*
X198100883Y-186393328D01*
X198100883Y-185607614D02*
X198172311Y-185464757D01*
X198172311Y-185464757D02*
X198315168Y-185393328D01*
X198315168Y-185393328D02*
X198529454Y-185393328D01*
X198529454Y-185393328D02*
X198672311Y-185464757D01*
X198672311Y-185464757D02*
X198743740Y-185607614D01*
X198743740Y-185607614D02*
X198743740Y-186393328D01*
X199672311Y-186393328D02*
X199529454Y-186321900D01*
X199529454Y-186321900D02*
X199458025Y-186250471D01*
X199458025Y-186250471D02*
X199386597Y-186107614D01*
X199386597Y-186107614D02*
X199386597Y-185679042D01*
X199386597Y-185679042D02*
X199458025Y-185536185D01*
X199458025Y-185536185D02*
X199529454Y-185464757D01*
X199529454Y-185464757D02*
X199672311Y-185393328D01*
X199672311Y-185393328D02*
X199886597Y-185393328D01*
X199886597Y-185393328D02*
X200029454Y-185464757D01*
X200029454Y-185464757D02*
X200100883Y-185536185D01*
X200100883Y-185536185D02*
X200172311Y-185679042D01*
X200172311Y-185679042D02*
X200172311Y-186107614D01*
X200172311Y-186107614D02*
X200100883Y-186250471D01*
X200100883Y-186250471D02*
X200029454Y-186321900D01*
X200029454Y-186321900D02*
X199886597Y-186393328D01*
X199886597Y-186393328D02*
X199672311Y-186393328D01*
X200815168Y-186393328D02*
X200815168Y-185393328D01*
X200815168Y-184893328D02*
X200743740Y-184964757D01*
X200743740Y-184964757D02*
X200815168Y-185036185D01*
X200815168Y-185036185D02*
X200886597Y-184964757D01*
X200886597Y-184964757D02*
X200815168Y-184893328D01*
X200815168Y-184893328D02*
X200815168Y-185036185D01*
X201458026Y-186321900D02*
X201600883Y-186393328D01*
X201600883Y-186393328D02*
X201886597Y-186393328D01*
X201886597Y-186393328D02*
X202029454Y-186321900D01*
X202029454Y-186321900D02*
X202100883Y-186179042D01*
X202100883Y-186179042D02*
X202100883Y-186107614D01*
X202100883Y-186107614D02*
X202029454Y-185964757D01*
X202029454Y-185964757D02*
X201886597Y-185893328D01*
X201886597Y-185893328D02*
X201672312Y-185893328D01*
X201672312Y-185893328D02*
X201529454Y-185821900D01*
X201529454Y-185821900D02*
X201458026Y-185679042D01*
X201458026Y-185679042D02*
X201458026Y-185607614D01*
X201458026Y-185607614D02*
X201529454Y-185464757D01*
X201529454Y-185464757D02*
X201672312Y-185393328D01*
X201672312Y-185393328D02*
X201886597Y-185393328D01*
X201886597Y-185393328D02*
X202029454Y-185464757D01*
X202529455Y-185393328D02*
X203100883Y-185393328D01*
X202743740Y-184893328D02*
X202743740Y-186179042D01*
X202743740Y-186179042D02*
X202815169Y-186321900D01*
X202815169Y-186321900D02*
X202958026Y-186393328D01*
X202958026Y-186393328D02*
X203100883Y-186393328D01*
X204243741Y-185393328D02*
X204243741Y-186393328D01*
X203600883Y-185393328D02*
X203600883Y-186179042D01*
X203600883Y-186179042D02*
X203672312Y-186321900D01*
X203672312Y-186321900D02*
X203815169Y-186393328D01*
X203815169Y-186393328D02*
X204029455Y-186393328D01*
X204029455Y-186393328D02*
X204172312Y-186321900D01*
X204172312Y-186321900D02*
X204243741Y-186250471D01*
X204958026Y-186393328D02*
X204958026Y-185393328D01*
X204958026Y-185679042D02*
X205029455Y-185536185D01*
X205029455Y-185536185D02*
X205100884Y-185464757D01*
X205100884Y-185464757D02*
X205243741Y-185393328D01*
X205243741Y-185393328D02*
X205386598Y-185393328D01*
X206458026Y-186321900D02*
X206315169Y-186393328D01*
X206315169Y-186393328D02*
X206029455Y-186393328D01*
X206029455Y-186393328D02*
X205886597Y-186321900D01*
X205886597Y-186321900D02*
X205815169Y-186179042D01*
X205815169Y-186179042D02*
X205815169Y-185607614D01*
X205815169Y-185607614D02*
X205886597Y-185464757D01*
X205886597Y-185464757D02*
X206029455Y-185393328D01*
X206029455Y-185393328D02*
X206315169Y-185393328D01*
X206315169Y-185393328D02*
X206458026Y-185464757D01*
X206458026Y-185464757D02*
X206529455Y-185607614D01*
X206529455Y-185607614D02*
X206529455Y-185750471D01*
X206529455Y-185750471D02*
X205815169Y-185893328D01*
X206815169Y-186536185D02*
X207958026Y-186536185D01*
X208243740Y-186321900D02*
X208386597Y-186393328D01*
X208386597Y-186393328D02*
X208672311Y-186393328D01*
X208672311Y-186393328D02*
X208815168Y-186321900D01*
X208815168Y-186321900D02*
X208886597Y-186179042D01*
X208886597Y-186179042D02*
X208886597Y-186107614D01*
X208886597Y-186107614D02*
X208815168Y-185964757D01*
X208815168Y-185964757D02*
X208672311Y-185893328D01*
X208672311Y-185893328D02*
X208458026Y-185893328D01*
X208458026Y-185893328D02*
X208315168Y-185821900D01*
X208315168Y-185821900D02*
X208243740Y-185679042D01*
X208243740Y-185679042D02*
X208243740Y-185607614D01*
X208243740Y-185607614D02*
X208315168Y-185464757D01*
X208315168Y-185464757D02*
X208458026Y-185393328D01*
X208458026Y-185393328D02*
X208672311Y-185393328D01*
X208672311Y-185393328D02*
X208815168Y-185464757D01*
X210100883Y-186321900D02*
X209958026Y-186393328D01*
X209958026Y-186393328D02*
X209672312Y-186393328D01*
X209672312Y-186393328D02*
X209529454Y-186321900D01*
X209529454Y-186321900D02*
X209458026Y-186179042D01*
X209458026Y-186179042D02*
X209458026Y-185607614D01*
X209458026Y-185607614D02*
X209529454Y-185464757D01*
X209529454Y-185464757D02*
X209672312Y-185393328D01*
X209672312Y-185393328D02*
X209958026Y-185393328D01*
X209958026Y-185393328D02*
X210100883Y-185464757D01*
X210100883Y-185464757D02*
X210172312Y-185607614D01*
X210172312Y-185607614D02*
X210172312Y-185750471D01*
X210172312Y-185750471D02*
X209458026Y-185893328D01*
X210815168Y-185393328D02*
X210815168Y-186393328D01*
X210815168Y-185536185D02*
X210886597Y-185464757D01*
X210886597Y-185464757D02*
X211029454Y-185393328D01*
X211029454Y-185393328D02*
X211243740Y-185393328D01*
X211243740Y-185393328D02*
X211386597Y-185464757D01*
X211386597Y-185464757D02*
X211458026Y-185607614D01*
X211458026Y-185607614D02*
X211458026Y-186393328D01*
X212100883Y-186321900D02*
X212243740Y-186393328D01*
X212243740Y-186393328D02*
X212529454Y-186393328D01*
X212529454Y-186393328D02*
X212672311Y-186321900D01*
X212672311Y-186321900D02*
X212743740Y-186179042D01*
X212743740Y-186179042D02*
X212743740Y-186107614D01*
X212743740Y-186107614D02*
X212672311Y-185964757D01*
X212672311Y-185964757D02*
X212529454Y-185893328D01*
X212529454Y-185893328D02*
X212315169Y-185893328D01*
X212315169Y-185893328D02*
X212172311Y-185821900D01*
X212172311Y-185821900D02*
X212100883Y-185679042D01*
X212100883Y-185679042D02*
X212100883Y-185607614D01*
X212100883Y-185607614D02*
X212172311Y-185464757D01*
X212172311Y-185464757D02*
X212315169Y-185393328D01*
X212315169Y-185393328D02*
X212529454Y-185393328D01*
X212529454Y-185393328D02*
X212672311Y-185464757D01*
X213600883Y-186393328D02*
X213458026Y-186321900D01*
X213458026Y-186321900D02*
X213386597Y-186250471D01*
X213386597Y-186250471D02*
X213315169Y-186107614D01*
X213315169Y-186107614D02*
X213315169Y-185679042D01*
X213315169Y-185679042D02*
X213386597Y-185536185D01*
X213386597Y-185536185D02*
X213458026Y-185464757D01*
X213458026Y-185464757D02*
X213600883Y-185393328D01*
X213600883Y-185393328D02*
X213815169Y-185393328D01*
X213815169Y-185393328D02*
X213958026Y-185464757D01*
X213958026Y-185464757D02*
X214029455Y-185536185D01*
X214029455Y-185536185D02*
X214100883Y-185679042D01*
X214100883Y-185679042D02*
X214100883Y-186107614D01*
X214100883Y-186107614D02*
X214029455Y-186250471D01*
X214029455Y-186250471D02*
X213958026Y-186321900D01*
X213958026Y-186321900D02*
X213815169Y-186393328D01*
X213815169Y-186393328D02*
X213600883Y-186393328D01*
X214743740Y-186393328D02*
X214743740Y-185393328D01*
X214743740Y-185679042D02*
X214815169Y-185536185D01*
X214815169Y-185536185D02*
X214886598Y-185464757D01*
X214886598Y-185464757D02*
X215029455Y-185393328D01*
X215029455Y-185393328D02*
X215172312Y-185393328D01*
X215672311Y-186250471D02*
X215743740Y-186321900D01*
X215743740Y-186321900D02*
X215672311Y-186393328D01*
X215672311Y-186393328D02*
X215600883Y-186321900D01*
X215600883Y-186321900D02*
X215672311Y-186250471D01*
X215672311Y-186250471D02*
X215672311Y-186393328D01*
X216386597Y-186393328D02*
X216386597Y-184893328D01*
X216529455Y-185821900D02*
X216958026Y-186393328D01*
X216958026Y-185393328D02*
X216386597Y-185964757D01*
X217600883Y-186393328D02*
X217600883Y-185393328D01*
X217600883Y-184893328D02*
X217529455Y-184964757D01*
X217529455Y-184964757D02*
X217600883Y-185036185D01*
X217600883Y-185036185D02*
X217672312Y-184964757D01*
X217672312Y-184964757D02*
X217600883Y-184893328D01*
X217600883Y-184893328D02*
X217600883Y-185036185D01*
X218958027Y-186321900D02*
X218815169Y-186393328D01*
X218815169Y-186393328D02*
X218529455Y-186393328D01*
X218529455Y-186393328D02*
X218386598Y-186321900D01*
X218386598Y-186321900D02*
X218315169Y-186250471D01*
X218315169Y-186250471D02*
X218243741Y-186107614D01*
X218243741Y-186107614D02*
X218243741Y-185679042D01*
X218243741Y-185679042D02*
X218315169Y-185536185D01*
X218315169Y-185536185D02*
X218386598Y-185464757D01*
X218386598Y-185464757D02*
X218529455Y-185393328D01*
X218529455Y-185393328D02*
X218815169Y-185393328D01*
X218815169Y-185393328D02*
X218958027Y-185464757D01*
X220243741Y-186393328D02*
X220243741Y-185607614D01*
X220243741Y-185607614D02*
X220172312Y-185464757D01*
X220172312Y-185464757D02*
X220029455Y-185393328D01*
X220029455Y-185393328D02*
X219743741Y-185393328D01*
X219743741Y-185393328D02*
X219600883Y-185464757D01*
X220243741Y-186321900D02*
X220100883Y-186393328D01*
X220100883Y-186393328D02*
X219743741Y-186393328D01*
X219743741Y-186393328D02*
X219600883Y-186321900D01*
X219600883Y-186321900D02*
X219529455Y-186179042D01*
X219529455Y-186179042D02*
X219529455Y-186036185D01*
X219529455Y-186036185D02*
X219600883Y-185893328D01*
X219600883Y-185893328D02*
X219743741Y-185821900D01*
X219743741Y-185821900D02*
X220100883Y-185821900D01*
X220100883Y-185821900D02*
X220243741Y-185750471D01*
X221600884Y-186393328D02*
X221600884Y-184893328D01*
X221600884Y-186321900D02*
X221458026Y-186393328D01*
X221458026Y-186393328D02*
X221172312Y-186393328D01*
X221172312Y-186393328D02*
X221029455Y-186321900D01*
X221029455Y-186321900D02*
X220958026Y-186250471D01*
X220958026Y-186250471D02*
X220886598Y-186107614D01*
X220886598Y-186107614D02*
X220886598Y-185679042D01*
X220886598Y-185679042D02*
X220958026Y-185536185D01*
X220958026Y-185536185D02*
X221029455Y-185464757D01*
X221029455Y-185464757D02*
X221172312Y-185393328D01*
X221172312Y-185393328D02*
X221458026Y-185393328D01*
X221458026Y-185393328D02*
X221600884Y-185464757D01*
X221958027Y-186536185D02*
X223100884Y-186536185D01*
X223458026Y-185393328D02*
X223458026Y-186893328D01*
X223458026Y-185464757D02*
X223600884Y-185393328D01*
X223600884Y-185393328D02*
X223886598Y-185393328D01*
X223886598Y-185393328D02*
X224029455Y-185464757D01*
X224029455Y-185464757D02*
X224100884Y-185536185D01*
X224100884Y-185536185D02*
X224172312Y-185679042D01*
X224172312Y-185679042D02*
X224172312Y-186107614D01*
X224172312Y-186107614D02*
X224100884Y-186250471D01*
X224100884Y-186250471D02*
X224029455Y-186321900D01*
X224029455Y-186321900D02*
X223886598Y-186393328D01*
X223886598Y-186393328D02*
X223600884Y-186393328D01*
X223600884Y-186393328D02*
X223458026Y-186321900D01*
X225458027Y-186321900D02*
X225315169Y-186393328D01*
X225315169Y-186393328D02*
X225029455Y-186393328D01*
X225029455Y-186393328D02*
X224886598Y-186321900D01*
X224886598Y-186321900D02*
X224815169Y-186250471D01*
X224815169Y-186250471D02*
X224743741Y-186107614D01*
X224743741Y-186107614D02*
X224743741Y-185679042D01*
X224743741Y-185679042D02*
X224815169Y-185536185D01*
X224815169Y-185536185D02*
X224886598Y-185464757D01*
X224886598Y-185464757D02*
X225029455Y-185393328D01*
X225029455Y-185393328D02*
X225315169Y-185393328D01*
X225315169Y-185393328D02*
X225458027Y-185464757D01*
X226100883Y-186393328D02*
X226100883Y-184893328D01*
X226100883Y-185464757D02*
X226243741Y-185393328D01*
X226243741Y-185393328D02*
X226529455Y-185393328D01*
X226529455Y-185393328D02*
X226672312Y-185464757D01*
X226672312Y-185464757D02*
X226743741Y-185536185D01*
X226743741Y-185536185D02*
X226815169Y-185679042D01*
X226815169Y-185679042D02*
X226815169Y-186107614D01*
X226815169Y-186107614D02*
X226743741Y-186250471D01*
X226743741Y-186250471D02*
X226672312Y-186321900D01*
X226672312Y-186321900D02*
X226529455Y-186393328D01*
X226529455Y-186393328D02*
X226243741Y-186393328D01*
X226243741Y-186393328D02*
X226100883Y-186321900D01*
D10*
D11*
X177002200Y-181507200D02*
X285002200Y-181507200D01*
D10*
D11*
X178386598Y-183621900D02*
X178600884Y-183693328D01*
X178600884Y-183693328D02*
X178958026Y-183693328D01*
X178958026Y-183693328D02*
X179100884Y-183621900D01*
X179100884Y-183621900D02*
X179172312Y-183550471D01*
X179172312Y-183550471D02*
X179243741Y-183407614D01*
X179243741Y-183407614D02*
X179243741Y-183264757D01*
X179243741Y-183264757D02*
X179172312Y-183121900D01*
X179172312Y-183121900D02*
X179100884Y-183050471D01*
X179100884Y-183050471D02*
X178958026Y-182979042D01*
X178958026Y-182979042D02*
X178672312Y-182907614D01*
X178672312Y-182907614D02*
X178529455Y-182836185D01*
X178529455Y-182836185D02*
X178458026Y-182764757D01*
X178458026Y-182764757D02*
X178386598Y-182621900D01*
X178386598Y-182621900D02*
X178386598Y-182479042D01*
X178386598Y-182479042D02*
X178458026Y-182336185D01*
X178458026Y-182336185D02*
X178529455Y-182264757D01*
X178529455Y-182264757D02*
X178672312Y-182193328D01*
X178672312Y-182193328D02*
X179029455Y-182193328D01*
X179029455Y-182193328D02*
X179243741Y-182264757D01*
X179886597Y-183693328D02*
X179886597Y-182193328D01*
X180529455Y-183693328D02*
X180529455Y-182907614D01*
X180529455Y-182907614D02*
X180458026Y-182764757D01*
X180458026Y-182764757D02*
X180315169Y-182693328D01*
X180315169Y-182693328D02*
X180100883Y-182693328D01*
X180100883Y-182693328D02*
X179958026Y-182764757D01*
X179958026Y-182764757D02*
X179886597Y-182836185D01*
X181815169Y-183621900D02*
X181672312Y-183693328D01*
X181672312Y-183693328D02*
X181386598Y-183693328D01*
X181386598Y-183693328D02*
X181243740Y-183621900D01*
X181243740Y-183621900D02*
X181172312Y-183479042D01*
X181172312Y-183479042D02*
X181172312Y-182907614D01*
X181172312Y-182907614D02*
X181243740Y-182764757D01*
X181243740Y-182764757D02*
X181386598Y-182693328D01*
X181386598Y-182693328D02*
X181672312Y-182693328D01*
X181672312Y-182693328D02*
X181815169Y-182764757D01*
X181815169Y-182764757D02*
X181886598Y-182907614D01*
X181886598Y-182907614D02*
X181886598Y-183050471D01*
X181886598Y-183050471D02*
X181172312Y-183193328D01*
X183100883Y-183621900D02*
X182958026Y-183693328D01*
X182958026Y-183693328D02*
X182672312Y-183693328D01*
X182672312Y-183693328D02*
X182529454Y-183621900D01*
X182529454Y-183621900D02*
X182458026Y-183479042D01*
X182458026Y-183479042D02*
X182458026Y-182907614D01*
X182458026Y-182907614D02*
X182529454Y-182764757D01*
X182529454Y-182764757D02*
X182672312Y-182693328D01*
X182672312Y-182693328D02*
X182958026Y-182693328D01*
X182958026Y-182693328D02*
X183100883Y-182764757D01*
X183100883Y-182764757D02*
X183172312Y-182907614D01*
X183172312Y-182907614D02*
X183172312Y-183050471D01*
X183172312Y-183050471D02*
X182458026Y-183193328D01*
X183600883Y-182693328D02*
X184172311Y-182693328D01*
X183815168Y-182193328D02*
X183815168Y-183479042D01*
X183815168Y-183479042D02*
X183886597Y-183621900D01*
X183886597Y-183621900D02*
X184029454Y-183693328D01*
X184029454Y-183693328D02*
X184172311Y-183693328D01*
X184672311Y-183550471D02*
X184743740Y-183621900D01*
X184743740Y-183621900D02*
X184672311Y-183693328D01*
X184672311Y-183693328D02*
X184600883Y-183621900D01*
X184600883Y-183621900D02*
X184672311Y-183550471D01*
X184672311Y-183550471D02*
X184672311Y-183693328D01*
X184672311Y-182764757D02*
X184743740Y-182836185D01*
X184743740Y-182836185D02*
X184672311Y-182907614D01*
X184672311Y-182907614D02*
X184600883Y-182836185D01*
X184600883Y-182836185D02*
X184672311Y-182764757D01*
X184672311Y-182764757D02*
X184672311Y-182907614D01*
D10*
D12*
X178485282Y-180256957D02*
X179199568Y-180256957D01*
X178342425Y-180685528D02*
X178842425Y-179185528D01*
X178842425Y-179185528D02*
X179342425Y-180685528D01*
X180413853Y-180614100D02*
X180270996Y-180685528D01*
X180270996Y-180685528D02*
X179985282Y-180685528D01*
X179985282Y-180685528D02*
X179842424Y-180614100D01*
X179842424Y-180614100D02*
X179770996Y-180471242D01*
X179770996Y-180471242D02*
X179770996Y-179899814D01*
X179770996Y-179899814D02*
X179842424Y-179756957D01*
X179842424Y-179756957D02*
X179985282Y-179685528D01*
X179985282Y-179685528D02*
X180270996Y-179685528D01*
X180270996Y-179685528D02*
X180413853Y-179756957D01*
X180413853Y-179756957D02*
X180485282Y-179899814D01*
X180485282Y-179899814D02*
X180485282Y-180042671D01*
X180485282Y-180042671D02*
X179770996Y-180185528D01*
X181342424Y-180685528D02*
X181199567Y-180614100D01*
X181199567Y-180614100D02*
X181128138Y-180542671D01*
X181128138Y-180542671D02*
X181056710Y-180399814D01*
X181056710Y-180399814D02*
X181056710Y-179971242D01*
X181056710Y-179971242D02*
X181128138Y-179828385D01*
X181128138Y-179828385D02*
X181199567Y-179756957D01*
X181199567Y-179756957D02*
X181342424Y-179685528D01*
X181342424Y-179685528D02*
X181556710Y-179685528D01*
X181556710Y-179685528D02*
X181699567Y-179756957D01*
X181699567Y-179756957D02*
X181770996Y-179828385D01*
X181770996Y-179828385D02*
X181842424Y-179971242D01*
X181842424Y-179971242D02*
X181842424Y-180399814D01*
X181842424Y-180399814D02*
X181770996Y-180542671D01*
X181770996Y-180542671D02*
X181699567Y-180614100D01*
X181699567Y-180614100D02*
X181556710Y-180685528D01*
X181556710Y-180685528D02*
X181342424Y-180685528D01*
X182485281Y-179685528D02*
X182485281Y-180685528D01*
X182485281Y-179828385D02*
X182556710Y-179756957D01*
X182556710Y-179756957D02*
X182699567Y-179685528D01*
X182699567Y-179685528D02*
X182913853Y-179685528D01*
X182913853Y-179685528D02*
X183056710Y-179756957D01*
X183056710Y-179756957D02*
X183128139Y-179899814D01*
X183128139Y-179899814D02*
X183128139Y-180685528D01*
X184556710Y-180685528D02*
X183842424Y-180685528D01*
X183842424Y-180685528D02*
X183842424Y-179185528D01*
X185699568Y-180685528D02*
X185699568Y-179899814D01*
X185699568Y-179899814D02*
X185628139Y-179756957D01*
X185628139Y-179756957D02*
X185485282Y-179685528D01*
X185485282Y-179685528D02*
X185199568Y-179685528D01*
X185199568Y-179685528D02*
X185056710Y-179756957D01*
X185699568Y-180614100D02*
X185556710Y-180685528D01*
X185556710Y-180685528D02*
X185199568Y-180685528D01*
X185199568Y-180685528D02*
X185056710Y-180614100D01*
X185056710Y-180614100D02*
X184985282Y-180471242D01*
X184985282Y-180471242D02*
X184985282Y-180328385D01*
X184985282Y-180328385D02*
X185056710Y-180185528D01*
X185056710Y-180185528D02*
X185199568Y-180114100D01*
X185199568Y-180114100D02*
X185556710Y-180114100D01*
X185556710Y-180114100D02*
X185699568Y-180042671D01*
X186413853Y-180685528D02*
X186413853Y-179185528D01*
X186413853Y-179756957D02*
X186556711Y-179685528D01*
X186556711Y-179685528D02*
X186842425Y-179685528D01*
X186842425Y-179685528D02*
X186985282Y-179756957D01*
X186985282Y-179756957D02*
X187056711Y-179828385D01*
X187056711Y-179828385D02*
X187128139Y-179971242D01*
X187128139Y-179971242D02*
X187128139Y-180399814D01*
X187128139Y-180399814D02*
X187056711Y-180542671D01*
X187056711Y-180542671D02*
X186985282Y-180614100D01*
X186985282Y-180614100D02*
X186842425Y-180685528D01*
X186842425Y-180685528D02*
X186556711Y-180685528D01*
X186556711Y-180685528D02*
X186413853Y-180614100D01*
X187699568Y-180614100D02*
X187842425Y-180685528D01*
X187842425Y-180685528D02*
X188128139Y-180685528D01*
X188128139Y-180685528D02*
X188270996Y-180614100D01*
X188270996Y-180614100D02*
X188342425Y-180471242D01*
X188342425Y-180471242D02*
X188342425Y-180399814D01*
X188342425Y-180399814D02*
X188270996Y-180256957D01*
X188270996Y-180256957D02*
X188128139Y-180185528D01*
X188128139Y-180185528D02*
X187913854Y-180185528D01*
X187913854Y-180185528D02*
X187770996Y-180114100D01*
X187770996Y-180114100D02*
X187699568Y-179971242D01*
X187699568Y-179971242D02*
X187699568Y-179899814D01*
X187699568Y-179899814D02*
X187770996Y-179756957D01*
X187770996Y-179756957D02*
X187913854Y-179685528D01*
X187913854Y-179685528D02*
X188128139Y-179685528D01*
X188128139Y-179685528D02*
X188270996Y-179756957D01*
D10*
D11*
D10*
D11*
D10*
D11*
D10*
D11*
D10*
D11*
X197002200Y-191507200D02*
X197002200Y-194507200D01*
D10*
D11*
X261002200Y-191507200D02*
X261002200Y-198007200D01*
D14*
%TO.C,ADS5_MTRR2*%
X127315000Y-87040000D03*
X125665000Y-87040000D03*
%TD*%
D15*
%TO.C,ADSC3*%
X123780000Y-87415000D03*
X123780000Y-88965000D03*
%TD*%
D16*
%TO.C,SMA1*%
X59480000Y-103280000D03*
D17*
X59280000Y-101755000D03*
D18*
X59280000Y-104805000D03*
%TD*%
D19*
%TO.C,ADS5_MTRT2*%
X125560000Y-88672500D03*
X127460000Y-88672500D03*
X126510000Y-90547500D03*
%TD*%
D20*
%TO.C,SHJ1*%
X117940000Y-119545000D03*
X118940000Y-119545000D03*
D21*
X116640000Y-115670000D03*
X120240000Y-115670000D03*
%TD*%
D19*
%TO.C,MTRT1*%
X122380000Y-117450000D03*
X124280000Y-117450000D03*
X123330000Y-119325000D03*
%TD*%
D22*
%TO.C,UL2R1*%
X133410000Y-89515000D03*
X133410000Y-87865000D03*
%TD*%
D23*
%TO.C,MTRR1*%
X126490000Y-117387500D03*
X126490000Y-119212500D03*
%TD*%
D20*
%TO.C,BAT1*%
X115230000Y-91920000D03*
X116230000Y-91920000D03*
D21*
X113930000Y-88045000D03*
X117530000Y-88045000D03*
%TD*%
D24*
%TO.C,ADSC4*%
X121990000Y-87230000D03*
X121990000Y-89130000D03*
%TD*%
D25*
X78500000Y-120590000D02*
X133250000Y-120550000D01*
X62619999Y-109620000D02*
G75*
G03*
X78500000Y-120589999I16188051J6454750D01*
G01*
X133250000Y-120550012D02*
G75*
G03*
X133790000Y-120439999I20800J1278212D01*
G01*
X216697100Y-97173020D02*
X226565000Y-103330000D01*
X53290000Y-109620000D02*
X53280000Y-105030000D01*
X86130000Y-85480000D02*
X78780000Y-85490000D01*
D26*
X78780000Y-85489997D02*
G75*
G03*
X62620000Y-96260000I30320J-17554243D01*
G01*
D25*
X86130000Y-85480000D02*
X133230000Y-85460000D01*
X216697110Y-97173004D02*
G75*
G03*
X216016210Y-96980001I-673110J-1077096D01*
G01*
X53290000Y-96260000D02*
X62620000Y-96260000D01*
X147259825Y-110693771D02*
X216016200Y-110696000D01*
X216016210Y-110695995D02*
G75*
G03*
X216697100Y-110502980I7790J1269995D01*
G01*
X226565000Y-104346000D02*
G75*
G03*
X226565000Y-103330000I-380600J508000D01*
G01*
X133790000Y-120440000D02*
X146744025Y-110803232D01*
X216697100Y-110502980D02*
X226565000Y-104346000D01*
X53280000Y-101530000D02*
X53290000Y-96260000D01*
X146744032Y-96868294D02*
G75*
G03*
X147259825Y-96977772I515768J1160194D01*
G01*
X147259825Y-110693769D02*
G75*
G03*
X146744025Y-110803232I75J-1270331D01*
G01*
X147259825Y-96977772D02*
X216016200Y-96980000D01*
X62620000Y-109620000D02*
X53290000Y-109620000D01*
X133745800Y-85569461D02*
X146744025Y-96868311D01*
X91110000Y-103120000D02*
G75*
G03*
X91110000Y-103120000I-12500000J0D01*
G01*
X133745796Y-85569469D02*
G75*
G03*
X133230000Y-85460000I-515796J-1160431D01*
G01*
D26*
%TO.C,SMA1*%
X53280000Y-101530000D02*
X57780000Y-101530000D01*
X57780000Y-101530000D02*
X57780000Y-105030000D01*
X57780000Y-105030000D02*
X53280000Y-105030000D01*
%TD*%
M02*
